<svg width="115" height="32" viewBox="0 0 115 32" fill="none" xmlns="http://www.w3.org/2000/svg">
<path d="M23.9003 0.819708C20.6133 0.819693 2.26283 0.773438 2.26283 0.773438C2.26283 0.773438 0.540764 0.964723 0.135932 2.12484C-0.268901 3.28496 0.359502 4.30007 0.359502 4.30007L7.24168 13.8248V9.71603C7.23261 8.93555 7.3867 8.55591 8.06343 8.31422C8.74017 8.07253 20.3716 8.60217 23.9003 8.26382C27.429 7.92546 27.1873 0.819723 23.9003 0.819708Z" fill="url(#paint0_linear_61_404)"/>
<path d="M7.25074 13.7764C7.24891 13.7738 7.2471 13.7708 7.2453 13.7673C7.02946 13.4388 3.47764 8.07251 6.23562 8.07251C9.13593 8.07251 7.30599 8.36254 7.20241 9.08762C7.1 9.80448 7.0889 13.4618 7.2453 13.7673C7.25644 13.7842 7.2587 13.7878 7.25074 13.7764Z" fill="url(#paint1_linear_61_404)"/>
<path d="M19.9638 12.0847L10.4804 12.0847C10.4804 12.0847 8.75829 12.276 8.35346 13.4361C7.94863 14.5963 8.57703 15.6114 8.57703 15.6114L14.8882 24.2659V20.8822C14.8792 20.1017 15.0332 19.8672 15.71 19.6255C16.3867 19.3838 16.3384 19.6491 20.1088 19.4804C23.8792 19.3117 23.2508 12.0847 19.9638 12.0847Z" fill="url(#paint2_linear_61_404)"/>
<path d="M14.9018 24.2201C14.8959 24.2118 14.8903 24.1999 14.885 24.1847C14.6339 23.7394 12.5141 20.08 14.4048 19.7704C16.4718 19.4321 15.0054 19.6211 14.9018 20.3462C14.802 21.0449 14.744 23.7809 14.885 24.1847C14.9085 24.2262 14.9156 24.2398 14.9018 24.2201Z" fill="url(#paint3_linear_61_404)"/>
<circle cx="10.9728" cy="27.2145" r="3.72205" fill="url(#paint4_linear_61_404)"/>
<path d="M41.3374 26.0938V8.21375H52.9774V10.7337H44.1694V16.1097H52.0174V18.6297H44.1694V26.0938H41.3374ZM55.089 26.0938V13.1097H57.801V26.0938H55.089ZM55.089 11.3337V8.21375H57.801V11.3337H55.089ZM60.9718 26.0938V13.1097H63.6838V26.0938H60.9718ZM60.9718 11.3337V8.21375H63.6838V11.3337H60.9718ZM66.8546 26.0938V13.1097H69.4466V15.6537L69.1346 15.3177C69.4546 14.5017 69.9666 13.8857 70.6706 13.4697C71.3746 13.0377 72.1906 12.8217 73.1186 12.8217C74.0786 12.8217 74.9266 13.0297 75.6626 13.4457C76.3986 13.8617 76.9746 14.4377 77.3906 15.1737C77.8066 15.9097 78.0146 16.7577 78.0146 17.7177V26.0938H75.3266V18.4377C75.3266 17.7817 75.2066 17.2297 74.9666 16.7817C74.7266 16.3177 74.3826 15.9657 73.9346 15.7257C73.5026 15.4697 73.0066 15.3417 72.4466 15.3417C71.8866 15.3417 71.3826 15.4697 70.9346 15.7257C70.5026 15.9657 70.1666 16.3177 69.9266 16.7817C69.6866 17.2457 69.5666 17.7977 69.5666 18.4377V26.0938H66.8546ZM87.1811 31.3738C86.2371 31.3738 85.3651 31.2218 84.5651 30.9178C83.7651 30.6138 83.0771 30.1898 82.5011 29.6458C81.9251 29.1178 81.4931 28.4938 81.2051 27.7738L83.7011 26.7418C83.9251 27.3498 84.3331 27.8538 84.9251 28.2538C85.5331 28.6538 86.2771 28.8538 87.1571 28.8538C87.8451 28.8538 88.4611 28.7178 89.0051 28.4458C89.5491 28.1898 89.9811 27.8058 90.3011 27.2938C90.6211 26.7978 90.7811 26.1978 90.7811 25.4937V22.5658L91.2611 23.1177C90.8131 23.9497 90.1891 24.5817 89.3891 25.0137C88.6051 25.4457 87.7171 25.6617 86.7251 25.6617C85.5251 25.6617 84.4451 25.3817 83.4851 24.8217C82.5251 24.2617 81.7651 23.4937 81.2051 22.5177C80.6611 21.5417 80.3891 20.4457 80.3891 19.2297C80.3891 17.9977 80.6611 16.9017 81.2051 15.9417C81.7651 14.9817 82.5171 14.2217 83.4611 13.6617C84.4051 13.1017 85.4851 12.8217 86.7011 12.8217C87.6931 12.8217 88.5731 13.0377 89.3411 13.4697C90.1251 13.8857 90.7651 14.4937 91.2611 15.2937L90.9011 15.9657V13.1097H93.4691V25.4937C93.4691 26.6138 93.1971 27.6138 92.6531 28.4938C92.1251 29.3898 91.3891 30.0938 90.4451 30.6058C89.5011 31.1178 88.4131 31.3738 87.1811 31.3738ZM87.0371 23.1417C87.7571 23.1417 88.3971 22.9737 88.9571 22.6377C89.5171 22.2857 89.9571 21.8217 90.2771 21.2457C90.6131 20.6537 90.7811 19.9897 90.7811 19.2537C90.7811 18.5177 90.6131 17.8537 90.2771 17.2617C89.9411 16.6697 89.4931 16.2057 88.9331 15.8697C88.3731 15.5177 87.7411 15.3417 87.0371 15.3417C86.3011 15.3417 85.6451 15.5177 85.0691 15.8697C84.4931 16.2057 84.0371 16.6697 83.7011 17.2617C83.3811 17.8377 83.2211 18.5017 83.2211 19.2537C83.2211 19.9737 83.3811 20.6297 83.7011 21.2217C84.0371 21.8137 84.4931 22.2857 85.0691 22.6377C85.6451 22.9737 86.3011 23.1417 87.0371 23.1417Z" fill="#0C111D"/>
<defs>
<linearGradient id="paint0_linear_61_404" x1="0" y1="7.29912" x2="26.457" y2="7.29912" gradientUnits="userSpaceOnUse">
<stop stop-color="#9E72FF"/>
<stop offset="1" stop-color="#3A83FF"/>
</linearGradient>
<linearGradient id="paint1_linear_61_404" x1="5.19115" y1="10.9182" x2="7.72758" y2="10.3241" gradientUnits="userSpaceOnUse">
<stop stop-color="#53389E"/>
<stop offset="1" stop-color="#7F56D9"/>
</linearGradient>
<linearGradient id="paint2_linear_61_404" x1="8.21753" y1="18.1753" x2="22.6907" y2="18.1753" gradientUnits="userSpaceOnUse">
<stop stop-color="#9E72FF"/>
<stop offset="1" stop-color="#3A83FF"/>
</linearGradient>
<linearGradient id="paint3_linear_61_404" x1="13.6272" y1="21.9107" x2="15.4286" y2="21.5452" gradientUnits="userSpaceOnUse">
<stop stop-color="#53389E"/>
<stop offset="1" stop-color="#7F56D9"/>
</linearGradient>
<linearGradient id="paint4_linear_61_404" x1="7.25073" y1="27.2145" x2="14.6948" y2="27.2145" gradientUnits="userSpaceOnUse">
<stop stop-color="#9E72FF"/>
<stop offset="1" stop-color="#3A83FF"/>
</linearGradient>
</defs>
</svg>
