<svg width="816" height="576" viewBox="0 0 816 576" fill="none" xmlns="http://www.w3.org/2000/svg">
<g opacity="0.75" filter="url(#filter0_f_9_353)">
<circle cx="432.5" cy="701.5" r="175.5" fill="#D000D5" fill-opacity="0.69"/>
</g>
<g opacity="0.75" filter="url(#filter1_f_9_353)">
<circle cx="324" cy="416" r="115" fill="#FFCA28"/>
</g>
<g opacity="0.75" filter="url(#filter2_f_9_353)">
<ellipse cx="734" cy="627.5" rx="239" ry="226.5" fill="#53A9FF"/>
<ellipse cx="734" cy="627.5" rx="239" ry="226.5" fill="#53A9FF"/>
</g>
<g opacity="0.75" filter="url(#filter3_f_9_353)">
<circle cx="698.5" cy="274.5" r="274.5" fill="#0015D5"/>
</g>
<g opacity="0.75" filter="url(#filter4_f_9_353)">
<ellipse cx="439" cy="226.5" rx="239" ry="226.5" fill="#53A9FF"/>
<ellipse cx="439" cy="226.5" rx="239" ry="226.5" fill="#53A9FF"/>
</g>
<rect x="239" y="27.5" width="505" height="521" rx="20" fill="white" fill-opacity="0.3"/>
<rect x="282.5" y="174.25" width="344.75" height="319.5" rx="17.5" fill="white"/>
<rect x="282.5" y="174.25" width="344.75" height="319.5" rx="17.5" stroke="#E9D7FE"/>
<path d="M310.731 224.25L316.128 208.605H319.824L325.221 224.25H322.113L321 220.89H314.952L313.818 224.25H310.731ZM315.771 218.37H320.181L317.577 210.579H318.375L315.771 218.37ZM331.823 224.502C330.689 224.502 329.667 224.243 328.757 223.725C327.861 223.193 327.154 222.479 326.636 221.583C326.118 220.673 325.859 219.651 325.859 218.517C325.859 217.383 326.118 216.368 326.636 215.472C327.154 214.576 327.861 213.869 328.757 213.351C329.667 212.833 330.689 212.574 331.823 212.574C332.635 212.574 333.391 212.721 334.091 213.015C334.791 213.295 335.393 213.687 335.897 214.191C336.415 214.681 336.786 215.269 337.01 215.955L334.595 217.005C334.385 216.431 334.028 215.969 333.524 215.619C333.034 215.269 332.467 215.094 331.823 215.094C331.221 215.094 330.682 215.241 330.206 215.535C329.744 215.829 329.38 216.235 329.114 216.753C328.848 217.271 328.715 217.866 328.715 218.538C328.715 219.21 328.848 219.805 329.114 220.323C329.38 220.841 329.744 221.247 330.206 221.541C330.682 221.835 331.221 221.982 331.823 221.982C332.481 221.982 333.055 221.807 333.545 221.457C334.035 221.107 334.385 220.638 334.595 220.05L337.01 221.142C336.786 221.786 336.422 222.367 335.918 222.885C335.414 223.389 334.812 223.788 334.112 224.082C333.412 224.362 332.649 224.502 331.823 224.502ZM344.599 224.502C343.465 224.502 342.443 224.243 341.533 223.725C340.637 223.193 339.93 222.479 339.412 221.583C338.894 220.673 338.635 219.651 338.635 218.517C338.635 217.383 338.894 216.368 339.412 215.472C339.93 214.576 340.637 213.869 341.533 213.351C342.443 212.833 343.465 212.574 344.599 212.574C345.411 212.574 346.167 212.721 346.867 213.015C347.567 213.295 348.169 213.687 348.673 214.191C349.191 214.681 349.562 215.269 349.786 215.955L347.371 217.005C347.161 216.431 346.804 215.969 346.3 215.619C345.81 215.269 345.243 215.094 344.599 215.094C343.997 215.094 343.458 215.241 342.982 215.535C342.52 215.829 342.156 216.235 341.89 216.753C341.624 217.271 341.491 217.866 341.491 218.538C341.491 219.21 341.624 219.805 341.89 220.323C342.156 220.841 342.52 221.247 342.982 221.541C343.458 221.835 343.997 221.982 344.599 221.982C345.257 221.982 345.831 221.807 346.321 221.457C346.811 221.107 347.161 220.638 347.371 220.05L349.786 221.142C349.562 221.786 349.198 222.367 348.694 222.885C348.19 223.389 347.588 223.788 346.888 224.082C346.188 224.362 345.425 224.502 344.599 224.502ZM357.46 224.502C356.34 224.502 355.318 224.243 354.394 223.725C353.484 223.207 352.756 222.5 352.21 221.604C351.678 220.708 351.412 219.686 351.412 218.538C351.412 217.39 351.678 216.368 352.21 215.472C352.756 214.576 353.484 213.869 354.394 213.351C355.304 212.833 356.326 212.574 357.46 212.574C358.58 212.574 359.595 212.833 360.505 213.351C361.415 213.869 362.136 214.576 362.668 215.472C363.214 216.354 363.487 217.376 363.487 218.538C363.487 219.686 363.214 220.708 362.668 221.604C362.122 222.5 361.394 223.207 360.484 223.725C359.574 224.243 358.566 224.502 357.46 224.502ZM357.46 221.982C358.076 221.982 358.615 221.835 359.077 221.541C359.553 221.247 359.924 220.841 360.19 220.323C360.47 219.791 360.61 219.196 360.61 218.538C360.61 217.866 360.47 217.278 360.19 216.774C359.924 216.256 359.553 215.85 359.077 215.556C358.615 215.248 358.076 215.094 357.46 215.094C356.83 215.094 356.277 215.248 355.801 215.556C355.325 215.85 354.947 216.256 354.667 216.774C354.401 217.278 354.268 217.866 354.268 218.538C354.268 219.196 354.401 219.791 354.667 220.323C354.947 220.841 355.325 221.247 355.801 221.541C356.277 221.835 356.83 221.982 357.46 221.982ZM369.647 224.502C368.765 224.502 367.995 224.306 367.337 223.914C366.693 223.522 366.196 222.976 365.846 222.276C365.51 221.576 365.342 220.757 365.342 219.819V212.826H368.093V219.588C368.093 220.064 368.184 220.484 368.366 220.848C368.562 221.198 368.835 221.478 369.185 221.688C369.549 221.884 369.955 221.982 370.403 221.982C370.851 221.982 371.25 221.884 371.6 221.688C371.95 221.478 372.223 221.191 372.419 220.827C372.615 220.463 372.713 220.029 372.713 219.525V212.826H375.464V224.25H372.86V222.003L373.091 222.402C372.825 223.102 372.384 223.627 371.768 223.977C371.166 224.327 370.459 224.502 369.647 224.502ZM378.021 224.25V212.826H380.604V215.073L380.394 214.674C380.66 213.988 381.094 213.47 381.696 213.12C382.312 212.756 383.026 212.574 383.838 212.574C384.678 212.574 385.42 212.756 386.064 213.12C386.722 213.484 387.233 213.995 387.597 214.653C387.961 215.297 388.143 216.046 388.143 216.9V224.25H385.392V217.551C385.392 217.047 385.294 216.613 385.098 216.249C384.902 215.885 384.629 215.605 384.279 215.409C383.943 215.199 383.544 215.094 383.082 215.094C382.634 215.094 382.235 215.199 381.885 215.409C381.535 215.605 381.262 215.885 381.066 216.249C380.87 216.613 380.772 217.047 380.772 217.551V224.25H378.021ZM395.677 224.376C394.389 224.376 393.388 224.026 392.674 223.326C391.974 222.612 391.624 221.611 391.624 220.323V215.283H389.65V212.826H389.86C390.42 212.826 390.854 212.679 391.162 212.385C391.47 212.091 391.624 211.664 391.624 211.104V210.222H394.375V212.826H397V215.283H394.375V220.176C394.375 220.554 394.438 220.876 394.564 221.142C394.704 221.408 394.914 221.611 395.194 221.751C395.488 221.891 395.859 221.961 396.307 221.961C396.405 221.961 396.517 221.954 396.643 221.94C396.783 221.926 396.916 221.912 397.042 221.898V224.25C396.846 224.278 396.622 224.306 396.37 224.334C396.118 224.362 395.887 224.376 395.677 224.376ZM403.491 224.502C402.273 224.502 401.209 224.215 400.299 223.641C399.403 223.053 398.787 222.262 398.451 221.268L400.509 220.281C400.803 220.925 401.209 221.429 401.727 221.793C402.259 222.157 402.847 222.339 403.491 222.339C403.995 222.339 404.394 222.227 404.688 222.003C404.982 221.779 405.129 221.485 405.129 221.121C405.129 220.897 405.066 220.715 404.94 220.575C404.828 220.421 404.667 220.295 404.457 220.197C404.261 220.085 404.044 219.994 403.806 219.924L401.937 219.399C400.971 219.119 400.236 218.692 399.732 218.118C399.242 217.544 398.997 216.865 398.997 216.081C398.997 215.381 399.172 214.772 399.522 214.254C399.886 213.722 400.383 213.309 401.013 213.015C401.657 212.721 402.392 212.574 403.218 212.574C404.296 212.574 405.248 212.833 406.074 213.351C406.9 213.869 407.488 214.597 407.838 215.535L405.738 216.522C405.542 216.004 405.213 215.591 404.751 215.283C404.289 214.975 403.771 214.821 403.197 214.821C402.735 214.821 402.371 214.926 402.105 215.136C401.839 215.346 401.706 215.619 401.706 215.955C401.706 216.165 401.762 216.347 401.874 216.501C401.986 216.655 402.14 216.781 402.336 216.879C402.546 216.977 402.784 217.068 403.05 217.152L404.877 217.698C405.815 217.978 406.536 218.398 407.04 218.958C407.558 219.518 407.817 220.204 407.817 221.016C407.817 221.702 407.635 222.311 407.271 222.843C406.907 223.361 406.403 223.767 405.759 224.061C405.115 224.355 404.359 224.502 403.491 224.502Z" fill="#344054"/>
<path d="M301.086 264.25V260.2H300.246V259.78H301.566V264.25H301.086ZM302.689 264.25V259.708H303.139V262.888L302.947 262.858L304.753 261.034H305.335L304.075 262.324L305.449 264.25H304.909L303.619 262.468L303.907 262.492L302.989 263.44L303.139 263.068V264.25H302.689Z" fill="#8F8F8F"/>
<path d="M300.87 285.583L302.424 283.549L302.514 283.495C302.454 283.591 302.384 283.667 302.304 283.723C302.224 283.779 302.136 283.819 302.04 283.843C301.944 283.867 301.838 283.879 301.722 283.879C301.462 283.879 301.228 283.819 301.02 283.699C300.812 283.575 300.646 283.407 300.522 283.195C300.402 282.979 300.342 282.733 300.342 282.457C300.342 282.185 300.404 281.943 300.528 281.731C300.656 281.519 300.828 281.351 301.044 281.227C301.264 281.103 301.51 281.041 301.782 281.041C302.062 281.041 302.31 281.105 302.526 281.233C302.742 281.357 302.912 281.531 303.036 281.755C303.16 281.975 303.222 282.229 303.222 282.517C303.222 282.677 303.202 282.835 303.162 282.991C303.126 283.147 303.07 283.301 302.994 283.453C302.918 283.605 302.822 283.757 302.706 283.909L301.446 285.583H300.87ZM301.782 283.447C301.97 283.447 302.136 283.405 302.28 283.321C302.424 283.233 302.536 283.115 302.616 282.967C302.7 282.815 302.742 282.645 302.742 282.457C302.742 282.265 302.7 282.095 302.616 281.947C302.532 281.795 302.418 281.677 302.274 281.593C302.13 281.505 301.966 281.461 301.782 281.461C301.598 281.461 301.434 281.505 301.29 281.593C301.146 281.677 301.032 281.795 300.948 281.947C300.864 282.095 300.822 282.265 300.822 282.457C300.822 282.645 300.862 282.815 300.942 282.967C301.026 283.115 301.14 283.233 301.284 283.321C301.432 283.405 301.598 283.447 301.782 283.447ZM305.782 285.655C305.43 285.655 305.12 285.559 304.852 285.367C304.588 285.171 304.382 284.901 304.234 284.557C304.086 284.209 304.012 283.805 304.012 283.345C304.012 282.885 304.086 282.483 304.234 282.139C304.382 281.791 304.588 281.521 304.852 281.329C305.116 281.137 305.424 281.041 305.776 281.041C306.128 281.041 306.436 281.137 306.7 281.329C306.964 281.521 307.17 281.791 307.318 282.139C307.466 282.483 307.54 282.885 307.54 283.345C307.54 283.805 307.466 284.209 307.318 284.557C307.174 284.905 306.97 285.175 306.706 285.367C306.442 285.559 306.134 285.655 305.782 285.655ZM305.782 285.205C306.038 285.205 306.262 285.127 306.454 284.971C306.646 284.815 306.796 284.599 306.904 284.323C307.012 284.043 307.066 283.717 307.066 283.345C307.066 282.973 307.012 282.649 306.904 282.373C306.796 282.093 306.646 281.877 306.454 281.725C306.262 281.569 306.036 281.491 305.776 281.491C305.52 281.491 305.296 281.569 305.104 281.725C304.912 281.877 304.762 282.093 304.654 282.373C304.546 282.649 304.492 282.973 304.492 283.345C304.492 283.713 304.546 284.037 304.654 284.317C304.762 284.597 304.912 284.815 305.104 284.971C305.3 285.127 305.526 285.205 305.782 285.205ZM310.177 285.655C309.825 285.655 309.515 285.559 309.247 285.367C308.983 285.171 308.777 284.901 308.629 284.557C308.481 284.209 308.407 283.805 308.407 283.345C308.407 282.885 308.481 282.483 308.629 282.139C308.777 281.791 308.983 281.521 309.247 281.329C309.511 281.137 309.819 281.041 310.171 281.041C310.523 281.041 310.831 281.137 311.095 281.329C311.359 281.521 311.565 281.791 311.713 282.139C311.861 282.483 311.935 282.885 311.935 283.345C311.935 283.805 311.861 284.209 311.713 284.557C311.569 284.905 311.365 285.175 311.101 285.367C310.837 285.559 310.529 285.655 310.177 285.655ZM310.177 285.205C310.433 285.205 310.657 285.127 310.849 284.971C311.041 284.815 311.191 284.599 311.299 284.323C311.407 284.043 311.461 283.717 311.461 283.345C311.461 282.973 311.407 282.649 311.299 282.373C311.191 282.093 311.041 281.877 310.849 281.725C310.657 281.569 310.431 281.491 310.171 281.491C309.915 281.491 309.691 281.569 309.499 281.725C309.307 281.877 309.157 282.093 309.049 282.373C308.941 282.649 308.887 282.973 308.887 283.345C308.887 283.713 308.941 284.037 309.049 284.317C309.157 284.597 309.307 284.815 309.499 284.971C309.695 285.127 309.921 285.205 310.177 285.205Z" fill="#8F8F8F"/>
<path d="M301.884 306.989C301.596 306.989 301.338 306.931 301.11 306.815C300.886 306.695 300.708 306.533 300.576 306.329C300.448 306.121 300.384 305.887 300.384 305.627C300.384 305.343 300.464 305.089 300.624 304.865C300.788 304.641 301.008 304.485 301.284 304.397V304.523C301.072 304.431 300.908 304.295 300.792 304.115C300.676 303.931 300.618 303.735 300.618 303.527C300.618 303.307 300.674 303.111 300.786 302.939C300.898 302.767 301.048 302.631 301.236 302.531C301.428 302.427 301.644 302.375 301.884 302.375C302.128 302.375 302.344 302.425 302.532 302.525C302.72 302.621 302.868 302.757 302.976 302.933C303.088 303.105 303.144 303.303 303.144 303.527C303.144 303.751 303.084 303.951 302.964 304.127C302.844 304.299 302.686 304.431 302.49 304.523L302.484 304.397C302.76 304.485 302.978 304.641 303.138 304.865C303.302 305.089 303.384 305.343 303.384 305.627C303.384 305.887 303.318 306.121 303.186 306.329C303.058 306.533 302.88 306.695 302.652 306.815C302.428 306.931 302.172 306.989 301.884 306.989ZM301.884 306.569C302.088 306.569 302.266 306.531 302.418 306.455C302.57 306.375 302.688 306.265 302.772 306.125C302.86 305.981 302.904 305.815 302.904 305.627C302.904 305.439 302.86 305.275 302.772 305.135C302.688 304.991 302.57 304.881 302.418 304.805C302.266 304.725 302.088 304.685 301.884 304.685C301.68 304.685 301.5 304.725 301.344 304.805C301.192 304.881 301.074 304.991 300.99 305.135C300.906 305.275 300.864 305.439 300.864 305.627C300.864 305.815 300.906 305.981 300.99 306.125C301.074 306.265 301.192 306.375 301.344 306.455C301.5 306.531 301.68 306.569 301.884 306.569ZM301.884 304.265C302.032 304.265 302.164 304.235 302.28 304.175C302.396 304.111 302.488 304.025 302.556 303.917C302.628 303.805 302.664 303.675 302.664 303.527C302.664 303.379 302.628 303.251 302.556 303.143C302.488 303.035 302.396 302.951 302.28 302.891C302.164 302.827 302.032 302.795 301.884 302.795C301.736 302.795 301.602 302.827 301.482 302.891C301.366 302.951 301.272 303.035 301.2 303.143C301.132 303.251 301.098 303.379 301.098 303.527C301.098 303.675 301.132 303.805 301.2 303.917C301.272 304.025 301.366 304.111 301.482 304.175C301.602 304.235 301.736 304.265 301.884 304.265ZM305.97 306.989C305.618 306.989 305.308 306.893 305.04 306.701C304.776 306.505 304.57 306.235 304.422 305.891C304.274 305.543 304.2 305.139 304.2 304.679C304.2 304.219 304.274 303.817 304.422 303.473C304.57 303.125 304.776 302.855 305.04 302.663C305.304 302.471 305.612 302.375 305.964 302.375C306.316 302.375 306.624 302.471 306.888 302.663C307.152 302.855 307.358 303.125 307.506 303.473C307.654 303.817 307.728 304.219 307.728 304.679C307.728 305.139 307.654 305.543 307.506 305.891C307.362 306.239 307.158 306.509 306.894 306.701C306.63 306.893 306.322 306.989 305.97 306.989ZM305.97 306.539C306.226 306.539 306.45 306.461 306.642 306.305C306.834 306.149 306.984 305.933 307.092 305.657C307.2 305.377 307.254 305.051 307.254 304.679C307.254 304.307 307.2 303.983 307.092 303.707C306.984 303.427 306.834 303.211 306.642 303.059C306.45 302.903 306.224 302.825 305.964 302.825C305.708 302.825 305.484 302.903 305.292 303.059C305.1 303.211 304.95 303.427 304.842 303.707C304.734 303.983 304.68 304.307 304.68 304.679C304.68 305.047 304.734 305.371 304.842 305.651C304.95 305.931 305.1 306.149 305.292 306.305C305.488 306.461 305.714 306.539 305.97 306.539ZM310.364 306.989C310.012 306.989 309.702 306.893 309.434 306.701C309.17 306.505 308.964 306.235 308.816 305.891C308.668 305.543 308.594 305.139 308.594 304.679C308.594 304.219 308.668 303.817 308.816 303.473C308.964 303.125 309.17 302.855 309.434 302.663C309.698 302.471 310.006 302.375 310.358 302.375C310.71 302.375 311.018 302.471 311.282 302.663C311.546 302.855 311.752 303.125 311.9 303.473C312.048 303.817 312.122 304.219 312.122 304.679C312.122 305.139 312.048 305.543 311.9 305.891C311.756 306.239 311.552 306.509 311.288 306.701C311.024 306.893 310.716 306.989 310.364 306.989ZM310.364 306.539C310.62 306.539 310.844 306.461 311.036 306.305C311.228 306.149 311.378 305.933 311.486 305.657C311.594 305.377 311.648 305.051 311.648 304.679C311.648 304.307 311.594 303.983 311.486 303.707C311.378 303.427 311.228 303.211 311.036 303.059C310.844 302.903 310.618 302.825 310.358 302.825C310.102 302.825 309.878 302.903 309.686 303.059C309.494 303.211 309.344 303.427 309.236 303.707C309.128 303.983 309.074 304.307 309.074 304.679C309.074 305.047 309.128 305.371 309.236 305.651C309.344 305.931 309.494 306.149 309.686 306.305C309.882 306.461 310.108 306.539 310.364 306.539Z" fill="#8F8F8F"/>
<path d="M300.474 328.25L302.49 324.2H300.258V323.78H302.988V324.2L300.978 328.25H300.474ZM305.46 328.322C305.108 328.322 304.798 328.226 304.53 328.034C304.266 327.838 304.06 327.568 303.912 327.224C303.764 326.876 303.69 326.472 303.69 326.012C303.69 325.552 303.764 325.15 303.912 324.806C304.06 324.458 304.266 324.188 304.53 323.996C304.794 323.804 305.102 323.708 305.454 323.708C305.806 323.708 306.114 323.804 306.378 323.996C306.642 324.188 306.848 324.458 306.996 324.806C307.144 325.15 307.218 325.552 307.218 326.012C307.218 326.472 307.144 326.876 306.996 327.224C306.852 327.572 306.648 327.842 306.384 328.034C306.12 328.226 305.812 328.322 305.46 328.322ZM305.46 327.872C305.716 327.872 305.94 327.794 306.132 327.638C306.324 327.482 306.474 327.266 306.582 326.99C306.69 326.71 306.744 326.384 306.744 326.012C306.744 325.64 306.69 325.316 306.582 325.04C306.474 324.76 306.324 324.544 306.132 324.392C305.94 324.236 305.714 324.158 305.454 324.158C305.198 324.158 304.974 324.236 304.782 324.392C304.59 324.544 304.44 324.76 304.332 325.04C304.224 325.316 304.17 325.64 304.17 326.012C304.17 326.38 304.224 326.704 304.332 326.984C304.44 327.264 304.59 327.482 304.782 327.638C304.978 327.794 305.204 327.872 305.46 327.872ZM309.854 328.322C309.502 328.322 309.192 328.226 308.924 328.034C308.66 327.838 308.454 327.568 308.306 327.224C308.158 326.876 308.084 326.472 308.084 326.012C308.084 325.552 308.158 325.15 308.306 324.806C308.454 324.458 308.66 324.188 308.924 323.996C309.188 323.804 309.496 323.708 309.848 323.708C310.2 323.708 310.508 323.804 310.772 323.996C311.036 324.188 311.242 324.458 311.39 324.806C311.538 325.15 311.612 325.552 311.612 326.012C311.612 326.472 311.538 326.876 311.39 327.224C311.246 327.572 311.042 327.842 310.778 328.034C310.514 328.226 310.206 328.322 309.854 328.322ZM309.854 327.872C310.11 327.872 310.334 327.794 310.526 327.638C310.718 327.482 310.868 327.266 310.976 326.99C311.084 326.71 311.138 326.384 311.138 326.012C311.138 325.64 311.084 325.316 310.976 325.04C310.868 324.76 310.718 324.544 310.526 324.392C310.334 324.236 310.108 324.158 309.848 324.158C309.592 324.158 309.368 324.236 309.176 324.392C308.984 324.544 308.834 324.76 308.726 325.04C308.618 325.316 308.564 325.64 308.564 326.012C308.564 326.38 308.618 326.704 308.726 326.984C308.834 327.264 308.984 327.482 309.176 327.638C309.372 327.794 309.598 327.872 309.854 327.872Z" fill="#8F8F8F"/>
<path d="M301.8 349.655C301.52 349.655 301.272 349.593 301.056 349.469C300.84 349.341 300.67 349.167 300.546 348.947C300.422 348.723 300.36 348.467 300.36 348.179C300.36 348.019 300.378 347.861 300.414 347.705C300.454 347.549 300.512 347.395 300.588 347.243C300.668 347.091 300.764 346.939 300.876 346.787L302.136 345.113H302.712L301.158 347.147L301.068 347.201C301.128 347.101 301.198 347.025 301.278 346.973C301.358 346.917 301.446 346.877 301.542 346.853C301.642 346.829 301.748 346.817 301.86 346.817C302.12 346.817 302.354 346.879 302.562 347.003C302.77 347.123 302.934 347.289 303.054 347.501C303.178 347.713 303.24 347.959 303.24 348.239C303.24 348.507 303.176 348.749 303.048 348.965C302.924 349.177 302.754 349.345 302.538 349.469C302.322 349.593 302.076 349.655 301.8 349.655ZM301.8 349.235C301.984 349.235 302.148 349.193 302.292 349.109C302.436 349.021 302.55 348.901 302.634 348.749C302.718 348.597 302.76 348.427 302.76 348.239C302.76 348.047 302.718 347.877 302.634 347.729C302.554 347.581 302.442 347.465 302.298 347.381C302.154 347.293 301.988 347.249 301.8 347.249C301.616 347.249 301.45 347.293 301.302 347.381C301.158 347.465 301.044 347.581 300.96 347.729C300.88 347.877 300.84 348.047 300.84 348.239C300.84 348.427 300.882 348.597 300.966 348.749C301.05 348.901 301.164 349.021 301.308 349.109C301.452 349.193 301.616 349.235 301.8 349.235ZM305.782 349.655C305.43 349.655 305.12 349.559 304.852 349.367C304.588 349.171 304.382 348.901 304.234 348.557C304.086 348.209 304.012 347.805 304.012 347.345C304.012 346.885 304.086 346.483 304.234 346.139C304.382 345.791 304.588 345.521 304.852 345.329C305.116 345.137 305.424 345.041 305.776 345.041C306.128 345.041 306.436 345.137 306.7 345.329C306.964 345.521 307.17 345.791 307.318 346.139C307.466 346.483 307.54 346.885 307.54 347.345C307.54 347.805 307.466 348.209 307.318 348.557C307.174 348.905 306.97 349.175 306.706 349.367C306.442 349.559 306.134 349.655 305.782 349.655ZM305.782 349.205C306.038 349.205 306.262 349.127 306.454 348.971C306.646 348.815 306.796 348.599 306.904 348.323C307.012 348.043 307.066 347.717 307.066 347.345C307.066 346.973 307.012 346.649 306.904 346.373C306.796 346.093 306.646 345.877 306.454 345.725C306.262 345.569 306.036 345.491 305.776 345.491C305.52 345.491 305.296 345.569 305.104 345.725C304.912 345.877 304.762 346.093 304.654 346.373C304.546 346.649 304.492 346.973 304.492 347.345C304.492 347.713 304.546 348.037 304.654 348.317C304.762 348.597 304.912 348.815 305.104 348.971C305.3 349.127 305.526 349.205 305.782 349.205ZM310.177 349.655C309.825 349.655 309.515 349.559 309.247 349.367C308.983 349.171 308.777 348.901 308.629 348.557C308.481 348.209 308.407 347.805 308.407 347.345C308.407 346.885 308.481 346.483 308.629 346.139C308.777 345.791 308.983 345.521 309.247 345.329C309.511 345.137 309.819 345.041 310.171 345.041C310.523 345.041 310.831 345.137 311.095 345.329C311.359 345.521 311.565 345.791 311.713 346.139C311.861 346.483 311.935 346.885 311.935 347.345C311.935 347.805 311.861 348.209 311.713 348.557C311.569 348.905 311.365 349.175 311.101 349.367C310.837 349.559 310.529 349.655 310.177 349.655ZM310.177 349.205C310.433 349.205 310.657 349.127 310.849 348.971C311.041 348.815 311.191 348.599 311.299 348.323C311.407 348.043 311.461 347.717 311.461 347.345C311.461 346.973 311.407 346.649 311.299 346.373C311.191 346.093 311.041 345.877 310.849 345.725C310.657 345.569 310.431 345.491 310.171 345.491C309.915 345.491 309.691 345.569 309.499 345.725C309.307 345.877 309.157 346.093 309.049 346.373C308.941 346.649 308.887 346.973 308.887 347.345C308.887 347.713 308.941 348.037 309.049 348.317C309.157 348.597 309.307 348.815 309.499 348.971C309.695 349.127 309.921 349.205 310.177 349.205Z" fill="#8F8F8F"/>
<path d="M301.812 370.989C301.58 370.989 301.364 370.949 301.164 370.869C300.968 370.789 300.796 370.675 300.648 370.527C300.5 370.379 300.388 370.203 300.312 369.999L300.678 369.819C300.77 370.051 300.92 370.235 301.128 370.371C301.34 370.503 301.568 370.569 301.812 370.569C302.008 370.569 302.182 370.523 302.334 370.431C302.49 370.339 302.612 370.215 302.7 370.059C302.788 369.899 302.832 369.721 302.832 369.525C302.832 369.321 302.786 369.141 302.694 368.985C302.606 368.829 302.486 368.707 302.334 368.619C302.182 368.527 302.01 368.481 301.818 368.481C301.622 368.481 301.44 368.527 301.272 368.619C301.108 368.707 300.988 368.815 300.912 368.943L300.534 368.871L300.87 366.447H303.132V366.867H301.044L301.23 366.705L300.96 368.613L300.774 368.529C300.914 368.357 301.078 368.235 301.266 368.163C301.454 368.087 301.646 368.049 301.842 368.049C302.13 368.049 302.384 368.117 302.604 368.253C302.824 368.385 302.996 368.563 303.12 368.787C303.248 369.007 303.312 369.253 303.312 369.525C303.312 369.801 303.246 370.051 303.114 370.275C302.986 370.495 302.808 370.669 302.58 370.797C302.356 370.925 302.1 370.989 301.812 370.989ZM305.899 370.989C305.547 370.989 305.237 370.893 304.969 370.701C304.705 370.505 304.499 370.235 304.351 369.891C304.203 369.543 304.129 369.139 304.129 368.679C304.129 368.219 304.203 367.817 304.351 367.473C304.499 367.125 304.705 366.855 304.969 366.663C305.233 366.471 305.541 366.375 305.893 366.375C306.245 366.375 306.553 366.471 306.817 366.663C307.081 366.855 307.287 367.125 307.435 367.473C307.583 367.817 307.657 368.219 307.657 368.679C307.657 369.139 307.583 369.543 307.435 369.891C307.291 370.239 307.087 370.509 306.823 370.701C306.559 370.893 306.251 370.989 305.899 370.989ZM305.899 370.539C306.155 370.539 306.379 370.461 306.571 370.305C306.763 370.149 306.913 369.933 307.021 369.657C307.129 369.377 307.183 369.051 307.183 368.679C307.183 368.307 307.129 367.983 307.021 367.707C306.913 367.427 306.763 367.211 306.571 367.059C306.379 366.903 306.153 366.825 305.893 366.825C305.637 366.825 305.413 366.903 305.221 367.059C305.029 367.211 304.879 367.427 304.771 367.707C304.663 367.983 304.609 368.307 304.609 368.679C304.609 369.047 304.663 369.371 304.771 369.651C304.879 369.931 305.029 370.149 305.221 370.305C305.417 370.461 305.643 370.539 305.899 370.539ZM310.294 370.989C309.942 370.989 309.632 370.893 309.364 370.701C309.1 370.505 308.894 370.235 308.746 369.891C308.598 369.543 308.524 369.139 308.524 368.679C308.524 368.219 308.598 367.817 308.746 367.473C308.894 367.125 309.1 366.855 309.364 366.663C309.628 366.471 309.936 366.375 310.288 366.375C310.64 366.375 310.948 366.471 311.212 366.663C311.476 366.855 311.682 367.125 311.83 367.473C311.978 367.817 312.052 368.219 312.052 368.679C312.052 369.139 311.978 369.543 311.83 369.891C311.686 370.239 311.482 370.509 311.218 370.701C310.954 370.893 310.646 370.989 310.294 370.989ZM310.294 370.539C310.55 370.539 310.774 370.461 310.966 370.305C311.158 370.149 311.308 369.933 311.416 369.657C311.524 369.377 311.578 369.051 311.578 368.679C311.578 368.307 311.524 367.983 311.416 367.707C311.308 367.427 311.158 367.211 310.966 367.059C310.774 366.903 310.548 366.825 310.288 366.825C310.032 366.825 309.808 366.903 309.616 367.059C309.424 367.211 309.274 367.427 309.166 367.707C309.058 367.983 309.004 368.307 309.004 368.679C309.004 369.047 309.058 369.371 309.166 369.651C309.274 369.931 309.424 370.149 309.616 370.305C309.812 370.461 310.038 370.539 310.294 370.539Z" fill="#8F8F8F"/>
<path d="M302.55 392.25V391.194H300.276V390.804L302.55 387.78H302.97V390.804H303.516V391.194H302.97V392.25H302.55ZM300.642 390.978L300.588 390.804H302.55V388.194L302.7 388.236L300.642 390.978ZM305.981 392.322C305.629 392.322 305.319 392.226 305.051 392.034C304.787 391.838 304.581 391.568 304.433 391.224C304.285 390.876 304.211 390.472 304.211 390.012C304.211 389.552 304.285 389.15 304.433 388.806C304.581 388.458 304.787 388.188 305.051 387.996C305.315 387.804 305.623 387.708 305.975 387.708C306.327 387.708 306.635 387.804 306.899 387.996C307.163 388.188 307.369 388.458 307.517 388.806C307.665 389.15 307.739 389.552 307.739 390.012C307.739 390.472 307.665 390.876 307.517 391.224C307.373 391.572 307.169 391.842 306.905 392.034C306.641 392.226 306.333 392.322 305.981 392.322ZM305.981 391.872C306.237 391.872 306.461 391.794 306.653 391.638C306.845 391.482 306.995 391.266 307.103 390.99C307.211 390.71 307.265 390.384 307.265 390.012C307.265 389.64 307.211 389.316 307.103 389.04C306.995 388.76 306.845 388.544 306.653 388.392C306.461 388.236 306.235 388.158 305.975 388.158C305.719 388.158 305.495 388.236 305.303 388.392C305.111 388.544 304.961 388.76 304.853 389.04C304.745 389.316 304.691 389.64 304.691 390.012C304.691 390.38 304.745 390.704 304.853 390.984C304.961 391.264 305.111 391.482 305.303 391.638C305.499 391.794 305.725 391.872 305.981 391.872ZM310.376 392.322C310.024 392.322 309.714 392.226 309.446 392.034C309.182 391.838 308.976 391.568 308.828 391.224C308.68 390.876 308.606 390.472 308.606 390.012C308.606 389.552 308.68 389.15 308.828 388.806C308.976 388.458 309.182 388.188 309.446 387.996C309.71 387.804 310.018 387.708 310.37 387.708C310.722 387.708 311.03 387.804 311.294 387.996C311.558 388.188 311.764 388.458 311.912 388.806C312.06 389.15 312.134 389.552 312.134 390.012C312.134 390.472 312.06 390.876 311.912 391.224C311.768 391.572 311.564 391.842 311.3 392.034C311.036 392.226 310.728 392.322 310.376 392.322ZM310.376 391.872C310.632 391.872 310.856 391.794 311.048 391.638C311.24 391.482 311.39 391.266 311.498 390.99C311.606 390.71 311.66 390.384 311.66 390.012C311.66 389.64 311.606 389.316 311.498 389.04C311.39 388.76 311.24 388.544 311.048 388.392C310.856 388.236 310.63 388.158 310.37 388.158C310.114 388.158 309.89 388.236 309.698 388.392C309.506 388.544 309.356 388.76 309.248 389.04C309.14 389.316 309.086 389.64 309.086 390.012C309.086 390.38 309.14 390.704 309.248 390.984C309.356 391.264 309.506 391.482 309.698 391.638C309.894 391.794 310.12 391.872 310.376 391.872Z" fill="#8F8F8F"/>
<path d="M301.764 413.655C301.532 413.655 301.318 413.615 301.122 413.535C300.926 413.455 300.754 413.341 300.606 413.193C300.462 413.045 300.352 412.869 300.276 412.665L300.66 412.485C300.752 412.717 300.896 412.901 301.092 413.037C301.288 413.169 301.512 413.235 301.764 413.235C301.964 413.235 302.142 413.197 302.298 413.121C302.454 413.041 302.576 412.927 302.664 412.779C302.752 412.631 302.796 412.451 302.796 412.239C302.796 412.027 302.75 411.847 302.658 411.699C302.57 411.551 302.448 411.439 302.292 411.363C302.136 411.287 301.958 411.249 301.758 411.249C301.706 411.249 301.648 411.251 301.584 411.255C301.524 411.259 301.474 411.265 301.434 411.273L301.338 411.063L302.544 409.533H300.486V409.113H303.084V409.533L301.956 410.955L301.896 410.877C302.164 410.885 302.402 410.949 302.61 411.069C302.818 411.185 302.98 411.343 303.096 411.543C303.216 411.743 303.276 411.975 303.276 412.239C303.276 412.503 303.212 412.743 303.084 412.959C302.956 413.171 302.778 413.341 302.55 413.469C302.322 413.593 302.06 413.655 301.764 413.655ZM305.858 413.655C305.506 413.655 305.196 413.559 304.928 413.367C304.664 413.171 304.458 412.901 304.31 412.557C304.162 412.209 304.088 411.805 304.088 411.345C304.088 410.885 304.162 410.483 304.31 410.139C304.458 409.791 304.664 409.521 304.928 409.329C305.192 409.137 305.5 409.041 305.852 409.041C306.204 409.041 306.512 409.137 306.776 409.329C307.04 409.521 307.246 409.791 307.394 410.139C307.542 410.483 307.616 410.885 307.616 411.345C307.616 411.805 307.542 412.209 307.394 412.557C307.25 412.905 307.046 413.175 306.782 413.367C306.518 413.559 306.21 413.655 305.858 413.655ZM305.858 413.205C306.114 413.205 306.338 413.127 306.53 412.971C306.722 412.815 306.872 412.599 306.98 412.323C307.088 412.043 307.142 411.717 307.142 411.345C307.142 410.973 307.088 410.649 306.98 410.373C306.872 410.093 306.722 409.877 306.53 409.725C306.338 409.569 306.112 409.491 305.852 409.491C305.596 409.491 305.372 409.569 305.18 409.725C304.988 409.877 304.838 410.093 304.73 410.373C304.622 410.649 304.568 410.973 304.568 411.345C304.568 411.713 304.622 412.037 304.73 412.317C304.838 412.597 304.988 412.815 305.18 412.971C305.376 413.127 305.602 413.205 305.858 413.205ZM310.253 413.655C309.901 413.655 309.591 413.559 309.323 413.367C309.059 413.171 308.853 412.901 308.705 412.557C308.557 412.209 308.483 411.805 308.483 411.345C308.483 410.885 308.557 410.483 308.705 410.139C308.853 409.791 309.059 409.521 309.323 409.329C309.587 409.137 309.895 409.041 310.247 409.041C310.599 409.041 310.907 409.137 311.171 409.329C311.435 409.521 311.641 409.791 311.789 410.139C311.937 410.483 312.011 410.885 312.011 411.345C312.011 411.805 311.937 412.209 311.789 412.557C311.645 412.905 311.441 413.175 311.177 413.367C310.913 413.559 310.605 413.655 310.253 413.655ZM310.253 413.205C310.509 413.205 310.733 413.127 310.925 412.971C311.117 412.815 311.267 412.599 311.375 412.323C311.483 412.043 311.537 411.717 311.537 411.345C311.537 410.973 311.483 410.649 311.375 410.373C311.267 410.093 311.117 409.877 310.925 409.725C310.733 409.569 310.507 409.491 310.247 409.491C309.991 409.491 309.767 409.569 309.575 409.725C309.383 409.877 309.233 410.093 309.125 410.373C309.017 410.649 308.963 410.973 308.963 411.345C308.963 411.713 309.017 412.037 309.125 412.317C309.233 412.597 309.383 412.815 309.575 412.971C309.771 413.127 309.997 413.205 310.253 413.205Z" fill="#8F8F8F"/>
<path d="M300.348 434.917V434.617L301.596 433.243C301.84 432.975 302.038 432.753 302.19 432.577C302.346 432.401 302.462 432.241 302.538 432.097C302.614 431.953 302.652 431.797 302.652 431.629C302.652 431.361 302.574 431.155 302.418 431.011C302.262 430.867 302.054 430.795 301.794 430.795C301.526 430.795 301.3 430.871 301.116 431.023C300.936 431.175 300.814 431.387 300.75 431.659L300.312 431.563C300.364 431.319 300.458 431.109 300.594 430.933C300.73 430.757 300.9 430.621 301.104 430.525C301.308 430.425 301.536 430.375 301.788 430.375C302.056 430.375 302.29 430.429 302.49 430.537C302.69 430.645 302.846 430.793 302.958 430.981C303.074 431.169 303.132 431.385 303.132 431.629C303.132 431.797 303.096 431.959 303.024 432.115C302.956 432.271 302.852 432.439 302.712 432.619C302.572 432.799 302.392 433.009 302.172 433.249L301.038 434.497H303.252V434.917H300.348ZM305.8 434.989C305.448 434.989 305.138 434.893 304.87 434.701C304.606 434.505 304.4 434.235 304.252 433.891C304.104 433.543 304.03 433.139 304.03 432.679C304.03 432.219 304.104 431.817 304.252 431.473C304.4 431.125 304.606 430.855 304.87 430.663C305.134 430.471 305.442 430.375 305.794 430.375C306.146 430.375 306.454 430.471 306.718 430.663C306.982 430.855 307.188 431.125 307.336 431.473C307.484 431.817 307.558 432.219 307.558 432.679C307.558 433.139 307.484 433.543 307.336 433.891C307.192 434.239 306.988 434.509 306.724 434.701C306.46 434.893 306.152 434.989 305.8 434.989ZM305.8 434.539C306.056 434.539 306.28 434.461 306.472 434.305C306.664 434.149 306.814 433.933 306.922 433.657C307.03 433.377 307.084 433.051 307.084 432.679C307.084 432.307 307.03 431.983 306.922 431.707C306.814 431.427 306.664 431.211 306.472 431.059C306.28 430.903 306.054 430.825 305.794 430.825C305.538 430.825 305.314 430.903 305.122 431.059C304.93 431.211 304.78 431.427 304.672 431.707C304.564 431.983 304.51 432.307 304.51 432.679C304.51 433.047 304.564 433.371 304.672 433.651C304.78 433.931 304.93 434.149 305.122 434.305C305.318 434.461 305.544 434.539 305.8 434.539ZM310.194 434.989C309.842 434.989 309.532 434.893 309.264 434.701C309 434.505 308.794 434.235 308.646 433.891C308.498 433.543 308.424 433.139 308.424 432.679C308.424 432.219 308.498 431.817 308.646 431.473C308.794 431.125 309 430.855 309.264 430.663C309.528 430.471 309.836 430.375 310.188 430.375C310.54 430.375 310.848 430.471 311.112 430.663C311.376 430.855 311.582 431.125 311.73 431.473C311.878 431.817 311.952 432.219 311.952 432.679C311.952 433.139 311.878 433.543 311.73 433.891C311.586 434.239 311.382 434.509 311.118 434.701C310.854 434.893 310.546 434.989 310.194 434.989ZM310.194 434.539C310.45 434.539 310.674 434.461 310.866 434.305C311.058 434.149 311.208 433.933 311.316 433.657C311.424 433.377 311.478 433.051 311.478 432.679C311.478 432.307 311.424 431.983 311.316 431.707C311.208 431.427 311.058 431.211 310.866 431.059C310.674 430.903 310.448 430.825 310.188 430.825C309.932 430.825 309.708 430.903 309.516 431.059C309.324 431.211 309.174 431.427 309.066 431.707C308.958 431.983 308.904 432.307 308.904 432.679C308.904 433.047 308.958 433.371 309.066 433.651C309.174 433.931 309.324 434.149 309.516 434.305C309.712 434.461 309.938 434.539 310.194 434.539Z" fill="#8F8F8F"/>
<path d="M301.086 456.25V452.2H300.246V451.78H301.566V456.25H301.086ZM304.429 456.322C304.077 456.322 303.767 456.226 303.499 456.034C303.235 455.838 303.029 455.568 302.881 455.224C302.733 454.876 302.659 454.472 302.659 454.012C302.659 453.552 302.733 453.15 302.881 452.806C303.029 452.458 303.235 452.188 303.499 451.996C303.763 451.804 304.071 451.708 304.423 451.708C304.775 451.708 305.083 451.804 305.347 451.996C305.611 452.188 305.817 452.458 305.965 452.806C306.113 453.15 306.187 453.552 306.187 454.012C306.187 454.472 306.113 454.876 305.965 455.224C305.821 455.572 305.617 455.842 305.353 456.034C305.089 456.226 304.781 456.322 304.429 456.322ZM304.429 455.872C304.685 455.872 304.909 455.794 305.101 455.638C305.293 455.482 305.443 455.266 305.551 454.99C305.659 454.71 305.713 454.384 305.713 454.012C305.713 453.64 305.659 453.316 305.551 453.04C305.443 452.76 305.293 452.544 305.101 452.392C304.909 452.236 304.683 452.158 304.423 452.158C304.167 452.158 303.943 452.236 303.751 452.392C303.559 452.544 303.409 452.76 303.301 453.04C303.193 453.316 303.139 453.64 303.139 454.012C303.139 454.38 303.193 454.704 303.301 454.984C303.409 455.264 303.559 455.482 303.751 455.638C303.947 455.794 304.173 455.872 304.429 455.872ZM308.823 456.322C308.471 456.322 308.161 456.226 307.893 456.034C307.629 455.838 307.423 455.568 307.275 455.224C307.127 454.876 307.053 454.472 307.053 454.012C307.053 453.552 307.127 453.15 307.275 452.806C307.423 452.458 307.629 452.188 307.893 451.996C308.157 451.804 308.465 451.708 308.817 451.708C309.169 451.708 309.477 451.804 309.741 451.996C310.005 452.188 310.211 452.458 310.359 452.806C310.507 453.15 310.581 453.552 310.581 454.012C310.581 454.472 310.507 454.876 310.359 455.224C310.215 455.572 310.011 455.842 309.747 456.034C309.483 456.226 309.175 456.322 308.823 456.322ZM308.823 455.872C309.079 455.872 309.303 455.794 309.495 455.638C309.687 455.482 309.837 455.266 309.945 454.99C310.053 454.71 310.107 454.384 310.107 454.012C310.107 453.64 310.053 453.316 309.945 453.04C309.837 452.76 309.687 452.544 309.495 452.392C309.303 452.236 309.077 452.158 308.817 452.158C308.561 452.158 308.337 452.236 308.145 452.392C307.953 452.544 307.803 452.76 307.695 453.04C307.587 453.316 307.533 453.64 307.533 454.012C307.533 454.38 307.587 454.704 307.695 454.984C307.803 455.264 307.953 455.482 308.145 455.638C308.341 455.794 308.567 455.872 308.823 455.872Z" fill="#8F8F8F"/>
<mask id="path-19-inside-1_9_353" fill="white">
<path d="M314.5 240.25H604V264.25H314.5V240.25Z"/>
</mask>
<path d="M604 263.8H314.5V264.7H604V263.8Z" fill="#EBEBEB" mask="url(#path-19-inside-1_9_353)"/>
<mask id="path-21-inside-2_9_353" fill="white">
<path d="M314.5 264.25H604V288.25H314.5V264.25Z"/>
</mask>
<path d="M604 287.8H314.5V288.7H604V287.8Z" fill="#EBEBEB" mask="url(#path-21-inside-2_9_353)"/>
<mask id="path-23-inside-3_9_353" fill="white">
<path d="M314.5 288.25H604V312.25H314.5V288.25Z"/>
</mask>
<path d="M604 311.8H314.5V312.7H604V311.8Z" fill="#EBEBEB" mask="url(#path-23-inside-3_9_353)"/>
<mask id="path-25-inside-4_9_353" fill="white">
<path d="M314.5 312.25H604V336.25H314.5V312.25Z"/>
</mask>
<path d="M604 335.8H314.5V336.7H604V335.8Z" fill="#EBEBEB" mask="url(#path-25-inside-4_9_353)"/>
<mask id="path-27-inside-5_9_353" fill="white">
<path d="M314.5 336.25H604V360.25H314.5V336.25Z"/>
</mask>
<path d="M604 359.8H314.5V360.7H604V359.8Z" fill="#EBEBEB" mask="url(#path-27-inside-5_9_353)"/>
<mask id="path-29-inside-6_9_353" fill="white">
<path d="M314.5 360.25H604V384.25H314.5V360.25Z"/>
</mask>
<path d="M604 383.8H314.5V384.7H604V383.8Z" fill="#EBEBEB" mask="url(#path-29-inside-6_9_353)"/>
<mask id="path-31-inside-7_9_353" fill="white">
<path d="M314.5 384.25H604V408.25H314.5V384.25Z"/>
</mask>
<path d="M604 407.8H314.5V408.7H604V407.8Z" fill="#EBEBEB" mask="url(#path-31-inside-7_9_353)"/>
<mask id="path-33-inside-8_9_353" fill="white">
<path d="M314.5 408.25H604V432.25H314.5V408.25Z"/>
</mask>
<path d="M604 431.8H314.5V432.7H604V431.8Z" fill="#EBEBEB" mask="url(#path-33-inside-8_9_353)"/>
<mask id="path-35-inside-9_9_353" fill="white">
<path d="M314.5 432.25H604V456.25H314.5V432.25Z"/>
</mask>
<path d="M604 455.8H314.5V456.7H604V455.8Z" fill="#EBEBEB" mask="url(#path-35-inside-9_9_353)"/>
<mask id="path-37-outside-10_9_353" maskUnits="userSpaceOnUse" x="314.5" y="274.75" width="279" height="182" fill="black">
<rect fill="white" x="314.5" y="274.75" width="279" height="182"/>
<path d="M314.5 274.75H593.5V454.75H314.5V274.75Z"/>
</mask>
<path d="M593.5 453.25H314.5V456.25H593.5V453.25Z" fill="#D6BBFB" mask="url(#path-37-outside-10_9_353)"/>
<path d="M325 282.25C325 278.936 327.686 276.25 331 276.25C334.314 276.25 337 278.936 337 282.25V454.75H325V282.25Z" fill="#E9D7FE"/>
<path d="M343 327.25C343 323.936 345.686 321.25 349 321.25C352.314 321.25 355 323.936 355 327.25V454.75H343V327.25Z" fill="#2E90FA"/>
<path d="M382 354.25C382 350.936 384.686 348.25 388 348.25C391.314 348.25 394 350.936 394 354.25V454.75H382V354.25Z" fill="#E9D7FE"/>
<path d="M400 327.25C400 323.936 402.686 321.25 406 321.25C409.314 321.25 412 323.936 412 327.25V454.75H400V327.25Z" fill="#2E90FA"/>
<path d="M439 306.25C439 302.936 441.686 300.25 445 300.25C448.314 300.25 451 302.936 451 306.25V454.75H439V306.25Z" fill="#E9D7FE"/>
<path d="M457 366.25C457 362.936 459.686 360.25 463 360.25C466.314 360.25 469 362.936 469 366.25V454.75H457V366.25Z" fill="#2E90FA"/>
<path d="M496 306.25C496 302.936 498.686 300.25 502 300.25C505.314 300.25 508 302.936 508 306.25V454.75H496V306.25Z" fill="#E9D7FE"/>
<path d="M514 366.25C514 362.936 516.686 360.25 520 360.25C523.314 360.25 526 362.936 526 366.25V454.75H514V366.25Z" fill="#2E90FA"/>
<path d="M553 355.75C553 352.436 555.686 349.75 559 349.75C562.314 349.75 565 352.436 565 355.75V454.75H553V355.75Z" fill="#E9D7FE"/>
<path d="M571 280.75C571 277.436 573.686 274.75 577 274.75C580.314 274.75 583 277.436 583 280.75V454.75H571V280.75Z" fill="#2E90FA"/>
<path d="M327.028 468.25V463.78H327.448L329.128 466.216H328.894L330.568 463.78H330.988V468.25H330.508V464.428L330.664 464.488L329.02 466.87H328.996L327.358 464.488L327.508 464.428V468.25H327.028ZM333.484 468.322C333.18 468.322 332.904 468.25 332.656 468.106C332.408 467.958 332.21 467.758 332.062 467.506C331.918 467.25 331.846 466.96 331.846 466.636C331.846 466.316 331.918 466.03 332.062 465.778C332.206 465.526 332.4 465.328 332.644 465.184C332.892 465.036 333.172 464.962 333.484 464.962C333.796 464.962 334.074 465.034 334.318 465.178C334.566 465.322 334.76 465.52 334.9 465.772C335.044 466.024 335.116 466.312 335.116 466.636C335.116 466.964 335.042 467.256 334.894 467.512C334.746 467.764 334.548 467.962 334.3 468.106C334.056 468.25 333.784 468.322 333.484 468.322ZM333.484 467.872C333.7 467.872 333.894 467.818 334.066 467.71C334.242 467.602 334.38 467.454 334.48 467.266C334.584 467.078 334.636 466.868 334.636 466.636C334.636 466.404 334.584 466.196 334.48 466.012C334.38 465.828 334.242 465.682 334.066 465.574C333.894 465.466 333.7 465.412 333.484 465.412C333.268 465.412 333.072 465.466 332.896 465.574C332.724 465.682 332.586 465.828 332.482 466.012C332.378 466.196 332.326 466.404 332.326 466.636C332.326 466.868 332.378 467.078 332.482 467.266C332.586 467.454 332.724 467.602 332.896 467.71C333.072 467.818 333.268 467.872 333.484 467.872ZM335.909 468.25V465.034H336.359V465.658L336.257 465.634C336.337 465.426 336.467 465.262 336.647 465.142C336.831 465.022 337.043 464.962 337.283 464.962C337.511 464.962 337.715 465.014 337.895 465.118C338.079 465.222 338.223 465.366 338.327 465.55C338.435 465.73 338.489 465.934 338.489 466.162V468.25H338.039V466.336C338.039 466.14 338.003 465.974 337.931 465.838C337.863 465.702 337.765 465.598 337.637 465.526C337.513 465.45 337.369 465.412 337.205 465.412C337.041 465.412 336.895 465.45 336.767 465.526C336.639 465.598 336.539 465.704 336.467 465.844C336.395 465.98 336.359 466.144 336.359 466.336V468.25H335.909Z" fill="#8F8F8F"/>
<path d="M392.677 468.25V464.23H391.441V463.78H394.381V464.23H393.157V468.25H392.677ZM395.807 468.322C395.583 468.322 395.379 468.27 395.195 468.166C395.011 468.058 394.865 467.91 394.757 467.722C394.653 467.53 394.601 467.31 394.601 467.062V465.034H395.051V467.008C395.051 467.18 395.085 467.332 395.153 467.464C395.225 467.592 395.323 467.692 395.447 467.764C395.575 467.836 395.721 467.872 395.885 467.872C396.049 467.872 396.195 467.836 396.323 467.764C396.451 467.688 396.551 467.582 396.623 467.446C396.695 467.306 396.731 467.14 396.731 466.948V465.034H397.181V468.25H396.731V467.626L396.833 467.65C396.757 467.858 396.627 468.022 396.443 468.142C396.259 468.262 396.047 468.322 395.807 468.322ZM399.571 468.322C399.271 468.322 398.999 468.25 398.755 468.106C398.515 467.958 398.325 467.756 398.185 467.5C398.045 467.244 397.975 466.954 397.975 466.63C397.975 466.306 398.043 466.02 398.179 465.772C398.315 465.52 398.499 465.322 398.731 465.178C398.967 465.034 399.231 464.962 399.523 464.962C399.755 464.962 399.961 465.006 400.141 465.094C400.325 465.178 400.481 465.294 400.609 465.442C400.737 465.586 400.835 465.75 400.903 465.934C400.971 466.114 401.005 466.3 401.005 466.492C401.005 466.532 401.003 466.578 400.999 466.63C400.995 466.678 400.989 466.728 400.981 466.78H398.263V466.36H400.723L400.507 466.54C400.543 466.32 400.517 466.124 400.429 465.952C400.345 465.776 400.223 465.638 400.063 465.538C399.903 465.434 399.723 465.382 399.523 465.382C399.323 465.382 399.137 465.434 398.965 465.538C398.797 465.642 398.665 465.788 398.569 465.976C398.473 466.16 398.435 466.38 398.455 466.636C398.435 466.892 398.475 467.116 398.575 467.308C398.679 467.496 398.819 467.642 398.995 467.746C399.175 467.85 399.367 467.902 399.571 467.902C399.807 467.902 400.005 467.846 400.165 467.734C400.325 467.622 400.455 467.482 400.555 467.314L400.939 467.518C400.875 467.662 400.777 467.796 400.645 467.92C400.513 468.04 400.355 468.138 400.171 468.214C399.991 468.286 399.791 468.322 399.571 468.322ZM402.914 468.322C402.606 468.322 402.336 468.244 402.104 468.088C401.872 467.932 401.704 467.72 401.6 467.452L401.978 467.272C402.07 467.468 402.198 467.624 402.362 467.74C402.53 467.856 402.714 467.914 402.914 467.914C403.106 467.914 403.268 467.868 403.4 467.776C403.532 467.68 403.598 467.556 403.598 467.404C403.598 467.292 403.566 467.204 403.502 467.14C403.438 467.072 403.364 467.02 403.28 466.984C403.196 466.948 403.122 466.922 403.058 466.906L402.596 466.774C402.3 466.69 402.086 466.572 401.954 466.42C401.822 466.268 401.756 466.092 401.756 465.892C401.756 465.704 401.804 465.54 401.9 465.4C401.996 465.26 402.126 465.152 402.29 465.076C402.454 465 402.636 464.962 402.836 464.962C403.108 464.962 403.354 465.034 403.574 465.178C403.798 465.318 403.956 465.514 404.048 465.766L403.664 465.946C403.584 465.766 403.468 465.626 403.316 465.526C403.168 465.422 403.002 465.37 402.818 465.37C402.638 465.37 402.494 465.416 402.386 465.508C402.278 465.6 402.224 465.716 402.224 465.856C402.224 465.964 402.252 466.05 402.308 466.114C402.364 466.178 402.428 466.226 402.5 466.258C402.576 466.29 402.642 466.314 402.698 466.33L403.232 466.486C403.492 466.562 403.694 466.68 403.838 466.84C403.986 467 404.06 467.188 404.06 467.404C404.06 467.58 404.01 467.738 403.91 467.878C403.814 468.018 403.68 468.128 403.508 468.208C403.336 468.284 403.138 468.322 402.914 468.322Z" fill="#8F8F8F"/>
<path d="M458.6 468.25L457.316 463.78H457.802L458.912 467.782H458.81L459.95 463.78H460.46L461.594 467.782H461.486L462.602 463.78H463.088L461.804 468.25H461.294L460.148 464.23H460.256L459.11 468.25H458.6ZM464.842 468.322C464.542 468.322 464.27 468.25 464.026 468.106C463.786 467.958 463.596 467.756 463.456 467.5C463.316 467.244 463.246 466.954 463.246 466.63C463.246 466.306 463.314 466.02 463.45 465.772C463.586 465.52 463.77 465.322 464.002 465.178C464.238 465.034 464.502 464.962 464.794 464.962C465.026 464.962 465.232 465.006 465.412 465.094C465.596 465.178 465.752 465.294 465.88 465.442C466.008 465.586 466.106 465.75 466.174 465.934C466.242 466.114 466.276 466.3 466.276 466.492C466.276 466.532 466.274 466.578 466.27 466.63C466.266 466.678 466.26 466.728 466.252 466.78H463.534V466.36H465.994L465.778 466.54C465.814 466.32 465.788 466.124 465.7 465.952C465.616 465.776 465.494 465.638 465.334 465.538C465.174 465.434 464.994 465.382 464.794 465.382C464.594 465.382 464.408 465.434 464.236 465.538C464.068 465.642 463.936 465.788 463.84 465.976C463.744 466.16 463.706 466.38 463.726 466.636C463.706 466.892 463.746 467.116 463.846 467.308C463.95 467.496 464.09 467.642 464.266 467.746C464.446 467.85 464.638 467.902 464.842 467.902C465.078 467.902 465.276 467.846 465.436 467.734C465.596 467.622 465.726 467.482 465.826 467.314L466.21 467.518C466.146 467.662 466.048 467.796 465.916 467.92C465.784 468.04 465.626 468.138 465.442 468.214C465.262 468.286 465.062 468.322 464.842 468.322ZM468.521 468.322C468.221 468.322 467.951 468.25 467.711 468.106C467.471 467.958 467.281 467.758 467.141 467.506C467.005 467.25 466.937 466.962 466.937 466.642C466.937 466.318 467.005 466.03 467.141 465.778C467.281 465.526 467.469 465.328 467.705 465.184C467.945 465.036 468.217 464.962 468.521 464.962C468.797 464.962 469.043 465.022 469.259 465.142C469.475 465.262 469.645 465.424 469.769 465.628L469.697 465.754V463.708H470.147V468.25H469.697V467.53L469.769 467.596C469.657 467.828 469.489 468.008 469.265 468.136C469.045 468.26 468.797 468.322 468.521 468.322ZM468.545 467.872C468.761 467.872 468.955 467.818 469.127 467.71C469.303 467.602 469.441 467.456 469.541 467.272C469.645 467.084 469.697 466.874 469.697 466.642C469.697 466.41 469.645 466.202 469.541 466.018C469.441 465.83 469.303 465.682 469.127 465.574C468.955 465.466 468.761 465.412 468.545 465.412C468.333 465.412 468.141 465.466 467.969 465.574C467.797 465.682 467.661 465.828 467.561 466.012C467.465 466.196 467.417 466.406 467.417 466.642C467.417 466.874 467.465 467.084 467.561 467.272C467.661 467.456 467.795 467.602 467.963 467.71C468.135 467.818 468.329 467.872 468.545 467.872Z" fill="#8F8F8F"/>
<path d="M524.427 468.25V464.23H523.191V463.78H526.131V464.23H524.907V468.25H524.427ZM526.657 468.25V463.708H527.107V465.658L527.005 465.634C527.085 465.426 527.215 465.262 527.395 465.142C527.579 465.022 527.791 464.962 528.031 464.962C528.259 464.962 528.463 465.014 528.643 465.118C528.827 465.222 528.971 465.366 529.075 465.55C529.183 465.73 529.237 465.934 529.237 466.162V468.25H528.787V466.336C528.787 466.14 528.751 465.974 528.679 465.838C528.607 465.702 528.507 465.598 528.379 465.526C528.255 465.45 528.113 465.412 527.953 465.412C527.793 465.412 527.649 465.45 527.521 465.526C527.393 465.598 527.291 465.704 527.215 465.844C527.143 465.98 527.107 466.144 527.107 466.336V468.25H526.657ZM531.237 468.322C531.013 468.322 530.809 468.27 530.625 468.166C530.441 468.058 530.295 467.91 530.187 467.722C530.083 467.53 530.031 467.31 530.031 467.062V465.034H530.481V467.008C530.481 467.18 530.515 467.332 530.583 467.464C530.655 467.592 530.753 467.692 530.877 467.764C531.005 467.836 531.151 467.872 531.315 467.872C531.479 467.872 531.625 467.836 531.753 467.764C531.881 467.688 531.981 467.582 532.053 467.446C532.125 467.306 532.161 467.14 532.161 466.948V465.034H532.611V468.25H532.161V467.626L532.263 467.65C532.187 467.858 532.057 468.022 531.873 468.142C531.689 468.262 531.477 468.322 531.237 468.322Z" fill="#8F8F8F"/>
<path d="M585.528 468.25V463.78H588.288V464.23H586.008V465.784H588.108V466.234H586.008V468.25H585.528ZM588.767 468.25V465.034H589.217V465.562L589.157 465.484C589.233 465.332 589.347 465.212 589.499 465.124C589.655 465.036 589.843 464.992 590.063 464.992H590.267V465.442H589.985C589.753 465.442 589.567 465.514 589.427 465.658C589.287 465.802 589.217 466.006 589.217 466.27V468.25H588.767ZM590.794 468.25V465.034H591.244V468.25H590.794ZM590.794 464.44V463.78H591.244V464.44H590.794Z" fill="#8F8F8F"/>
<g filter="url(#filter5_d_9_353)">
<rect x="439" y="49.5" width="236.5" height="216.8" rx="8.4" fill="white" shape-rendering="crispEdges"/>
<rect x="439.35" y="49.85" width="235.8" height="216.1" rx="8.05" stroke="#E9D7FE" stroke-width="0.7" shape-rendering="crispEdges"/>
<path d="M455.008 71.5V61.07H456.912V71.5H455.008ZM458.764 71.5V63.884H460.486V65.382L460.346 65.116C460.523 64.6587 460.813 64.3133 461.214 64.08C461.625 63.8373 462.101 63.716 462.642 63.716C463.202 63.716 463.697 63.8373 464.126 64.08C464.565 64.3227 464.905 64.6633 465.148 65.102C465.391 65.5313 465.512 66.0307 465.512 66.6V71.5H463.678V67.034C463.678 66.698 463.613 66.4087 463.482 66.166C463.351 65.9233 463.169 65.7367 462.936 65.606C462.712 65.466 462.446 65.396 462.138 65.396C461.839 65.396 461.573 65.466 461.34 65.606C461.107 65.7367 460.925 65.9233 460.794 66.166C460.663 66.4087 460.598 66.698 460.598 67.034V71.5H458.764ZM469.222 71.5L466.226 63.884H468.228L470.398 69.876H469.656L471.84 63.884H473.842L470.846 71.5H469.222ZM478.443 71.668C477.697 71.668 477.015 71.4953 476.399 71.15C475.793 70.8047 475.307 70.3333 474.943 69.736C474.589 69.1387 474.411 68.4573 474.411 67.692C474.411 66.9267 474.589 66.2453 474.943 65.648C475.307 65.0507 475.793 64.5793 476.399 64.234C477.006 63.8887 477.687 63.716 478.443 63.716C479.19 63.716 479.867 63.8887 480.473 64.234C481.08 64.5793 481.561 65.0507 481.915 65.648C482.279 66.236 482.461 66.9173 482.461 67.692C482.461 68.4573 482.279 69.1387 481.915 69.736C481.551 70.3333 481.066 70.8047 480.459 71.15C479.853 71.4953 479.181 71.668 478.443 71.668ZM478.443 69.988C478.854 69.988 479.213 69.89 479.521 69.694C479.839 69.498 480.086 69.2273 480.263 68.882C480.45 68.5273 480.543 68.1307 480.543 67.692C480.543 67.244 480.45 66.852 480.263 66.516C480.086 66.1707 479.839 65.9 479.521 65.704C479.213 65.4987 478.854 65.396 478.443 65.396C478.023 65.396 477.655 65.4987 477.337 65.704C477.02 65.9 476.768 66.1707 476.581 66.516C476.404 66.852 476.315 67.244 476.315 67.692C476.315 68.1307 476.404 68.5273 476.581 68.882C476.768 69.2273 477.02 69.498 477.337 69.694C477.655 69.89 478.023 69.988 478.443 69.988ZM483.852 71.5V63.884H485.686V71.5H483.852ZM483.852 63.03V61.07H485.686V63.03H483.852ZM491.047 71.668C490.291 71.668 489.61 71.4953 489.003 71.15C488.406 70.7953 487.935 70.3193 487.589 69.722C487.244 69.1153 487.071 68.434 487.071 67.678C487.071 66.922 487.244 66.2453 487.589 65.648C487.935 65.0507 488.406 64.5793 489.003 64.234C489.61 63.8887 490.291 63.716 491.047 63.716C491.589 63.716 492.093 63.814 492.559 64.01C493.026 64.1967 493.427 64.458 493.763 64.794C494.109 65.1207 494.356 65.5127 494.505 65.97L492.895 66.67C492.755 66.2873 492.517 65.9793 492.181 65.746C491.855 65.5127 491.477 65.396 491.047 65.396C490.646 65.396 490.287 65.494 489.969 65.69C489.661 65.886 489.419 66.1567 489.241 66.502C489.064 66.8473 488.975 67.244 488.975 67.692C488.975 68.14 489.064 68.5367 489.241 68.882C489.419 69.2273 489.661 69.498 489.969 69.694C490.287 69.89 490.646 69.988 491.047 69.988C491.486 69.988 491.869 69.8713 492.195 69.638C492.522 69.4047 492.755 69.092 492.895 68.7L494.505 69.428C494.356 69.8573 494.113 70.2447 493.777 70.59C493.441 70.926 493.04 71.192 492.573 71.388C492.107 71.5747 491.598 71.668 491.047 71.668ZM499.509 71.668C498.725 71.668 498.039 71.4907 497.451 71.136C496.863 70.7813 496.406 70.3007 496.079 69.694C495.752 69.0873 495.589 68.4153 495.589 67.678C495.589 66.9127 495.752 66.236 496.079 65.648C496.415 65.0507 496.868 64.5793 497.437 64.234C498.016 63.8887 498.66 63.716 499.369 63.716C499.966 63.716 500.489 63.814 500.937 64.01C501.394 64.206 501.782 64.4767 502.099 64.822C502.416 65.1673 502.659 65.564 502.827 66.012C502.995 66.4507 503.079 66.9267 503.079 67.44C503.079 67.5707 503.07 67.706 503.051 67.846C503.042 67.986 503.018 68.1073 502.981 68.21H497.101V66.81H501.945L501.077 67.468C501.161 67.0387 501.138 66.656 501.007 66.32C500.886 65.984 500.68 65.718 500.391 65.522C500.111 65.326 499.77 65.228 499.369 65.228C498.986 65.228 498.646 65.326 498.347 65.522C498.048 65.7087 497.82 65.9887 497.661 66.362C497.512 66.726 497.456 67.1693 497.493 67.692C497.456 68.1587 497.516 68.574 497.675 68.938C497.843 69.2927 498.086 69.568 498.403 69.764C498.73 69.96 499.103 70.058 499.523 70.058C499.943 70.058 500.298 69.9693 500.587 69.792C500.886 69.6147 501.119 69.3767 501.287 69.078L502.771 69.806C502.622 70.17 502.388 70.492 502.071 70.772C501.754 71.052 501.376 71.2713 500.937 71.43C500.508 71.5887 500.032 71.668 499.509 71.668Z" fill="#344054"/>
<rect x="454" y="91.3" width="75.6" height="8.4" rx="4.2" fill="#84CAFF"/>
<rect x="454" y="116.5" width="206.5" height="8.4" rx="4.2" fill="#E9D7FE"/>
<rect x="454" y="141.7" width="94.85" height="8.4" rx="4.2" fill="#84CAFF"/>
<rect x="565.65" y="141.7" width="94.85" height="8.4" rx="4.2" fill="#84CAFF"/>
<rect x="454" y="166.9" width="206.5" height="8.4" rx="4.2" fill="#E9D7FE"/>
<rect x="454" y="192.1" width="206.5" height="8.4" rx="4.2" fill="#E9D7FE"/>
<rect x="454" y="217.3" width="206.5" height="8.4" rx="4.2" fill="#E9D7FE"/>
<circle cx="473.583" cy="246.7" r="4.2" fill="#1570EF"/>
<path d="M485.388 250.2V243.942H487.723C488.149 243.942 488.524 244.02 488.849 244.177C489.179 244.328 489.437 244.552 489.622 244.849C489.807 245.14 489.899 245.496 489.899 245.916C489.899 246.33 489.804 246.686 489.613 246.983C489.429 247.274 489.174 247.498 488.849 247.655C488.524 247.812 488.149 247.89 487.723 247.89H486.531V250.2H485.388ZM486.531 246.882H487.74C487.947 246.882 488.127 246.843 488.278 246.764C488.429 246.68 488.547 246.566 488.631 246.42C488.715 246.274 488.757 246.106 488.757 245.916C488.757 245.72 488.715 245.552 488.631 245.412C488.547 245.266 488.429 245.154 488.278 245.076C488.127 244.992 487.947 244.95 487.74 244.95H486.531V246.882ZM491.858 250.301C491.539 250.301 491.261 250.248 491.026 250.141C490.791 250.035 490.609 249.884 490.48 249.688C490.351 249.486 490.287 249.254 490.287 248.99C490.287 248.738 490.343 248.514 490.455 248.318C490.567 248.117 490.741 247.949 490.976 247.814C491.211 247.68 491.508 247.585 491.866 247.529L493.361 247.285V248.125L492.076 248.344C491.858 248.383 491.695 248.453 491.589 248.554C491.483 248.654 491.429 248.786 491.429 248.948C491.429 249.105 491.488 249.231 491.606 249.326C491.729 249.416 491.88 249.461 492.059 249.461C492.289 249.461 492.491 249.413 492.664 249.318C492.843 249.217 492.981 249.08 493.076 248.906C493.177 248.733 493.227 248.542 493.227 248.335V247.159C493.227 246.963 493.149 246.801 492.992 246.672C492.841 246.538 492.639 246.47 492.387 246.47C492.152 246.47 491.942 246.535 491.757 246.664C491.578 246.787 491.446 246.952 491.362 247.159L490.463 246.722C490.553 246.482 490.693 246.274 490.883 246.101C491.079 245.922 491.309 245.782 491.572 245.681C491.835 245.58 492.121 245.53 492.429 245.53C492.804 245.53 493.135 245.6 493.42 245.74C493.706 245.874 493.927 246.064 494.084 246.311C494.246 246.552 494.327 246.834 494.327 247.159V250.2H493.286V249.419L493.521 249.402C493.403 249.598 493.263 249.763 493.101 249.898C492.939 250.026 492.754 250.127 492.547 250.2C492.339 250.267 492.11 250.301 491.858 250.301ZM495.345 250.2V245.63H496.445V250.2H495.345ZM495.345 245.118V243.942H496.445V245.118H495.345ZM499.586 250.301C499.144 250.301 498.749 250.197 498.402 249.99C498.055 249.777 497.78 249.489 497.579 249.125C497.377 248.761 497.276 248.358 497.276 247.915C497.276 247.467 497.377 247.064 497.579 246.706C497.78 246.347 498.055 246.062 498.402 245.849C498.755 245.636 499.147 245.53 499.578 245.53C499.925 245.53 500.233 245.6 500.502 245.74C500.776 245.874 500.992 246.064 501.149 246.311L500.981 246.538V243.841H502.081V250.2H501.039V249.318L501.157 249.536C501 249.783 500.782 249.973 500.502 250.108C500.222 250.236 499.917 250.301 499.586 250.301ZM499.704 249.293C499.956 249.293 500.177 249.234 500.367 249.116C500.558 248.999 500.706 248.836 500.813 248.629C500.925 248.422 500.981 248.184 500.981 247.915C500.981 247.652 500.925 247.417 500.813 247.21C500.706 246.997 500.558 246.832 500.367 246.714C500.177 246.596 499.956 246.538 499.704 246.538C499.457 246.538 499.236 246.599 499.04 246.722C498.844 246.84 498.69 247.002 498.578 247.21C498.472 247.411 498.419 247.646 498.419 247.915C498.419 248.184 498.472 248.422 498.578 248.629C498.69 248.836 498.844 248.999 499.04 249.116C499.236 249.234 499.457 249.293 499.704 249.293Z" fill="#0C111D"/>
<circle cx="536.75" cy="246.7" r="4.2" fill="#EE46BC"/>
<path d="M548.555 250.2V243.942H550.89C551.316 243.942 551.691 244.02 552.016 244.177C552.346 244.328 552.604 244.552 552.788 244.849C552.973 245.14 553.066 245.496 553.066 245.916C553.066 246.33 552.97 246.686 552.78 246.983C552.595 247.274 552.34 247.498 552.016 247.655C551.691 247.812 551.316 247.89 550.89 247.89H549.697V250.2H548.555ZM549.697 246.882H550.907C551.114 246.882 551.293 246.843 551.444 246.764C551.596 246.68 551.713 246.566 551.797 246.42C551.881 246.274 551.923 246.106 551.923 245.916C551.923 245.72 551.881 245.552 551.797 245.412C551.713 245.266 551.596 245.154 551.444 245.076C551.293 244.992 551.114 244.95 550.907 244.95H549.697V246.882ZM555.912 250.301C555.442 250.301 555.03 250.194 554.678 249.982C554.325 249.769 554.05 249.48 553.854 249.116C553.658 248.752 553.56 248.349 553.56 247.907C553.56 247.448 553.658 247.042 553.854 246.689C554.056 246.33 554.328 246.048 554.669 245.84C555.016 245.633 555.403 245.53 555.828 245.53C556.187 245.53 556.5 245.588 556.769 245.706C557.044 245.824 557.276 245.986 557.466 246.193C557.657 246.4 557.802 246.638 557.903 246.907C558.004 247.17 558.054 247.456 558.054 247.764C558.054 247.842 558.049 247.924 558.038 248.008C558.032 248.092 558.018 248.164 557.996 248.226H554.468V247.386H557.374L556.853 247.781C556.904 247.523 556.89 247.294 556.811 247.092C556.738 246.89 556.615 246.731 556.442 246.613C556.274 246.496 556.069 246.437 555.828 246.437C555.599 246.437 555.394 246.496 555.215 246.613C555.036 246.725 554.899 246.893 554.804 247.117C554.714 247.336 554.68 247.602 554.703 247.915C554.68 248.195 554.717 248.444 554.812 248.663C554.913 248.876 555.058 249.041 555.249 249.158C555.445 249.276 555.669 249.335 555.921 249.335C556.173 249.335 556.386 249.282 556.559 249.175C556.738 249.069 556.878 248.926 556.979 248.747L557.87 249.184C557.78 249.402 557.64 249.595 557.45 249.763C557.259 249.931 557.032 250.063 556.769 250.158C556.512 250.253 556.226 250.301 555.912 250.301ZM558.889 250.2V245.63H559.922V246.529L559.838 246.37C559.944 246.095 560.118 245.888 560.359 245.748C560.605 245.602 560.891 245.53 561.215 245.53C561.551 245.53 561.848 245.602 562.106 245.748C562.369 245.894 562.573 246.098 562.719 246.361C562.865 246.619 562.937 246.918 562.937 247.26V250.2H561.837V247.52C561.837 247.319 561.798 247.145 561.719 247C561.641 246.854 561.532 246.742 561.392 246.664C561.257 246.58 561.098 246.538 560.913 246.538C560.734 246.538 560.574 246.58 560.434 246.664C560.294 246.742 560.185 246.854 560.107 247C560.028 247.145 559.989 247.319 559.989 247.52V250.2H558.889ZM565.993 250.301C565.551 250.301 565.156 250.197 564.809 249.99C564.461 249.777 564.187 249.489 563.985 249.125C563.784 248.761 563.683 248.358 563.683 247.915C563.683 247.467 563.784 247.064 563.985 246.706C564.187 246.347 564.461 246.062 564.809 245.849C565.161 245.636 565.553 245.53 565.985 245.53C566.332 245.53 566.64 245.6 566.909 245.74C567.183 245.874 567.399 246.064 567.555 246.311L567.387 246.538V243.841H568.488V250.2H567.446V249.318L567.564 249.536C567.407 249.783 567.189 249.973 566.909 250.108C566.629 250.236 566.323 250.301 565.993 250.301ZM566.111 249.293C566.363 249.293 566.584 249.234 566.774 249.116C566.965 248.999 567.113 248.836 567.219 248.629C567.331 248.422 567.387 248.184 567.387 247.915C567.387 247.652 567.331 247.417 567.219 247.21C567.113 246.997 566.965 246.832 566.774 246.714C566.584 246.596 566.363 246.538 566.111 246.538C565.864 246.538 565.643 246.599 565.447 246.722C565.251 246.84 565.097 247.002 564.985 247.21C564.879 247.411 564.825 247.646 564.825 247.915C564.825 248.184 564.879 248.422 564.985 248.629C565.097 248.836 565.251 248.999 565.447 249.116C565.643 249.234 565.864 249.293 566.111 249.293ZM569.512 250.2V245.63H570.612V250.2H569.512ZM569.512 245.118V243.942H570.612V245.118H569.512ZM571.628 250.2V245.63H572.661V246.529L572.577 246.37C572.684 246.095 572.857 245.888 573.098 245.748C573.344 245.602 573.63 245.53 573.955 245.53C574.291 245.53 574.588 245.602 574.845 245.748C575.108 245.894 575.313 246.098 575.458 246.361C575.604 246.619 575.677 246.918 575.677 247.26V250.2H574.576V247.52C574.576 247.319 574.537 247.145 574.459 247C574.38 246.854 574.271 246.742 574.131 246.664C573.997 246.58 573.837 246.538 573.652 246.538C573.473 246.538 573.314 246.58 573.174 246.664C573.034 246.742 572.924 246.854 572.846 247C572.768 247.145 572.728 247.319 572.728 247.52V250.2H571.628ZM578.825 252.048C578.483 252.048 578.167 251.992 577.876 251.88C577.584 251.768 577.332 251.611 577.12 251.41C576.912 251.214 576.761 250.981 576.666 250.712L577.691 250.326C577.758 250.539 577.89 250.71 578.086 250.838C578.287 250.973 578.534 251.04 578.825 251.04C579.049 251.04 579.245 250.998 579.413 250.914C579.586 250.83 579.721 250.707 579.816 250.544C579.911 250.388 579.959 250.197 579.959 249.973V248.932L580.169 249.184C580.012 249.458 579.802 249.665 579.539 249.805C579.276 249.945 578.976 250.015 578.64 250.015C578.214 250.015 577.834 249.917 577.498 249.721C577.162 249.525 576.898 249.256 576.708 248.915C576.518 248.573 576.422 248.19 576.422 247.764C576.422 247.333 576.518 246.949 576.708 246.613C576.898 246.277 577.159 246.014 577.489 245.824C577.82 245.628 578.195 245.53 578.615 245.53C578.956 245.53 579.256 245.602 579.514 245.748C579.777 245.888 579.995 246.092 580.169 246.361L580.018 246.638V245.63H581.059V249.973C581.059 250.371 580.961 250.726 580.765 251.04C580.575 251.354 580.312 251.6 579.976 251.779C579.645 251.958 579.262 252.048 578.825 252.048ZM578.774 248.999C579.01 248.999 579.214 248.948 579.388 248.848C579.567 248.741 579.707 248.596 579.808 248.411C579.908 248.226 579.959 248.013 579.959 247.772C579.959 247.537 579.906 247.327 579.799 247.142C579.698 246.952 579.558 246.804 579.379 246.697C579.206 246.591 579.004 246.538 578.774 246.538C578.545 246.538 578.338 246.591 578.153 246.697C577.968 246.804 577.822 246.952 577.716 247.142C577.615 247.327 577.565 247.537 577.565 247.772C577.565 248.008 577.615 248.218 577.716 248.402C577.822 248.587 577.965 248.733 578.144 248.839C578.329 248.946 578.539 248.999 578.774 248.999Z" fill="#0C111D"/>
<circle cx="605.917" cy="246.7" r="4.2" fill="#7F56D9"/>
<path d="M617.721 250.2V243.942H620.048C620.474 243.942 620.849 244.02 621.174 244.177C621.504 244.328 621.762 244.552 621.947 244.849C622.131 245.14 622.224 245.496 622.224 245.916C622.224 246.347 622.12 246.714 621.913 247.016C621.711 247.319 621.437 247.543 621.09 247.688L622.526 250.2H621.233L619.695 247.453L620.435 247.89H618.864V250.2H617.721ZM618.864 246.882H620.065C620.272 246.882 620.451 246.843 620.603 246.764C620.754 246.68 620.871 246.566 620.955 246.42C621.039 246.274 621.081 246.106 621.081 245.916C621.081 245.72 621.039 245.552 620.955 245.412C620.871 245.266 620.754 245.154 620.603 245.076C620.451 244.992 620.272 244.95 620.065 244.95H618.864V246.882ZM625.096 250.301C624.625 250.301 624.214 250.194 623.861 249.982C623.508 249.769 623.234 249.48 623.038 249.116C622.842 248.752 622.744 248.349 622.744 247.907C622.744 247.448 622.842 247.042 623.038 246.689C623.239 246.33 623.511 246.048 623.852 245.84C624.2 245.633 624.586 245.53 625.012 245.53C625.37 245.53 625.684 245.588 625.952 245.706C626.227 245.824 626.459 245.986 626.65 246.193C626.84 246.4 626.986 246.638 627.086 246.907C627.187 247.17 627.238 247.456 627.238 247.764C627.238 247.842 627.232 247.924 627.221 248.008C627.215 248.092 627.201 248.164 627.179 248.226H623.651V247.386H626.557L626.036 247.781C626.087 247.523 626.073 247.294 625.994 247.092C625.922 246.89 625.798 246.731 625.625 246.613C625.457 246.496 625.252 246.437 625.012 246.437C624.782 246.437 624.578 246.496 624.398 246.613C624.219 246.725 624.082 246.893 623.987 247.117C623.897 247.336 623.864 247.602 623.886 247.915C623.864 248.195 623.9 248.444 623.995 248.663C624.096 248.876 624.242 249.041 624.432 249.158C624.628 249.276 624.852 249.335 625.104 249.335C625.356 249.335 625.569 249.282 625.742 249.175C625.922 249.069 626.062 248.926 626.162 248.747L627.053 249.184C626.963 249.402 626.823 249.595 626.633 249.763C626.442 249.931 626.216 250.063 625.952 250.158C625.695 250.253 625.409 250.301 625.096 250.301ZM629.81 250.301C629.323 250.301 628.898 250.186 628.534 249.956C628.175 249.721 627.929 249.405 627.794 249.007L628.618 248.612C628.735 248.87 628.898 249.072 629.105 249.217C629.318 249.363 629.553 249.436 629.81 249.436C630.012 249.436 630.172 249.391 630.289 249.301C630.407 249.212 630.466 249.094 630.466 248.948C630.466 248.859 630.44 248.786 630.39 248.73C630.345 248.668 630.281 248.618 630.197 248.579C630.118 248.534 630.032 248.498 629.936 248.47L629.189 248.26C628.802 248.148 628.508 247.977 628.307 247.747C628.111 247.518 628.013 247.246 628.013 246.932C628.013 246.652 628.083 246.409 628.223 246.202C628.368 245.989 628.567 245.824 628.819 245.706C629.077 245.588 629.371 245.53 629.701 245.53C630.132 245.53 630.513 245.633 630.844 245.84C631.174 246.048 631.409 246.339 631.549 246.714L630.709 247.109C630.631 246.902 630.499 246.736 630.314 246.613C630.13 246.49 629.922 246.428 629.693 246.428C629.508 246.428 629.362 246.47 629.256 246.554C629.15 246.638 629.096 246.748 629.096 246.882C629.096 246.966 629.119 247.039 629.164 247.1C629.208 247.162 629.27 247.212 629.348 247.252C629.432 247.291 629.528 247.327 629.634 247.361L630.365 247.579C630.74 247.691 631.028 247.859 631.23 248.083C631.437 248.307 631.541 248.582 631.541 248.906C631.541 249.181 631.468 249.424 631.322 249.637C631.177 249.844 630.975 250.007 630.718 250.124C630.46 250.242 630.158 250.301 629.81 250.301ZM634.621 250.301C634.173 250.301 633.764 250.197 633.395 249.99C633.031 249.783 632.739 249.5 632.521 249.142C632.308 248.783 632.202 248.374 632.202 247.915C632.202 247.456 632.308 247.047 632.521 246.689C632.739 246.33 633.031 246.048 633.395 245.84C633.759 245.633 634.167 245.53 634.621 245.53C635.069 245.53 635.475 245.633 635.839 245.84C636.203 246.048 636.491 246.33 636.704 246.689C636.923 247.042 637.032 247.45 637.032 247.915C637.032 248.374 636.923 248.783 636.704 249.142C636.486 249.5 636.195 249.783 635.831 249.99C635.467 250.197 635.063 250.301 634.621 250.301ZM634.621 249.293C634.867 249.293 635.083 249.234 635.268 249.116C635.458 248.999 635.607 248.836 635.713 248.629C635.825 248.416 635.881 248.178 635.881 247.915C635.881 247.646 635.825 247.411 635.713 247.21C635.607 247.002 635.458 246.84 635.268 246.722C635.083 246.599 634.867 246.538 634.621 246.538C634.369 246.538 634.148 246.599 633.957 246.722C633.767 246.84 633.616 247.002 633.504 247.21C633.397 247.411 633.344 247.646 633.344 247.915C633.344 248.178 633.397 248.416 633.504 248.629C633.616 248.836 633.767 248.999 633.957 249.116C634.148 249.234 634.369 249.293 634.621 249.293ZM637.866 250.2V243.841H638.967V250.2H637.866ZM641.36 250.2L639.563 245.63H640.764L642.066 249.226H641.621L642.931 245.63H644.132L642.335 250.2H641.36ZM646.826 250.301C646.355 250.301 645.944 250.194 645.591 249.982C645.238 249.769 644.964 249.48 644.768 249.116C644.572 248.752 644.474 248.349 644.474 247.907C644.474 247.448 644.572 247.042 644.768 246.689C644.969 246.33 645.241 246.048 645.582 245.84C645.93 245.633 646.316 245.53 646.742 245.53C647.1 245.53 647.414 245.588 647.682 245.706C647.957 245.824 648.189 245.986 648.38 246.193C648.57 246.4 648.716 246.638 648.816 246.907C648.917 247.17 648.968 247.456 648.968 247.764C648.968 247.842 648.962 247.924 648.951 248.008C648.945 248.092 648.931 248.164 648.909 248.226H645.381V247.386H648.287L647.766 247.781C647.817 247.523 647.803 247.294 647.724 247.092C647.652 246.89 647.528 246.731 647.355 246.613C647.187 246.496 646.982 246.437 646.742 246.437C646.512 246.437 646.308 246.496 646.128 246.613C645.949 246.725 645.812 246.893 645.717 247.117C645.627 247.336 645.594 247.602 645.616 247.915C645.594 248.195 645.63 248.444 645.725 248.663C645.826 248.876 645.972 249.041 646.162 249.158C646.358 249.276 646.582 249.335 646.834 249.335C647.086 249.335 647.299 249.282 647.472 249.175C647.652 249.069 647.792 248.926 647.892 248.747L648.783 249.184C648.693 249.402 648.553 249.595 648.363 249.763C648.172 249.931 647.946 250.063 647.682 250.158C647.425 250.253 647.139 250.301 646.826 250.301ZM651.927 250.301C651.485 250.301 651.09 250.197 650.743 249.99C650.395 249.777 650.121 249.489 649.919 249.125C649.718 248.761 649.617 248.358 649.617 247.915C649.617 247.467 649.718 247.064 649.919 246.706C650.121 246.347 650.395 246.062 650.743 245.849C651.095 245.636 651.487 245.53 651.919 245.53C652.266 245.53 652.574 245.6 652.843 245.74C653.117 245.874 653.333 246.064 653.489 246.311L653.321 246.538V243.841H654.422V250.2H653.38V249.318L653.498 249.536C653.341 249.783 653.123 249.973 652.843 250.108C652.563 250.236 652.257 250.301 651.927 250.301ZM652.045 249.293C652.297 249.293 652.518 249.234 652.708 249.116C652.899 248.999 653.047 248.836 653.153 248.629C653.265 248.422 653.321 248.184 653.321 247.915C653.321 247.652 653.265 247.417 653.153 247.21C653.047 246.997 652.899 246.832 652.708 246.714C652.518 246.596 652.297 246.538 652.045 246.538C651.798 246.538 651.577 246.599 651.381 246.722C651.185 246.84 651.031 247.002 650.919 247.21C650.813 247.411 650.759 247.646 650.759 247.915C650.759 248.184 650.813 248.422 650.919 248.629C651.031 248.836 651.185 248.999 651.381 249.116C651.577 249.234 651.798 249.293 652.045 249.293Z" fill="#0C111D"/>
</g>
<defs>
<filter id="filter0_f_9_353" x="57" y="326" width="751" height="751" filterUnits="userSpaceOnUse" color-interpolation-filters="sRGB">
<feFlood flood-opacity="0" result="BackgroundImageFix"/>
<feBlend mode="normal" in="SourceGraphic" in2="BackgroundImageFix" result="shape"/>
<feGaussianBlur stdDeviation="100" result="effect1_foregroundBlur_9_353"/>
</filter>
<filter id="filter1_f_9_353" x="9" y="101" width="630" height="630" filterUnits="userSpaceOnUse" color-interpolation-filters="sRGB">
<feFlood flood-opacity="0" result="BackgroundImageFix"/>
<feBlend mode="normal" in="SourceGraphic" in2="BackgroundImageFix" result="shape"/>
<feGaussianBlur stdDeviation="100" result="effect1_foregroundBlur_9_353"/>
</filter>
<filter id="filter2_f_9_353" x="295" y="201" width="878" height="853" filterUnits="userSpaceOnUse" color-interpolation-filters="sRGB">
<feFlood flood-opacity="0" result="BackgroundImageFix"/>
<feBlend mode="normal" in="SourceGraphic" in2="BackgroundImageFix" result="shape"/>
<feGaussianBlur stdDeviation="100" result="effect1_foregroundBlur_9_353"/>
</filter>
<filter id="filter3_f_9_353" x="224" y="-200" width="949" height="949" filterUnits="userSpaceOnUse" color-interpolation-filters="sRGB">
<feFlood flood-opacity="0" result="BackgroundImageFix"/>
<feBlend mode="normal" in="SourceGraphic" in2="BackgroundImageFix" result="shape"/>
<feGaussianBlur stdDeviation="100" result="effect1_foregroundBlur_9_353"/>
</filter>
<filter id="filter4_f_9_353" x="0" y="-200" width="878" height="853" filterUnits="userSpaceOnUse" color-interpolation-filters="sRGB">
<feFlood flood-opacity="0" result="BackgroundImageFix"/>
<feBlend mode="normal" in="SourceGraphic" in2="BackgroundImageFix" result="shape"/>
<feGaussianBlur stdDeviation="100" result="effect1_foregroundBlur_9_353"/>
</filter>
<filter id="filter5_d_9_353" x="425" y="38.3" width="264.5" height="244.8" filterUnits="userSpaceOnUse" color-interpolation-filters="sRGB">
<feFlood flood-opacity="0" result="BackgroundImageFix"/>
<feColorMatrix in="SourceAlpha" type="matrix" values="0 0 0 0 0 0 0 0 0 0 0 0 0 0 0 0 0 0 127 0" result="hardAlpha"/>
<feOffset dy="2.8"/>
<feGaussianBlur stdDeviation="7"/>
<feComposite in2="hardAlpha" operator="out"/>
<feColorMatrix type="matrix" values="0 0 0 0 0.580392 0 0 0 0 0.494118 0 0 0 0 0.984314 0 0 0 0.5 0"/>
<feBlend mode="normal" in2="BackgroundImageFix" result="effect1_dropShadow_9_353"/>
<feBlend mode="normal" in="SourceGraphic" in2="effect1_dropShadow_9_353" result="shape"/>
</filter>
</defs>
</svg>
