<svg width="148" height="46" viewBox="0 0 148 46" fill="none" xmlns="http://www.w3.org/2000/svg">
<path fill-rule="evenodd" clip-rule="evenodd" d="M73.1756 7.40747C74.5634 6.01977 76.8134 6.01977 78.2012 7.40747C79.589 8.79527 79.589 11.0453 78.2012 12.4331L69.7403 20.894C67.3111 17.6384 67.575 13.0082 70.532 10.0512L73.1756 7.40747Z" fill="#4F9E91"/>
<path fill-rule="evenodd" clip-rule="evenodd" d="M85.271 26.4967C86.659 27.8844 86.659 30.1345 85.271 31.5222C83.884 32.91 81.6336 32.91 80.2458 31.5222L71.7849 23.0614C75.0405 20.6322 79.6707 20.896 82.6277 23.853L85.271 26.4967Z" fill="#EBE1C5"/>
<path fill-rule="evenodd" clip-rule="evenodd" d="M66.1821 38.5924C64.7944 39.9802 62.5443 39.9802 61.1566 38.5924C59.7688 37.2046 59.7688 34.9546 61.1566 33.5668L69.6174 25.106C72.0466 28.3616 71.7828 32.9918 68.8258 35.9487L66.1821 38.5924Z" fill="#EBCC6E"/>
<path fill-rule="evenodd" clip-rule="evenodd" d="M54.0865 19.5032C52.6987 18.1154 52.6987 15.8654 54.0865 14.4776C55.4743 13.0898 57.7243 13.0898 59.1121 14.4776L67.573 22.9385C64.3174 25.3677 59.6871 25.1038 56.7302 22.1469L54.0865 19.5032Z" fill="#ED834E"/>
<path fill-rule="evenodd" clip-rule="evenodd" d="M71.2849 37.5562C73.3312 35.281 74.2823 32.3697 74.138 29.5033L78.2014 33.5667C78.2115 33.5768 78.2217 33.5869 78.2319 33.597V36.498C78.2319 38.4606 76.6409 40.0516 74.6783 40.0516C73.0842 40.0516 71.7353 39.002 71.2849 37.5562Z" fill="#ED834E"/>
<path fill-rule="evenodd" clip-rule="evenodd" d="M55.1226 24.6058C57.3977 26.6522 60.309 27.6033 63.1754 27.459L59.1121 31.5224C59.1019 31.5325 59.0918 31.5427 59.0818 31.5528H56.1808C54.2182 31.5529 52.6272 29.9618 52.6272 27.9992C52.6272 26.4052 53.6768 25.0562 55.1226 24.6058Z" fill="#4F9E91"/>
<path fill-rule="evenodd" clip-rule="evenodd" d="M84.235 21.3942C81.9601 19.3478 79.0488 18.3967 76.1824 18.5409L80.2457 14.4776C80.2559 14.4675 80.2659 14.4573 80.276 14.4471H83.1771C85.14 14.4471 86.731 16.0382 86.731 18.0008C86.731 19.5949 85.681 20.9438 84.235 21.3942Z" fill="#EBCC6E"/>
<path fill-rule="evenodd" clip-rule="evenodd" d="M68.073 8.44368C66.0266 10.7188 65.0756 13.6301 65.2198 16.4966L61.1565 12.4332C61.1463 12.4231 61.1362 12.413 61.126 12.4029V9.50188C61.126 7.53928 62.717 5.94818 64.6796 5.94818C66.2737 5.94818 67.6226 6.99788 68.073 8.44368Z" fill="#EBE1C5"/>
<path fill-rule="evenodd" clip-rule="evenodd" d="M64.6798 3.05701C61.1204 3.05701 58.2349 5.94251 58.2349 9.50191V10.7554C56.0935 10.1959 53.7203 10.7551 52.0422 12.4332C49.5253 14.9501 49.5253 19.0308 52.0422 21.5477L52.9285 22.434C51.0187 23.5526 49.7361 25.6261 49.7361 27.9992C49.7361 31.5586 52.6216 34.4441 56.181 34.4441H57.4344C56.8749 36.5855 57.4341 38.9587 59.1122 40.6367C61.6291 43.1536 65.7098 43.1536 68.2267 40.6367L70.8703 37.9931C73.2024 35.661 74.2916 32.5566 74.1379 29.5032L78.2014 33.5666C80.7183 36.0835 84.7991 36.0835 87.3161 33.5666C89.8331 31.0497 89.8331 26.969 87.3161 24.4522L86.4301 23.566C88.3391 22.4474 89.6221 20.3739 89.6221 18.0008C89.6221 14.4414 86.7361 11.5559 83.1771 11.5559H81.9236C82.4832 9.41441 81.9239 7.04121 80.2458 5.36311C77.729 2.84621 73.6483 2.84621 71.1314 5.36311L68.4877 8.00681C66.1556 10.3389 65.0664 13.4432 65.2201 16.4966L61.1567 12.4332C61.1465 12.4231 61.1364 12.413 61.1262 12.4029V9.50191C61.1262 7.53931 62.7172 5.94831 64.6798 5.94831C66.2739 5.94831 67.6228 6.99791 68.0732 8.44371C68.2067 8.29531 68.3449 8.14961 68.4877 8.00681L70.245 6.24941C69.1264 4.33961 67.0529 3.05701 64.6798 3.05701ZM80.2761 14.4472C80.266 14.4573 80.256 14.4675 80.2458 14.4776L76.1825 18.5409C79.049 18.3967 81.9602 19.3477 84.2351 21.3942C85.6811 20.9438 86.7311 19.5948 86.7311 18.0008C86.7311 16.0382 85.1401 14.4472 83.1771 14.4472H80.2761ZM59.0818 31.5528C59.0919 31.5426 59.102 31.5324 59.1122 31.5223L63.1755 27.4589C60.3091 27.6032 57.3979 26.6521 55.1228 24.6058C53.677 25.0562 52.6273 26.4051 52.6273 27.9992C52.6273 29.9618 54.2184 31.5528 56.181 31.5528H59.0818ZM74.6783 42.943C72.3051 42.943 70.2316 41.6603 69.113 39.7505L70.8703 37.9931C71.0132 37.8503 71.1513 37.7046 71.2848 37.5562C71.7352 39.002 73.0841 40.0517 74.6783 40.0517C76.6409 40.0517 78.2319 38.4607 78.2319 36.4981V33.5971C79.0647 34.419 80.0657 34.9682 81.1232 35.2445V36.4981C81.1232 40.0575 78.2377 42.943 74.6783 42.943ZM78.2014 7.40751C76.8136 6.01981 74.5636 6.01981 73.1758 7.40751L70.5321 10.0512C67.5752 13.0082 67.3113 17.6384 69.7405 20.894L78.2014 12.4331C79.5892 11.0453 79.5892 8.79531 78.2014 7.40751ZM85.2711 31.5222C86.6591 30.1344 86.6591 27.8844 85.2711 26.4966L82.6277 23.8529C79.6708 20.896 75.0405 20.6321 71.7849 23.0613L80.2458 31.5222C81.6336 32.91 83.8841 32.91 85.2711 31.5222ZM66.1822 38.5923C64.7944 39.9801 62.5444 39.9801 61.1566 38.5923C59.7689 37.2045 59.7689 34.9545 61.1566 33.5667L69.6175 25.1058C72.0467 28.3614 71.7828 32.9917 68.8259 35.9486L66.1822 38.5923ZM54.0866 14.4776C52.6989 15.8654 52.6989 18.1154 54.0866 19.5032L56.7303 22.1469C59.6873 25.1038 64.3175 25.3677 67.5731 22.9385L59.1122 14.4776C57.7244 13.0899 55.4744 13.0899 54.0866 14.4776Z" fill="#3D3A2C"/>
<path d="M2.03271 16.0898H5.19331V25.911H10.6217V28.5716H2.03271V16.0898Z" fill="#3D3A2C"/>
<path d="M16.3603 28.8395C15.3008 28.8395 14.3722 28.649 13.5746 28.2681C12.777 27.8752 12.158 27.3395 11.7175 26.661C11.289 25.9705 11.0747 25.1789 11.0747 24.286C11.0747 23.3932 11.289 22.6075 11.7175 21.929C12.158 21.2385 12.777 20.7028 13.5746 20.3219C14.3722 19.929 15.3008 19.7326 16.3603 19.7326C17.4198 19.7326 18.3483 19.929 19.1459 20.3219C19.9435 20.7028 20.5566 21.2385 20.9851 21.929C21.4256 22.6075 21.6458 23.3932 21.6458 24.286C21.6458 25.1789 21.4256 25.9705 20.9851 26.661C20.5566 27.3395 19.9435 27.8752 19.1459 28.2681C18.3483 28.649 17.4198 28.8395 16.3603 28.8395ZM16.3603 26.3931C16.9912 26.3931 17.4912 26.2086 17.8602 25.8396C18.2412 25.4586 18.4316 24.9408 18.4316 24.286C18.4316 23.6313 18.2412 23.1194 17.8602 22.7504C17.4912 22.3694 16.9912 22.179 16.3603 22.179C15.7293 22.179 15.2234 22.3694 14.8425 22.7504C14.4734 23.1194 14.2889 23.6313 14.2889 24.286C14.2889 24.9408 14.4734 25.4586 14.8425 25.8396C15.2234 26.2086 15.7293 26.3931 16.3603 26.3931Z" fill="#3D3A2C"/>
<path d="M27.5492 32.6787C26.9778 32.6787 26.4004 32.6251 25.8171 32.518C25.2457 32.4108 24.7516 32.268 24.335 32.0894V29.9109C25.2754 30.3156 26.3468 30.518 27.5492 30.518C28.4182 30.518 29.0432 30.3394 29.4241 29.9823C29.817 29.6252 30.0134 29.1014 30.0134 28.4109V27.8931C29.6682 28.1907 29.2396 28.4228 28.7277 28.5895C28.2277 28.7562 27.692 28.8395 27.1206 28.8395C26.2159 28.8395 25.4183 28.649 24.7278 28.2681C24.0374 27.8871 23.4957 27.3514 23.1029 26.661C22.7219 25.9705 22.5315 25.1789 22.5315 24.286C22.5315 23.3813 22.7219 22.5837 23.1029 21.8933C23.4838 21.2028 24.0195 20.673 24.71 20.304C25.4004 19.9231 26.1921 19.7326 27.0849 19.7326C28.3111 19.7326 29.3229 20.1076 30.1205 20.8576V20.0004H33.1562V27.9824C33.1562 29.4704 32.6978 30.6252 31.7812 31.4466C30.8765 32.268 29.4658 32.6787 27.5492 32.6787ZM27.9063 26.411C28.3944 26.411 28.8289 26.286 29.2098 26.036C29.5908 25.786 29.8586 25.4527 30.0134 25.036V23.5361C29.8467 23.1194 29.5729 22.792 29.192 22.5539C28.811 22.304 28.3825 22.179 27.9063 22.179C27.2635 22.179 26.7456 22.3694 26.3528 22.7504C25.9599 23.1194 25.7635 23.6253 25.7635 24.2682C25.7635 24.9229 25.9599 25.4467 26.3528 25.8396C26.7456 26.2205 27.2635 26.411 27.9063 26.411Z" fill="#3D3A2C"/>
<path d="M39.239 28.8395C38.1795 28.8395 37.251 28.649 36.4534 28.2681C35.6558 27.8752 35.0367 27.3395 34.5963 26.661C34.1677 25.9705 33.9534 25.1789 33.9534 24.286C33.9534 23.3932 34.1677 22.6075 34.5963 21.929C35.0367 21.2385 35.6558 20.7028 36.4534 20.3219C37.251 19.929 38.1795 19.7326 39.239 19.7326C40.2985 19.7326 41.227 19.929 42.0246 20.3219C42.8222 20.7028 43.4353 21.2385 43.8639 21.929C44.3043 22.6075 44.5246 23.3932 44.5246 24.286C44.5246 25.1789 44.3043 25.9705 43.8639 26.661C43.4353 27.3395 42.8222 27.8752 42.0246 28.2681C41.227 28.649 40.2985 28.8395 39.239 28.8395ZM39.239 26.3931C39.8699 26.3931 40.3699 26.2086 40.739 25.8396C41.1199 25.4586 41.3104 24.9408 41.3104 24.286C41.3104 23.6313 41.1199 23.1194 40.739 22.7504C40.3699 22.3694 39.8699 22.179 39.239 22.179C38.6081 22.179 38.1021 22.3694 37.7212 22.7504C37.3521 23.1194 37.1676 23.6313 37.1676 24.286C37.1676 24.9408 37.3521 25.4586 37.7212 25.8396C38.1021 26.2086 38.6081 26.3931 39.239 26.3931Z" fill="#3D3A2C"/>
<path d="M94.9319 16.0898H98.0929V28.5716H94.9319V16.0898Z" fill="#3D3A2C"/>
<path d="M99.6931 20.0004H102.729V20.8576C103.526 20.1076 104.538 19.7326 105.764 19.7326C106.657 19.7326 107.449 19.9231 108.139 20.304C108.83 20.673 109.365 21.2028 109.746 21.8933C110.127 22.5718 110.318 23.3635 110.318 24.2682C110.318 25.161 110.127 25.9586 109.746 26.661C109.365 27.3514 108.83 27.8871 108.139 28.2681C107.461 28.649 106.669 28.8395 105.764 28.8395C105.193 28.8395 104.645 28.7502 104.122 28.5716C103.61 28.405 103.181 28.1728 102.836 27.8752V32.4822H99.6931V20.0004ZM104.943 26.3931C105.586 26.3931 106.104 26.2027 106.496 25.8217C106.889 25.4408 107.086 24.9229 107.086 24.2682C107.086 23.6134 106.889 23.1016 106.496 22.7325C106.104 22.3516 105.586 22.1611 104.943 22.1611C104.467 22.1611 104.038 22.2861 103.657 22.5361C103.276 22.7742 103.003 23.1016 102.836 23.5182V25.036C103.003 25.4527 103.276 25.786 103.657 26.036C104.038 26.2741 104.467 26.3931 104.943 26.3931Z" fill="#3D3A2C"/>
<path d="M115.003 28.8395C114.313 28.8395 113.593 28.7681 112.843 28.6252C112.093 28.4943 111.497 28.3038 111.057 28.0538V25.7503C111.545 26.036 112.128 26.2741 112.807 26.4646C113.497 26.6431 114.128 26.7324 114.7 26.7324C115.116 26.7324 115.42 26.7026 115.61 26.6431C115.801 26.5836 115.896 26.4646 115.896 26.286C115.896 26.1431 115.831 26.03 115.7 25.9467C115.581 25.8515 115.354 25.7562 115.021 25.661C114.7 25.5539 114.325 25.4408 113.896 25.3217C113.17 25.1074 112.599 24.8872 112.182 24.661C111.765 24.4348 111.456 24.1491 111.253 23.8039C111.051 23.4587 110.95 23.0242 110.95 22.5004C110.95 21.5718 111.313 20.8814 112.039 20.429C112.777 19.9647 113.783 19.7326 115.057 19.7326C115.676 19.7326 116.325 19.7981 117.003 19.929C117.694 20.06 118.211 20.2326 118.557 20.4469V22.7147C118.2 22.4766 117.723 22.2801 117.128 22.1254C116.545 21.9706 115.997 21.8933 115.485 21.8933C115.081 21.8933 114.765 21.9349 114.539 22.0182C114.313 22.0897 114.2 22.2206 114.2 22.4111C114.2 22.5897 114.313 22.7266 114.539 22.8218C114.765 22.917 115.17 23.0361 115.753 23.1789C116.134 23.2742 116.295 23.3158 116.235 23.3039C116.997 23.5063 117.586 23.7325 118.003 23.9825C118.42 24.2325 118.711 24.5301 118.878 24.8753C119.057 25.2086 119.146 25.6372 119.146 26.161C119.146 26.9824 118.789 27.6371 118.075 28.1252C117.372 28.6014 116.348 28.8395 115.003 28.8395Z" fill="#3D3A2C"/>
<path d="M123.838 28.8395C122.66 28.8395 121.773 28.5121 121.178 27.8574C120.595 27.2026 120.303 26.3396 120.303 25.2682V20.0004H123.446V24.911C123.446 25.8991 123.892 26.3931 124.785 26.3931C125.19 26.3931 125.559 26.2979 125.892 26.1074C126.225 25.9169 126.499 25.6372 126.713 25.2682V20.0004H129.856V28.5716H126.821V27.6431C126.452 28.0359 126.005 28.3335 125.481 28.5359C124.958 28.7383 124.41 28.8395 123.838 28.8395Z" fill="#3D3A2C"/>
<path d="M131.465 20.0004H134.376V20.929C134.733 20.5481 135.144 20.2564 135.608 20.054C136.072 19.8397 136.566 19.7326 137.09 19.7326C137.733 19.7326 138.245 19.8278 138.626 20.0183C139.019 20.2088 139.334 20.4945 139.572 20.8754C139.929 20.5183 140.364 20.2385 140.876 20.0362C141.388 19.8338 141.906 19.7326 142.429 19.7326C143.56 19.7326 144.364 20.0243 144.84 20.6076C145.316 21.179 145.554 22.0063 145.554 23.0896V28.5716H142.554V23.5361C142.554 23.0599 142.465 22.7147 142.286 22.5004C142.108 22.2861 141.81 22.179 141.394 22.179C140.858 22.179 140.423 22.3694 140.09 22.7504C140.102 22.9527 140.108 23.2623 140.108 23.6789V28.5716H137.108V23.4111C137.108 22.9706 137.031 22.6551 136.876 22.4647C136.721 22.2742 136.447 22.179 136.055 22.179C135.447 22.179 134.924 22.5182 134.483 23.1968V28.5716H131.465V20.0004Z" fill="#3D3A2C"/>
</svg>
