<svg width="148" height="62" viewBox="0 0 148 62" fill="none" xmlns="http://www.w3.org/2000/svg">
<path d="M74.2301 20.4544C74.8346 20.4459 75.3486 20.3329 75.3402 19.7115V19.6183C75.3486 18.9997 74.8346 18.8867 74.2301 18.8783C73.6229 18.8867 73.1088 18.9997 73.1173 19.6183V19.7115C73.1088 20.3329 73.6229 20.4459 74.2301 20.4544Z" fill="#394149"/>
<path d="M52.1307 19.2059C52.1307 19.0251 51.9867 18.8811 51.8059 18.8811H50.001V19.5279H51.8059C51.8963 19.5279 51.9725 19.4968 52.0347 19.4347C52.0996 19.3697 52.1307 19.2935 52.1307 19.2059Z" fill="#394149"/>
<path d="M62.2906 18.8726L62.8104 19.994H61.7681L62.2906 18.8726Z" fill="#394149"/>
<path d="M85.48 18.8726L85.9999 19.994H84.9575L85.48 18.8726Z" fill="#394149"/>
<path d="M48.5568 42.4855L47.7886 40.8279L47.0161 42.4855H48.5568Z" fill="#394149"/>
<path d="M66.6864 42.0095C66.6864 42.5732 66.3649 43.0367 65.7971 43.0367H63.4004V40.9824H65.7971C66.3649 40.9824 66.6864 41.4417 66.6864 42.0095Z" fill="#394149"/>
<path d="M72.7574 40.8279L73.5257 42.4855H71.9849L72.7574 40.8279Z" fill="#394149"/>
<path d="M82.0939 40.8405C82.3611 40.8405 82.574 41.0535 82.574 41.3207C82.574 41.4501 82.5281 41.5629 82.4321 41.6589C82.3402 41.7508 82.2275 41.7967 82.0939 41.7967H79.4258V40.8405H82.0939Z" fill="#394149"/>
<path d="M90.9208 42.0095C90.9208 42.5732 90.5988 43.0367 90.0308 43.0367H87.6338V40.9824H90.0308C90.5988 40.9824 90.9208 41.4417 90.9208 42.0095Z" fill="#394149"/>
<path d="M38.4122 31.5472L35.6276 25.118H30.8501V35.8333H34.3308V30.0457L36.8424 35.8333H39.9547L42.4936 30.0457V35.8333H45.9607V25.118H41.3333L38.4122 31.5472Z" fill="#394149"/>
<path d="M60.1665 35.8333V33.1715H52.4815V31.7792H59.8526V29.1721H52.4815V27.7934H60.071V25.118H48.8779V35.8333H60.1665Z" fill="#394149"/>
<path d="M63.1029 33.9359C64.1676 35.3146 66.0649 35.9971 68.3445 35.9971C70.0564 35.9971 71.3112 35.6494 72.1854 35.098C72.3358 35.0031 72.475 34.9021 72.6033 34.7959L72.6989 35.8333H75.6336V29.486H68.5083V31.7929H72.3167C72.2999 31.9021 72.2417 32.0735 72.158 32.2368C72.1058 32.3388 72.0436 32.4376 71.9754 32.5163C71.5796 32.9804 70.5285 33.3899 69.1635 33.3899C67.7439 33.3899 66.8293 33.0214 66.3379 32.4481C66.0103 32.0249 65.8192 31.4243 65.8192 30.5234C65.8192 29.5816 66.0103 28.94 66.3789 28.5169C66.9112 27.9163 67.8121 27.6569 69.1362 27.6569C70.3238 27.6569 71.1428 27.9299 71.525 28.2712C71.7707 28.4759 71.9618 28.7626 72.0027 28.9537H75.5381C75.5331 28.8277 75.515 28.6737 75.4846 28.5098C75.4326 28.2297 75.3447 27.9202 75.2241 27.6706C74.3778 25.9506 72.4122 24.9269 69.068 24.9269C66.1605 24.9269 64.2085 25.8141 63.1302 27.1519C62.4204 28.0664 62.0928 29.213 62.0928 30.4961C62.0928 31.9157 62.475 33.1306 63.1029 33.9359Z" fill="#394149"/>
<path d="M66.2632 30.5234C66.2632 29.6327 66.4453 29.1176 66.7125 28.8099C67.1144 28.3576 67.8477 28.1008 69.1363 28.1008C70.2821 28.1008 70.9677 28.3686 71.2294 28.6023L71.2351 28.6073L71.2409 28.6122C71.3309 28.6872 71.4132 28.7796 71.4754 28.8697C71.5369 28.9587 71.5615 29.0205 71.5676 29.0421H68.0645V32.2368H71.6304C71.5027 32.3811 71.2286 32.5612 70.7931 32.7059C70.3596 32.8499 69.8033 32.946 69.1636 32.946C67.8148 32.946 67.0562 32.5969 66.6823 32.1675C66.4379 31.8471 66.2632 31.3557 66.2632 30.5234Z" fill="#394149"/>
<path d="M84.9071 29.0662L83.8901 31.0078H85.8679L84.9071 29.0662Z" fill="#394149"/>
<path fill-rule="evenodd" clip-rule="evenodd" d="M87.7428 33.854L88.6848 35.8333H92.6298L87.2238 25.118H82.8151L77.0957 35.8333H80.9587L81.9551 33.854H87.7428ZM83.1563 31.4516L84.5077 28.8718L84.9172 27.889L85.2994 28.8581L86.5828 31.4516H83.1563Z" fill="#394149"/>
<path fill-rule="evenodd" clip-rule="evenodd" d="M116.226 54.3871H116.22C116.144 54.3871 116.068 54.3867 115.992 54.3859V54.3871H32.4999C25.1323 54.3871 18.5604 50.9802 14.2737 45.656H26.5751V44.0968H13.1211C11.114 41.1328 9.76909 37.6839 9.29869 33.9624H26.5751V32.4033H9.15419C9.12669 31.939 9.11279 31.4711 9.11279 31C9.11279 27.9134 9.71069 24.9666 10.7971 22.2688H26.5751V20.7097H11.4925C13.1453 17.3419 15.584 14.4297 18.5697 12.2124H102.295C103.339 11.4372 104.45 10.7469 105.617 10.1517C105.302 10.3121 104.992 10.4793 104.686 10.6532H20.9604C24.3653 8.71802 28.3035 7.61292 32.4998 7.61292H115.992V7.61402C116.07 7.61325 116.148 7.61292 116.226 7.61292C129.142 7.61292 139.613 18.0836 139.613 31C139.613 43.9163 129.142 54.3871 116.226 54.3871ZM124.922 41.9688C125.969 38.8142 126.594 35.0673 126.594 31C126.594 27.2083 126.05 23.695 125.129 20.6804C125.016 20.3123 124.898 19.9517 124.775 19.5989C124.569 19.0113 124.348 18.4455 124.114 17.9033C123.798 17.1711 123.458 16.4819 123.097 15.8403C121.391 12.813 119.445 11.1826 117.629 10.6337V17.9033H122.405C122.809 18.7654 123.178 19.7041 123.504 20.7097H117.629V29.5967H125.009C125.026 30.0592 125.035 30.5271 125.035 31C125.035 31.4729 125.026 31.9408 125.009 32.4032H117.629V41.2903H123.503C123.178 42.2959 122.809 43.2346 122.405 44.0967H117.629V51.3664C119.445 50.8176 121.391 49.1871 123.097 46.1597C123.458 45.5181 123.799 44.8289 124.114 44.0967C124.405 43.4227 124.675 42.7122 124.922 41.9688ZM128.06 20.7097C128.809 23.4187 129.272 26.4225 129.377 29.5967H136.759C136.542 26.3747 135.583 23.356 134.053 20.7097H128.06ZM132.102 17.9033H127.143C126.243 15.5449 125.107 13.4935 123.795 11.8561C127.055 13.146 129.906 15.2441 132.102 17.9033ZM114.823 10.6334V17.9033H108.337C108.653 17.1711 108.993 16.4819 109.355 15.8403C111.06 12.8125 113.007 11.1819 114.823 10.6334ZM108.656 11.856C107.344 13.4934 106.209 15.5448 105.309 17.9033H100.349C102.545 15.244 105.397 13.1458 108.656 11.856ZM104.391 20.7097H95.4109V22.2688H97.5839C96.5278 24.5189 95.8674 26.9913 95.692 29.5967H103.074C103.18 26.4225 103.642 23.4187 104.391 20.7097ZM114.823 20.7097H107.314C106.512 23.3419 105.999 26.3529 105.883 29.5967H114.823V20.7097ZM129.377 32.4032C129.272 35.5774 128.809 38.5812 128.06 41.2903H134.053C135.583 38.644 136.542 35.6252 136.759 32.4032H129.377ZM107.314 41.2903C106.512 38.6581 105.999 35.647 105.883 32.4032H114.823V41.2903H107.314ZM104.391 41.2903C103.642 38.5812 103.18 35.5774 103.074 32.4032H95.692C95.909 35.6252 96.8676 38.644 98.3983 41.2903H104.391ZM127.143 44.0967C126.243 46.4551 125.107 48.5064 123.796 50.1438C127.055 48.8539 129.906 46.7558 132.102 44.0967H127.143ZM108.337 44.0967H114.823V51.3667C113.007 50.8182 111.06 49.1876 109.355 46.1597C108.993 45.5181 108.653 44.8289 108.337 44.0967ZM105.309 44.0967L95.4109 44.0968V45.6559H101.777C103.729 47.5805 106.063 49.118 108.656 50.144C107.344 48.5066 106.209 46.4552 105.309 44.0967ZM74.2298 17.675C72.8006 17.6778 71.6312 18.0902 71.6369 19.5279V19.8047C71.6312 21.2396 72.8006 21.6548 74.2298 21.6576C75.6562 21.6548 76.8256 21.2396 76.8199 19.8047V19.5279C76.8199 18.093 75.659 17.675 74.2298 17.675ZM29.8278 17.7682V21.5644H31.3079V17.7682H29.8278ZM35.7961 19.7793L34.1296 17.7682H32.0931V21.5644H33.5732V19.2455L35.6125 21.5644H37.279V17.7682H35.7961V19.7793ZM41.0328 18.9771V21.5701H39.5528V18.9771H37.7931V17.7739H42.7925V18.9771H41.0328ZM43.2897 21.5701H47.7327V20.5956H44.7697V20.1098H47.7327V19.2313H44.7697V18.7455H47.7327V17.7739H43.2897V21.5701ZM48.5207 21.5672V17.771H52.1785C52.9609 17.7626 53.6247 18.4207 53.6134 19.2059C53.6134 19.4912 53.5371 19.751 53.3846 19.9827C53.2349 20.2114 53.0344 20.3866 52.7858 20.5024L53.6134 21.5672H52.0373L51.3227 20.6408H50.0008V21.5672H48.5207ZM57.7768 19.7793L56.1103 17.7682H54.0738V21.5644H55.5539V19.2455L57.5932 21.5644H59.2597V17.7682H57.7768V19.7793ZM61.0392 21.5701H59.3727L61.4092 17.7739H63.1689L65.2054 21.5701H63.5389L63.2395 20.9204H61.3386L61.0392 21.5701ZM67.465 21.5701V18.9771H69.2247V17.7739H64.2253V18.9771H65.985V21.5701H67.465ZM69.7218 21.5644V17.7682H71.2019V21.5644H69.7218ZM79.2999 17.7682L80.9664 19.7793V17.7682H82.4493V21.5644H80.7828L78.7435 19.2455V21.5644H77.2634V17.7682H79.2999ZM82.5623 21.5701H84.2287L84.5282 20.9204H86.4289L86.7289 21.5701H88.3949L86.3589 17.7739H84.5988L82.5623 21.5701ZM88.5109 21.5644V17.7682H89.9909V20.3611H92.9539V21.5644H88.5109ZM33.6628 40.498C32.9822 40.498 32.1471 40.5983 32.1471 41.045C32.1471 41.2914 32.8277 41.3248 33.7087 41.3665L33.7184 41.367C35.2836 41.4463 37.4749 41.5573 37.4708 42.9615C37.4708 44.5649 35.6336 44.9449 33.6628 44.9449C31.6962 44.9407 30.0636 44.7027 29.8548 42.9615H32.1471C32.3976 43.3958 32.978 43.5085 33.6628 43.5085C34.3434 43.5085 35.1785 43.3958 35.1785 42.9615C35.1785 42.7152 34.4979 42.6776 33.6169 42.6359L33.6071 42.6354C32.0419 42.5561 29.8506 42.4451 29.8548 41.045C29.8548 39.4417 31.692 39.0575 33.6628 39.0575C35.6294 39.07 37.262 39.2913 37.4708 41.045H35.1785C34.9279 40.6024 34.3476 40.498 33.6628 40.498ZM42.3268 40.9824V44.8154H40.1389V40.9824H37.5376V39.2037H44.9281V40.9824H42.3268ZM43.475 44.8154H45.9385L46.3811 43.8551H49.1912L49.6338 44.8154H52.0973L49.0868 39.2037H46.4855L43.475 44.8154ZM55.279 39.1953L57.7425 42.1682V39.1953H59.9346V44.8071H57.4711L54.4564 41.3791V44.8071H52.2685V39.1953H55.279ZM61.2122 39.2037V44.8154H66.2061C67.7468 44.8363 68.8909 43.5336 68.8783 42.0095C68.8909 40.4772 67.7468 39.1828 66.2061 39.2037H61.2122ZM70.9076 44.8154H68.4441L71.4546 39.2037H74.0559L77.0663 44.8154H74.6028L74.1602 43.8551H71.3502L70.9076 44.8154ZM77.2375 39.1995V44.8113H79.4255V43.4417H81.3796L82.4359 44.8113H84.7658L83.5424 43.2371C83.9099 43.0659 84.2063 42.8071 84.4276 42.4688C84.6531 42.1265 84.7658 41.7423 84.7658 41.3206C84.7825 40.1598 83.8013 39.187 82.6447 39.1995H77.2375ZM85.4464 44.8154V39.2037H90.4399C91.9809 39.1828 93.1249 40.4772 93.1129 42.0095C93.1249 43.5336 91.9809 44.8363 90.4399 44.8154H85.4464ZM46.4043 36.2772H42.0494V32.1626L40.2444 36.2772H36.5509L34.7744 32.1837V36.2772H30.4059V24.6741H35.9188L38.4216 30.4527L41.0471 24.6741H46.4043V36.2772ZM60.6105 36.2772H48.4341V24.6741H60.515V28.2373H52.9255V28.7282H60.2966V32.2231H52.9255V32.7276H60.6105V36.2772ZM76.0775 36.2772H72.2939L72.2304 35.5883C71.2819 36.127 69.9979 36.441 68.3444 36.441C65.9922 36.441 63.9338 35.7375 62.7521 34.2082C62.0491 33.3061 61.6488 31.9874 61.6488 30.4961C61.6488 29.1374 61.9964 27.8885 62.7794 26.8797L62.7819 26.8764L62.7845 26.8733C63.9739 25.3977 66.0757 24.483 69.0679 24.483C72.4878 24.483 74.6675 25.534 75.6223 27.4746L75.6231 27.4761L75.6238 27.4776C75.8458 27.9374 75.9659 28.5449 75.9815 28.9359L75.9858 29.0421H76.0775V36.2772ZM82.2287 34.2979L81.2323 36.2772H76.3557L82.5489 24.6741H87.4979L93.3509 36.2772H88.4039L87.4629 34.2979H82.2287ZM29.7714 50.5672H93.3059V49.008H29.7714V50.5672Z" fill="#394149"/>
<path fill-rule="evenodd" clip-rule="evenodd" d="M32.5 2H116.226C132.242 2 145.226 14.9837 145.226 31C145.226 47.0163 132.242 60 116.226 60H32.5C16.4837 60 3.5 47.0163 3.5 31C3.5 14.9837 16.4837 2 32.5 2ZM32.5 4.8065C18.0337 4.8065 6.3065 16.5337 6.3065 31C6.3065 45.4663 18.0337 57.1936 32.5 57.1936H116.226C130.692 57.1936 142.419 45.4663 142.419 31C142.419 16.5337 130.692 4.8065 116.226 4.8065H32.5Z" fill="#394149"/>
</svg>
