<svg width="156" height="40" viewBox="0 0 156 40" fill="none" xmlns="http://www.w3.org/2000/svg">
<g clip-path="url(#clip0_9_649)">
<path d="M52.0821 10.2839H48.5V26.4472H58.4164V23.2801H52.0821V10.2839Z" fill="#243A5A"/>
<path d="M58.7585 20.9648C58.7585 24.4159 61.0738 26.7093 64.5685 26.7093C68.0414 26.7093 70.3567 24.4159 70.3567 20.9648C70.3567 17.5137 68.0414 15.1984 64.5685 15.1984C61.0738 15.1984 58.7585 17.5137 58.7585 20.9648ZM62.144 20.9429C62.144 19.3048 63.1051 18.2127 64.5685 18.2127C66.0101 18.2127 66.9712 19.3048 66.9712 20.9429C66.9712 22.603 66.0101 23.6951 64.5685 23.6951C63.1051 23.6951 62.144 22.603 62.144 20.9429Z" fill="#243A5A"/>
<path d="M70.8978 20.7901C70.8978 24.0882 73.0384 26.3161 76.0744 26.3161C77.5379 26.3161 78.8047 25.7919 79.4381 24.9401V26.4472C79.4381 27.9543 78.4989 28.959 76.8389 28.959C75.3536 28.959 74.327 28.2601 74.2615 27.0151H70.8541C71.1599 30.0075 73.4752 32.0169 76.6423 32.0169C80.3773 32.0169 82.7363 29.5925 82.7363 25.7482V15.5261H79.7002L79.5255 16.64C78.9139 15.7445 77.6252 15.1548 76.14 15.1548C73.082 15.1548 70.8978 17.4482 70.8978 20.7901ZM74.3052 20.7027C74.3052 19.13 75.3536 18.0816 76.686 18.0816C78.2368 18.0816 79.3726 19.1082 79.3726 20.7027C79.3726 22.2972 78.2586 23.3893 76.7078 23.3893C75.3755 23.3893 74.3052 22.2972 74.3052 20.7027Z" fill="#243A5A"/>
<path d="M83.7166 20.9648C83.7166 24.4159 86.0319 26.7093 89.5267 26.7093C92.9996 26.7093 95.3148 24.4159 95.3148 20.9648C95.3148 17.5137 92.9996 15.1984 89.5267 15.1984C86.0319 15.1984 83.7166 17.5137 83.7166 20.9648ZM87.1022 20.9429C87.1022 19.3048 88.0632 18.2127 89.5267 18.2127C90.9682 18.2127 91.9293 19.3048 91.9293 20.9429C91.9293 22.603 90.9682 23.6951 89.5267 23.6951C88.0632 23.6951 87.1022 22.603 87.1022 20.9429Z" fill="#243A5A"/>
<path d="M98.2149 13.8224C99.2633 13.8224 100.115 12.9705 100.115 11.9003C100.115 10.83 99.2633 10 98.2149 10C97.1446 10 96.2928 10.83 96.2928 11.9003C96.2928 12.9705 97.1446 13.8224 98.2149 13.8224ZM96.5112 26.4472H99.8968V15.5261H96.5112V26.4472Z" fill="#243A5A"/>
<path d="M101.868 31.6893H105.188V25.3551C105.821 26.1851 107.263 26.753 108.77 26.753C112.024 26.753 113.99 24.263 113.903 20.8119C113.815 17.2953 111.784 15.1766 108.748 15.1766C107.197 15.1766 105.734 15.8537 105.122 16.8585L104.947 15.5261H101.868V31.6893ZM105.253 20.9866C105.253 19.3485 106.345 18.2564 107.918 18.2564C109.512 18.2564 110.517 19.3703 110.517 20.9866C110.517 22.603 109.512 23.7169 107.918 23.7169C106.345 23.7169 105.253 22.6248 105.253 20.9866Z" fill="#243A5A"/>
<path d="M114.261 22.9961C114.348 25.2022 116.096 26.7311 118.848 26.7311C121.491 26.7311 123.326 25.3332 123.326 23.0835C123.326 21.4672 122.365 20.3969 120.573 19.96L118.63 19.4795C117.931 19.3048 117.494 19.13 117.494 18.5621C117.494 17.9942 117.952 17.6229 118.63 17.6229C119.394 17.6229 119.896 18.1253 119.875 18.8679H122.911C122.823 16.5963 121.098 15.1766 118.695 15.1766C116.271 15.1766 114.458 16.6182 114.458 18.8024C114.458 20.2658 115.266 21.4672 117.428 22.0351L119.35 22.5374C119.918 22.6903 120.158 22.9524 120.158 23.3237C120.158 23.8698 119.656 24.2193 118.804 24.2193C117.821 24.2193 117.297 23.7606 117.297 22.9961H114.261Z" fill="#243A5A"/>
<path d="M128.474 26.7311C129.807 26.7311 131.139 26.1195 131.816 25.224L132.035 26.4472H135.202V15.5261H131.838V21.2051C131.838 22.8432 131.358 23.7387 129.807 23.7387C128.605 23.7387 127.819 23.1927 127.819 21.1614V15.5261H124.455V22.3845C124.455 24.9838 125.897 26.7311 128.474 26.7311Z" fill="#243A5A"/>
<path d="M140.536 26.4472V20.4843C140.536 18.6495 141.519 18.1253 142.48 18.1253C143.55 18.1253 144.249 18.7806 144.249 20.1348V26.4472H147.569V20.4843C147.569 18.6277 148.53 18.1035 149.491 18.1035C150.561 18.1035 151.282 18.7587 151.282 20.1348V26.4472H154.559V19.3048C154.559 16.8148 153.248 15.1548 150.43 15.1548C148.858 15.1548 147.569 15.9192 147.001 17.0987C146.346 15.9192 145.21 15.1548 143.397 15.1548C142.196 15.1548 141.082 15.7008 140.427 16.5745L140.296 15.5261H137.15V26.4472H140.536Z" fill="#243A5A"/>
<path d="M0.5 20C0.5 10.5719 0.5 5.85786 3.42893 2.92893C6.35786 0 11.0719 0 20.5 0C29.9281 0 34.6421 0 37.5711 2.92893C40.5 5.85786 40.5 10.5719 40.5 20C40.5 29.4281 40.5 34.1421 37.5711 37.0711C34.6421 40 29.9281 40 20.5 40C11.0719 40 6.35786 40 3.42893 37.0711C0.5 34.1421 0.5 29.4281 0.5 20Z" fill="#243A5A"/>
<path d="M24.4999 26C25.0522 26 25.51 26.4521 25.4003 26.9934C25.2064 27.9494 24.7354 28.8355 24.0354 29.5355C23.0978 30.4732 21.826 31 20.4999 31C19.1738 31 17.9021 30.4732 16.9644 29.5355C16.2644 28.8355 15.7934 27.9494 15.5996 26.9934C15.4898 26.4521 15.9476 26 16.4999 26H24.4999Z" fill="#2DF8BB"/>
<path d="M26.6022 17.7765C26.0687 17.9194 25.742 18.4775 26.0125 18.959C26.2972 19.4658 26.691 19.9081 27.1701 20.2514C27.9223 20.7904 28.8381 21.052 29.7616 20.9914C30.685 20.9309 31.5589 20.5521 32.2343 19.9195C32.9098 19.2869 33.3449 18.4396 33.4657 17.5221C33.5865 16.6046 33.3855 15.6736 32.8968 14.8877C32.4081 14.1019 31.662 13.5098 30.7857 13.2123C29.9094 12.9148 28.9571 12.9304 28.091 13.2564C27.5394 13.464 27.0446 13.7893 26.6384 14.2051C26.2525 14.6002 26.4236 15.2239 26.9019 15.5L27.4092 15.7929C28.1807 16.2384 28.0286 17.3943 27.168 17.6249L26.6022 17.7765Z" fill="#2DF8BB"/>
<path d="M14.3979 17.7765C14.9314 17.9194 15.2581 18.4775 14.9876 18.959C14.7029 19.4658 14.3091 19.9081 13.8301 20.2514C13.0779 20.7904 12.162 21.052 11.2386 20.9914C10.3151 20.9309 9.44119 20.5521 8.76576 19.9195C8.09033 19.2869 7.65514 18.4396 7.53435 17.5221C7.41356 16.6046 7.61463 15.6736 8.10332 14.8877C8.592 14.1019 9.33806 13.5098 10.2144 13.2123C11.0907 12.9148 12.0431 12.9304 12.9092 13.2564C13.4607 13.464 13.9556 13.7893 14.3618 14.2051C14.7477 14.6002 14.5765 15.2239 14.0982 15.5L13.5909 15.7929C12.8194 16.2384 12.9716 17.3943 13.8321 17.6249L14.3979 17.7765Z" fill="#2DF8BB"/>
</g>
<defs>
<clipPath id="clip0_9_649">
<rect width="155" height="40" fill="white" transform="translate(0.5)"/>
</clipPath>
</defs>
</svg>
