<svg width="61" height="40" viewBox="0 0 61 40" fill="none" xmlns="http://www.w3.org/2000/svg">
<g clip-path="url(#clip0_9_565)">
<path d="M56.75 1.25C56.75 1.94036 57.3096 2.5 58 2.5H59.25C59.9404 2.5 60.5 1.94036 60.5 1.25C60.5 0.559645 59.9404 0 59.25 0H58C57.3096 0 56.75 0.559645 56.75 1.25Z" fill="#212326"/>
<path d="M20.5 40H26.5723L24.8045 38.2322C24.3357 37.7634 23.6998 37.5 23.0368 37.5H20.5C10.835 37.5 3 29.665 3 20C3 10.335 10.835 2.50001 20.5 2.5H40.5C50.165 2.5 58 10.335 58 20C58 29.665 50.165 37.5 40.5 37.5H33.0184C32.0238 37.5 31.07 37.1049 30.3667 36.4017L28.2957 34.3306C27.1236 33.1585 25.5338 32.5 23.8762 32.5H20.5C13.5964 32.5 8 26.9036 8 20C8 13.0964 13.5964 7.5 20.5 7.5H40.5C47.4036 7.5 53 13.0964 53 20C53 26.9036 47.4036 32.5 40.5 32.5H35.6961C34.7015 32.5 33.7477 32.1049 33.0444 31.4017L30.9733 29.3306C29.8012 28.1585 28.2115 27.5 26.5539 27.5H20.5C16.3579 27.5 13 24.1421 13 20C13 15.8579 16.3579 12.5 20.5 12.5H40.5C44.6421 12.5 48 15.8579 48 20C48 24.0916 44.7235 27.418 40.6512 27.4985L40.6504 27.5H38.8211C37.8265 27.5 36.8727 27.1049 36.1694 26.4017L34.0983 24.3306C33.1366 23.3688 31.8937 22.7529 30.5628 22.5628L30.5 22.5H20.5C19.1193 22.5 18 21.3807 18 20C18 18.6193 19.1193 17.5 20.5 17.5H40.5C41.8807 17.5 43 18.6193 43 20C43 21.3807 41.8807 22.5 40.5 22.5H35.5L37.2678 24.2678C37.7366 24.7366 38.3725 25 39.0355 25H40.5C43.2614 25 45.5 22.7614 45.5 20C45.5 17.2386 43.2614 15 40.5 15H20.5C17.7386 15 15.5 17.2386 15.5 20C15.5 22.7614 17.7386 25 20.5 25H29.6789C30.6735 25 31.6273 25.3951 32.3306 26.0983L34.4017 28.1694C35.5738 29.3415 37.1635 30 38.8211 30H41.125V29.9808C46.3567 29.6582 50.5 25.3129 50.5 20C50.5 14.4772 46.0228 10 40.5 10H20.5C14.9772 10 10.5 14.4772 10.5 20C10.5 25.5229 14.9772 30 20.5 30H26.5539C27.5485 30 28.5023 30.3951 29.2056 31.0983L31.2767 33.1694C32.4488 34.3415 34.0385 35 35.6961 35H40.5C48.7843 35 55.5 28.2843 55.5 20C55.5 11.7157 48.7843 5 40.5 5H20.5C12.2157 5 5.5 11.7157 5.5 20C5.5 28.2843 12.2157 35 20.5 35H23.8762C24.8708 35 25.8246 35.3951 26.5279 36.0983L28.599 38.1694C29.7711 39.3415 31.3608 40 33.0184 40H40.5C51.5457 40 60.5 31.0457 60.5 20C60.5 8.9543 51.5457 -9.65645e-07 40.5 0L20.5 4.13264e-06C9.4543 5.09829e-06 0.499999 8.95431 0.5 20C0.500001 31.0457 9.45431 40 20.5 40Z" fill="#212326"/>
</g>
<defs>
<clipPath id="clip0_9_565">
<rect width="60" height="40" fill="white" transform="translate(0.5)"/>
</clipPath>
</defs>
</svg>
