<svg width="127" height="44" viewBox="0 0 127 44" fill="none" xmlns="http://www.w3.org/2000/svg">
<g clip-path="url(#clip0_9_568)">
<path fill-rule="evenodd" clip-rule="evenodd" d="M116.16 27.5782C114.855 27.6873 113.516 27.2063 112.572 26.1578L109.469 22.7123C108.408 21.534 107.592 20.1771 107.048 18.7197C106.988 18.7431 106.927 18.7682 106.868 18.7948C107.265 20.0924 107.876 21.3278 108.689 22.4464L111.414 26.1973C112.426 27.5903 114.132 28.1812 115.713 27.8405C115.781 27.8061 115.848 27.7697 115.915 27.7312C115.999 27.6826 116.081 27.6316 116.16 27.5782ZM116.367 27.4303C115.032 27.6117 113.634 27.1511 112.664 26.0744L109.562 22.629C108.512 21.4625 107.704 20.1194 107.165 18.6768C107.217 18.6589 107.268 18.6421 107.32 18.6265C108.025 20.2039 109.057 21.6332 110.366 22.8117L113.811 25.9141C114.67 26.6872 115.753 27.0541 116.823 27.0271C116.683 27.1709 116.53 27.3058 116.367 27.4303ZM116.416 27.5492C116.343 27.6041 116.268 27.657 116.191 27.7077C116.358 27.6503 116.523 27.5818 116.684 27.5021C116.595 27.5206 116.506 27.5363 116.416 27.5492ZM117.112 27.2592C116.949 27.3125 116.784 27.3556 116.618 27.3885C116.755 27.2724 116.883 27.1489 117.003 27.0189C117.179 27.0072 117.355 26.9847 117.529 26.9516C117.455 27.0131 117.379 27.0724 117.301 27.1296C117.238 27.1747 117.175 27.2179 117.112 27.2592ZM117.166 27.3725C116.723 27.6573 116.245 27.8515 115.755 27.9589C113.717 28.9853 111.206 28.2529 110.05 26.251L107.732 22.2358C107.146 21.2212 106.712 20.139 106.432 19.0224L103.166 20.908C101.091 22.1061 98.4376 21.3951 97.2395 19.3199C96.9305 18.7847 96.7485 18.2111 96.6841 17.6338C96.4978 17.1414 96.4073 16.6338 96.404 16.1327C96.2702 15.6233 96.2332 15.1089 96.2824 14.6101C96.2026 14.0901 96.2194 13.5752 96.3203 13.0847C96.2951 12.5585 96.3657 12.0474 96.5176 11.5695C96.5476 11.0435 96.6714 10.5426 96.8725 10.0832C96.9574 9.56347 97.1328 9.07849 97.3807 8.64283C97.5194 8.13497 97.7445 7.67109 98.0364 7.2638C98.2274 6.77333 98.4996 6.33558 98.8324 5.96108C99.0737 5.49299 99.3903 5.0859 99.7606 4.74809C100.05 4.30787 100.407 3.93616 100.81 3.63895C101.144 3.23131 101.538 2.89896 101.97 2.64555C102.345 2.27502 102.771 1.98575 103.228 1.77894C103.639 1.44956 104.094 1.20651 104.569 1.04856C105.012 0.763925 105.49 0.569736 105.979 0.462362C108.018 -0.564262 110.529 0.168076 111.685 2.17008L113.617 5.51784C114.341 6.77047 114.834 8.1261 115.088 9.52234L118.57 7.51239C120.645 6.31429 123.298 7.02529 124.497 9.10046C124.805 9.63533 124.987 10.2086 125.052 10.7855C125.238 11.2781 125.329 11.7858 125.332 12.2871C125.466 12.7963 125.503 13.3106 125.454 13.8094C125.534 14.3304 125.517 14.8463 125.416 15.3376C125.441 15.8634 125.37 16.374 125.218 16.8514C125.188 17.3768 125.065 17.8772 124.864 18.3362C124.779 18.8559 124.604 19.3409 124.356 19.7765C124.217 20.2846 123.992 20.7487 123.7 21.1562C123.509 21.6471 123.237 22.0852 122.903 22.46C122.662 22.928 122.345 23.335 121.975 23.6727C121.686 24.113 121.329 24.4847 120.925 24.782C120.592 25.1896 120.197 25.5219 119.765 25.7753C119.391 26.1459 118.964 26.4352 118.507 26.642C118.096 26.9715 117.642 27.2146 117.166 27.3725ZM118.042 26.8212C117.89 26.9173 117.733 27.0027 117.572 27.0773C117.644 27.0187 117.713 26.9582 117.78 26.896C117.868 26.8738 117.955 26.8489 118.042 26.8212ZM118.881 26.306C119.032 26.215 119.179 26.1137 119.321 26.0022C119.238 26.0388 119.154 26.0727 119.069 26.1039C119.008 26.1728 118.946 26.2402 118.881 26.306ZM118.824 26.1855C118.758 26.2543 118.688 26.3213 118.616 26.3863C118.559 26.4377 118.501 26.4872 118.442 26.5349C118.286 26.6049 118.126 26.665 117.964 26.7152C118.088 26.5854 118.203 26.4492 118.308 26.3074C118.482 26.2773 118.655 26.2366 118.824 26.1855ZM119.232 25.9049C119.388 25.8381 119.541 25.7616 119.689 25.6757C119.742 25.622 119.795 25.5667 119.846 25.5096C119.911 25.4374 119.973 25.3635 120.032 25.2882C119.869 25.3568 119.702 25.4153 119.532 25.4635C119.442 25.6154 119.342 25.7629 119.232 25.9049ZM119.358 25.5088C119.25 25.6786 119.129 25.8421 118.996 25.9979C118.805 26.0663 118.61 26.1208 118.412 26.1611C118.532 25.9848 118.638 25.801 118.729 25.6112C118.941 25.5925 119.151 25.5581 119.358 25.5088ZM119.62 25.3071C119.812 25.2463 120.001 25.1717 120.183 25.0837C120.3 24.9147 120.403 24.7395 120.493 24.5593C120.292 24.63 120.087 24.6861 119.878 24.7269C119.807 24.9252 119.721 25.1192 119.62 25.3071ZM119.736 24.7523C119.657 24.9597 119.562 25.162 119.45 25.3569C119.234 25.4153 119.013 25.4566 118.79 25.4802C118.887 25.2622 118.965 25.0371 119.024 24.8075C119.264 24.8088 119.502 24.7901 119.736 24.7523ZM119.784 24.6177C119.863 24.3858 119.922 24.1482 119.959 23.9077C119.695 23.9261 119.428 23.9204 119.159 23.889C119.149 24.1564 119.113 24.4223 119.054 24.683C119.3 24.6826 119.545 24.6604 119.784 24.6177ZM119.925 24.5903C119.998 24.3633 120.052 24.1314 120.087 23.8969C120.325 23.8731 120.56 23.8296 120.789 23.7675C120.733 23.982 120.659 24.1931 120.568 24.3987C120.359 24.4793 120.144 24.5435 119.925 24.5903ZM120.661 24.4961C120.587 24.6566 120.503 24.8137 120.409 24.9665C120.557 24.8837 120.701 24.7918 120.839 24.6909C120.887 24.6319 120.933 24.5713 120.978 24.5092C121.035 24.4305 121.089 24.3506 121.14 24.2695C120.985 24.3547 120.825 24.4304 120.661 24.4961ZM121.269 24.0503C121.097 24.1568 120.917 24.2507 120.732 24.3313C120.813 24.1339 120.878 23.9321 120.928 23.7274C121.132 23.665 121.33 23.5878 121.522 23.4966C121.452 23.6851 121.367 23.8701 121.269 24.0503ZM121.362 24.1389C121.318 24.2188 121.271 24.2977 121.22 24.3756C121.35 24.2551 121.473 24.1254 121.588 23.9869C121.514 24.04 121.439 24.0907 121.362 24.1389ZM121.88 23.5911C121.753 23.7059 121.62 23.8124 121.481 23.9102C121.559 23.7485 121.626 23.5834 121.682 23.4161C121.839 23.3337 121.99 23.2417 122.136 23.1407C122.093 23.2266 122.048 23.3117 121.999 23.3959C121.961 23.4624 121.921 23.5275 121.88 23.5911ZM122.226 23.2378C122.343 23.1044 122.451 22.9626 122.551 22.8129C122.483 22.8734 122.414 22.9316 122.343 22.9876C122.307 23.0717 122.268 23.1551 122.226 23.2378ZM122.437 22.7478C122.497 22.5787 122.547 22.4076 122.585 22.2352C122.732 22.1368 122.873 22.0295 123.007 21.9138C122.975 22.0037 122.938 22.0931 122.899 22.1819C122.867 22.2521 122.835 22.3211 122.8 22.3888C122.686 22.5162 122.564 22.636 122.437 22.7478ZM122.241 22.9093C122.32 22.7197 122.384 22.5268 122.434 22.3321C122.253 22.4428 122.064 22.5403 121.868 22.6237C121.839 22.8325 121.796 23.0401 121.736 23.2448C121.912 23.1453 122.08 23.0332 122.241 22.9093ZM121.58 23.329C121.649 23.115 121.7 22.8973 121.734 22.678C121.513 22.7637 121.284 22.8315 121.049 22.8801C121.039 23.117 121.009 23.3533 120.96 23.5866C121.173 23.5172 121.381 23.431 121.58 23.329ZM120.824 23.6286C120.878 23.3898 120.911 23.1473 120.923 22.9042C120.663 22.9502 120.396 22.9725 120.125 22.9693C120.143 23.2363 120.136 23.5044 120.104 23.7699C120.349 23.7437 120.589 23.6962 120.824 23.6286ZM119.977 23.7815C120.011 23.5112 120.019 23.2381 120 22.9661C119.758 22.9562 119.514 22.926 119.269 22.8739L119.071 22.8319C119.136 23.1401 119.166 23.4526 119.162 23.764C119.436 23.7967 119.709 23.802 119.977 23.7815ZM119.038 23.7472C119.04 23.4318 119.007 23.1151 118.938 22.8035L117.879 22.5783C117.991 22.8822 118.068 23.1933 118.109 23.506L118.356 23.5862C118.582 23.6597 118.81 23.713 119.038 23.7472ZM117.978 23.4632C117.932 23.154 117.851 22.8469 117.733 22.5475L114.734 21.91C112.326 21.398 110.141 20.1906 108.437 18.4637C108.424 18.4636 108.411 18.4636 108.398 18.4637C109.863 20.1639 111.777 21.4484 113.947 22.1535L117.978 23.4632ZM108.238 18.4681C109.726 20.2236 111.684 21.5492 113.908 22.2719L117.995 23.6C118.032 23.9172 118.032 24.2356 117.996 24.549C117.773 24.4913 117.552 24.4144 117.335 24.3176L113.099 22.4319C111.125 21.5529 109.434 20.1811 108.174 18.4718C108.195 18.4704 108.217 18.4692 108.238 18.4681ZM108.294 18.3412C108.302 18.3409 108.31 18.3407 108.318 18.3405C108.277 18.2978 108.236 18.2549 108.196 18.2116C108.192 18.2111 108.189 18.2105 108.185 18.21C108.221 18.254 108.257 18.2977 108.294 18.3412ZM108.006 18.1862C108.05 18.241 108.094 18.2954 108.139 18.3494C108.122 18.3506 108.105 18.3519 108.088 18.3534C108.047 18.2966 108.007 18.2396 107.967 18.1821C107.98 18.1834 107.993 18.1848 108.006 18.1862ZM108.618 18.4686C110.291 20.129 112.419 21.2904 114.76 21.7881L117.676 22.4079C117.612 22.2611 117.539 22.1165 117.457 21.9746L117.269 21.6478L115.518 21.4637C112.951 21.194 110.55 20.139 108.628 18.4691C108.625 18.469 108.622 18.4688 108.618 18.4686ZM109.002 18.6206C110.853 20.1317 113.118 21.0863 115.531 21.3399L117.192 21.5144L116.859 20.938H116.25C113.635 20.938 111.104 20.1181 109.002 18.6206ZM117.003 20.938L117.345 21.5305L118.495 21.6514C118.417 21.5121 118.329 21.3758 118.233 21.2433L118.011 20.938H117.003ZM117.921 20.8135H116.931L116.671 20.3626C116.755 20.3554 116.84 20.3474 116.924 20.3385L117.529 20.2749L117.921 20.8135ZM118.165 20.938L118.334 21.1701C118.45 21.3309 118.555 21.497 118.646 21.6673L119.746 21.7829C119.637 21.4901 119.494 21.2065 119.317 20.938H118.165ZM119.232 20.8135H118.075L117.672 20.2599L118.675 20.1545L118.928 20.4348C119.037 20.5566 119.139 20.6831 119.232 20.8135ZM119.465 20.938C119.639 21.2119 119.778 21.5002 119.884 21.7974L120.142 21.8245C120.378 21.8494 120.613 21.8541 120.842 21.8402C120.779 21.5313 120.681 21.2284 120.549 20.938H119.465ZM120.489 20.8135H119.383C119.274 20.6536 119.153 20.4992 119.02 20.3515L118.828 20.1384L119.974 20.018C120.178 20.2665 120.35 20.5336 120.489 20.8135ZM120.685 20.938C120.812 21.2261 120.906 21.5256 120.968 21.8307C121.242 21.8058 121.51 21.7543 121.768 21.6784C121.745 21.407 121.696 21.1382 121.622 20.8761C121.383 20.9168 121.137 20.938 120.887 20.938H120.685ZM121.585 20.7558C121.358 20.7937 121.125 20.8135 120.887 20.8135H120.628C120.492 20.529 120.323 20.2567 120.122 20.0025L121.199 19.8892C121.361 20.1642 121.49 20.4552 121.585 20.7558ZM121.745 20.8532C121.817 21.1108 121.866 21.3744 121.89 21.6406C122.124 21.5642 122.349 21.4676 122.564 21.3529C122.568 21.1079 122.55 20.8639 122.511 20.6236C122.266 20.7227 122.01 20.8001 121.745 20.8532ZM122.489 20.4981C122.24 20.6006 121.979 20.6799 121.709 20.7333C121.616 20.4362 121.491 20.1482 121.335 19.875L121.535 19.8539C121.784 19.8277 122.026 19.7809 122.26 19.7155C122.361 19.9684 122.438 20.2306 122.489 20.4981ZM122.629 20.5739C122.669 20.8077 122.689 21.045 122.689 21.2834C122.883 21.1711 123.068 21.0436 123.242 20.9024C123.265 20.6787 123.27 20.4551 123.257 20.2336C123.059 20.3635 122.849 20.4775 122.629 20.5739ZM123.247 20.091C123.045 20.2277 122.831 20.3473 122.606 20.4478C122.554 20.1856 122.478 19.9284 122.379 19.6799C122.638 19.5993 122.885 19.4956 123.118 19.3713C123.182 19.6063 123.225 19.8471 123.247 20.091ZM123.377 20.1526C123.393 20.3628 123.393 20.5749 123.377 20.7876C123.528 20.6536 123.67 20.5088 123.801 20.3541C123.839 20.1523 123.862 19.9503 123.87 19.7495C123.716 19.8955 123.551 20.0303 123.377 20.1526ZM123.874 19.5721C123.716 19.7307 123.545 19.8768 123.364 20.0088C123.339 19.7718 123.294 19.5379 123.23 19.3095C123.439 19.1907 123.635 19.0554 123.819 18.9055C123.855 19.1244 123.873 19.3472 123.874 19.5721ZM123.998 19.6233C123.996 19.7998 123.983 19.9774 123.959 20.1553C124.061 20.0194 124.155 19.8769 124.24 19.7285C124.26 19.6553 124.278 19.5812 124.293 19.5062C124.314 19.411 124.331 19.3159 124.344 19.221C124.237 19.3621 124.121 19.4964 123.998 19.6233ZM124.372 18.9685C124.258 19.1359 124.133 19.2947 123.996 19.4437C123.99 19.2307 123.967 19.0197 123.93 18.8124C124.09 18.6726 124.24 18.5213 124.378 18.3601C124.391 18.5606 124.389 18.7638 124.372 18.9685ZM124.494 19.0114C124.486 19.1024 124.475 19.1937 124.46 19.2851C124.53 19.1224 124.589 18.9541 124.638 18.7809C124.592 18.8593 124.544 18.9362 124.494 19.0114ZM124.743 18.3006C124.674 18.457 124.596 18.6084 124.509 18.7542C124.514 18.5748 124.509 18.3969 124.492 18.2212C124.601 18.0823 124.702 17.9367 124.794 17.7853C124.79 17.881 124.784 17.9772 124.773 18.0739C124.765 18.1502 124.755 18.2257 124.743 18.3006ZM124.916 17.8365C124.968 17.6677 125.01 17.4943 125.04 17.3172C125.003 17.3998 124.963 17.4812 124.921 17.5611C124.922 17.6524 124.921 17.7442 124.916 17.8365ZM124.909 17.3037C124.98 17.1498 125.042 16.9912 125.095 16.8285C125.099 16.7526 125.101 16.6762 125.101 16.5993C125.101 16.5023 125.098 16.4061 125.091 16.3107C125.016 16.4708 124.931 16.626 124.837 16.7755C124.871 16.9485 124.896 17.1248 124.909 17.3037ZM124.797 16.6003C124.9 16.4264 124.99 16.2451 125.066 16.0578C125.04 15.854 125 15.6547 124.945 15.4611C124.844 15.6474 124.729 15.8263 124.601 15.9964C124.681 16.1914 124.747 16.3932 124.797 16.6003ZM124.513 16.1104C124.593 16.3171 124.657 16.5314 124.704 16.7513C124.583 16.9391 124.447 17.1173 124.297 17.284C124.223 17.0574 124.13 16.838 124.021 16.6277C124.199 16.4683 124.364 16.2951 124.513 16.1104ZM124.544 15.8636C124.676 15.6822 124.793 15.4907 124.894 15.2912C124.824 15.0774 124.738 14.8711 124.636 14.6739C124.508 14.8732 124.362 15.0626 124.201 15.2398C124.332 15.4374 124.447 15.646 124.544 15.8636ZM124.114 15.3333C124.246 15.5371 124.362 15.7528 124.458 15.9779C124.309 16.1701 124.142 16.35 123.96 16.5149C123.829 16.2816 123.678 16.0605 123.507 15.8547C123.727 15.6984 123.93 15.5235 124.114 15.3333ZM124.129 15.134C124.293 14.9509 124.44 14.7546 124.569 14.5478C124.449 14.3339 124.312 14.1315 124.158 13.9427C123.995 14.1511 123.812 14.3462 123.609 14.5247C123.801 14.7115 123.975 14.9155 124.129 15.134ZM123.514 14.606C123.71 14.7958 123.887 15.004 124.042 15.2276C123.857 15.4224 123.65 15.6009 123.425 15.7597C123.22 15.5261 122.988 15.3139 122.734 15.1278L122.909 15.0272C123.125 14.902 123.328 14.7608 123.514 14.606ZM123.518 14.4387C123.726 14.2573 123.912 14.0582 124.076 13.845C123.304 12.9509 122.161 12.3852 120.887 12.3852H116.25C115.921 12.3852 115.596 12.3439 115.282 12.2643C115.278 12.3507 115.274 12.4372 115.269 12.5236C115.632 12.6857 116.022 12.7915 116.425 12.8339L121.036 13.3185C122 13.4198 122.856 13.8293 123.518 14.4387ZM115.26 12.6558C115.623 12.8128 116.011 12.9156 116.412 12.9577L121.023 13.4424C121.953 13.5402 122.781 13.9338 123.423 14.5199C123.245 14.6665 123.052 14.8003 122.846 14.9194L122.622 15.0486C122.168 14.7372 121.646 14.5078 121.073 14.3861L116.538 13.4222C116.072 13.323 115.633 13.1385 115.242 12.8823C115.248 12.8068 115.254 12.7313 115.26 12.6558ZM115.147 12.4668C115.152 12.3882 115.155 12.3095 115.158 12.2309C115.13 12.2227 115.101 12.2142 115.073 12.2053C115.076 12.281 115.078 12.3567 115.079 12.4325C115.101 12.4442 115.124 12.4556 115.147 12.4668ZM115.08 12.5727C115.1 12.5823 115.119 12.5917 115.139 12.601C115.134 12.668 115.129 12.7349 115.123 12.8019C115.109 12.7914 115.094 12.7808 115.079 12.77C115.08 12.7042 115.08 12.6384 115.08 12.5727ZM114.953 12.3649C114.951 12.2977 114.95 12.2306 114.947 12.1635C114.927 12.1563 114.906 12.149 114.886 12.1415C114.893 12.2069 114.9 12.2724 114.906 12.3379C114.921 12.347 114.937 12.356 114.953 12.3649ZM114.919 12.4885C114.931 12.4951 114.943 12.5017 114.955 12.5082C114.956 12.564 114.956 12.6198 114.955 12.6756C114.947 12.6692 114.939 12.6627 114.931 12.6562C114.927 12.6003 114.923 12.5443 114.919 12.4885ZM114.773 12.257C114.767 12.2014 114.761 12.1459 114.755 12.0905C114.742 12.0853 114.73 12.0801 114.717 12.0747C114.727 12.1299 114.737 12.1851 114.747 12.2404C114.755 12.2459 114.764 12.2515 114.773 12.257ZM114.774 12.4047C114.779 12.4073 114.783 12.41 114.787 12.4126C114.791 12.4562 114.795 12.4999 114.798 12.5435L114.795 12.5409C114.789 12.4955 114.782 12.45 114.774 12.4047ZM114.603 12.1422C114.595 12.0991 114.587 12.0561 114.578 12.0131C114.574 12.0109 114.569 12.0086 114.564 12.0064C114.576 12.0508 114.588 12.0953 114.599 12.1398L114.603 12.1422ZM114.52 11.8459C114.529 11.8506 114.538 11.8552 114.547 11.8598C114.536 11.8051 114.524 11.7504 114.512 11.6958C114.499 11.692 114.486 11.6881 114.473 11.6841C114.489 11.7379 114.504 11.7918 114.52 11.8459ZM114.328 11.6372C114.341 11.6792 114.354 11.7212 114.366 11.7634L114.363 11.7614C114.347 11.7182 114.33 11.6751 114.314 11.6321C114.319 11.6338 114.323 11.6355 114.328 11.6372ZM114.429 11.5395C114.446 11.5452 114.463 11.5507 114.48 11.5561C114.465 11.4906 114.449 11.4252 114.433 11.36C114.411 11.3572 114.39 11.3543 114.368 11.3512C114.389 11.4138 114.409 11.4766 114.429 11.5395ZM114.229 11.3285C114.247 11.3816 114.265 11.4347 114.282 11.488C114.272 11.4844 114.262 11.4808 114.253 11.4771C114.232 11.4249 114.211 11.3728 114.189 11.3209C114.202 11.3235 114.216 11.3261 114.229 11.3285ZM114.324 11.2183C114.349 11.2224 114.374 11.2262 114.399 11.2298C114.379 11.1536 114.358 11.0776 114.337 11.0019C114.307 11.0029 114.278 11.0035 114.248 11.0038C114.274 11.0751 114.299 11.1466 114.324 11.2183ZM114.115 11.0031C114.138 11.0661 114.161 11.1294 114.183 11.1929C114.165 11.1893 114.148 11.1856 114.13 11.1818C114.104 11.1213 114.077 11.0611 114.05 11.001C114.072 11.0019 114.094 11.0026 114.115 11.0031ZM114.202 10.8795C114.235 10.8795 114.268 10.8791 114.301 10.8783C114.275 10.7907 114.248 10.7033 114.221 10.6163C114.183 10.6238 114.146 10.6308 114.109 10.6372C114.141 10.7176 114.172 10.7984 114.202 10.8795ZM113.982 10.6569C114.012 10.73 114.04 10.8034 114.068 10.8771C114.043 10.8762 114.017 10.875 113.992 10.8736C113.96 10.8048 113.928 10.7363 113.895 10.6681C113.924 10.6647 113.953 10.661 113.982 10.6569ZM114.061 10.519C114.101 10.5123 114.142 10.505 114.182 10.4971C114.149 10.3966 114.114 10.2966 114.078 10.1971C114.034 10.2143 113.99 10.2307 113.945 10.2463C113.985 10.3367 114.023 10.4276 114.061 10.519ZM113.827 10.2856C113.863 10.3692 113.899 10.4533 113.934 10.5378C113.901 10.542 113.869 10.5458 113.836 10.5493C113.797 10.4718 113.758 10.3947 113.718 10.3181C113.754 10.3078 113.79 10.297 113.827 10.2856ZM113.895 10.132C113.942 10.1157 113.989 10.0983 114.036 10.0801C113.347 8.22099 112.214 6.53708 110.714 5.18596L107.841 2.59932C106.973 1.8183 105.871 1.4641 104.791 1.5232C104.64 1.69049 104.505 1.86842 104.385 2.05491C105.198 2.09509 106.009 2.36429 106.717 2.87854L109.844 5.15073C111.621 6.44125 113.009 8.16423 113.895 10.132ZM104.309 2.17648C105.122 2.20331 105.936 2.46525 106.644 2.97931L109.771 5.25149C111.526 6.52651 112.899 8.2279 113.776 10.1711C113.736 10.1832 113.697 10.1947 113.658 10.2055C112.567 8.17954 110.928 6.47651 108.903 5.30731L105.555 3.37448C105.058 3.08719 104.527 2.90968 103.991 2.83441C104.077 2.60706 104.184 2.38681 104.309 2.17648ZM104.24 2.05018C104.351 1.87111 104.476 1.69935 104.614 1.5366C104.413 1.55606 104.213 1.58988 104.016 1.63798C103.867 1.77887 103.73 1.92886 103.605 2.08644C103.815 2.05893 104.028 2.04675 104.24 2.05018ZM103.498 2.22792C103.719 2.19241 103.942 2.17438 104.166 2.17419C104.048 2.38087 103.947 2.59646 103.864 2.81849C103.625 2.79224 103.387 2.786 103.15 2.79913C103.25 2.60111 103.366 2.41 103.498 2.22792ZM103.427 2.11341C103.533 1.97171 103.647 1.83551 103.771 1.70577C103.609 1.75592 103.45 1.81602 103.294 1.88602C103.235 1.93375 103.176 1.98333 103.119 2.03476C103.047 2.09974 102.978 2.16665 102.911 2.23534C103.081 2.18422 103.253 2.14352 103.427 2.11341ZM102.74 2.42302C102.93 2.35462 103.125 2.30011 103.323 2.25975C103.203 2.43599 103.097 2.61983 103.006 2.80952C102.794 2.82835 102.584 2.86268 102.377 2.91203C102.485 2.74227 102.606 2.57877 102.74 2.42302ZM102.667 2.31699C102.727 2.24815 102.789 2.18081 102.854 2.11511C102.703 2.20602 102.556 2.30721 102.415 2.41863C102.498 2.38208 102.582 2.34819 102.667 2.31699ZM102.047 2.74519C102.195 2.65929 102.347 2.58286 102.503 2.51605C102.393 2.65805 102.293 2.8055 102.203 2.95742C102.033 3.00558 101.866 3.06406 101.703 3.13261C101.762 3.05728 101.824 2.98344 101.889 2.91123C101.941 2.85415 101.993 2.7988 102.047 2.74519ZM101.634 3.01886C101.493 3.12516 101.357 3.2412 101.228 3.36684C101.307 3.32178 101.387 3.27927 101.469 3.23934C101.521 3.16457 101.576 3.09103 101.634 3.01886ZM101.327 3.4544C101.178 3.53717 101.035 3.62913 100.897 3.73005C100.849 3.78897 100.802 3.8495 100.757 3.91162C100.7 3.99021 100.646 4.07012 100.595 4.15119C100.751 4.06593 100.911 3.99027 101.075 3.92459C101.148 3.76413 101.232 3.60707 101.327 3.4544ZM101.004 4.08937C100.818 4.16998 100.639 4.26386 100.467 4.37041C100.368 4.55059 100.284 4.73564 100.214 4.92405C100.406 4.83287 100.604 4.75561 100.807 4.69313C100.858 4.48853 100.923 4.28669 101.004 4.08937ZM100.946 4.65301C101.003 4.43855 101.076 4.22748 101.168 4.02195C101.376 3.94131 101.591 3.87718 101.81 3.83038C101.737 4.05722 101.683 4.28911 101.648 4.52352C101.41 4.54737 101.175 4.59092 100.946 4.65301ZM100.775 4.83394C100.562 4.90342 100.355 4.9897 100.156 5.09173C100.087 5.30566 100.035 5.52327 100.002 5.74245C100.223 5.65676 100.452 5.5889 100.686 5.54026C100.697 5.30348 100.726 5.06719 100.775 4.83394ZM100.812 5.51612C100.824 5.27309 100.858 5.03072 100.912 4.79192C101.146 4.72433 101.387 4.67676 101.631 4.65054C101.599 4.91592 101.592 5.18391 101.61 5.45084C101.339 5.44779 101.073 5.47016 100.812 5.51612ZM100.683 5.66837C100.442 5.72001 100.208 5.79247 99.9821 5.88417C99.953 6.12736 99.9453 6.3719 99.9585 6.61489C100.213 6.54196 100.476 6.49183 100.745 6.46664C100.7 6.20295 100.679 5.93564 100.683 5.66837ZM100.87 6.45679C100.823 6.18826 100.802 5.91579 100.808 5.64351C101.072 5.59504 101.344 5.5717 101.619 5.57555C101.649 5.88545 101.711 6.19315 101.807 6.49291L101.607 6.47193C101.358 6.44573 101.112 6.44119 100.87 6.45679ZM100.768 6.58963C100.493 6.61457 100.226 6.66618 99.9673 6.74206C99.9903 7.01344 100.039 7.28225 100.114 7.54443C100.353 7.50364 100.599 7.4824 100.849 7.4824L101.05 7.48239C100.923 7.19431 100.829 6.89481 100.768 6.58963ZM101.187 7.48239C101.054 7.19196 100.956 6.8891 100.893 6.58014C101.123 6.56615 101.357 6.5709 101.594 6.5958L101.851 6.62276C101.957 6.92 102.096 7.20846 102.269 7.48239H101.187ZM101.107 7.60695H100.849C100.611 7.60695 100.377 7.62671 100.15 7.66466C100.245 7.96528 100.375 8.25621 100.537 8.53118L101.613 8.41799C101.412 8.16372 101.244 7.89146 101.107 7.60695ZM101.761 8.40249C101.557 8.15396 101.385 7.88681 101.246 7.60695H102.351C102.46 7.76702 102.582 7.92166 102.715 8.06964L102.906 8.28213L101.761 8.40249ZM101.708 8.53331L100.609 8.64885C100.776 8.91265 100.975 9.16037 101.204 9.38619L102.33 9.14673L102.118 8.95533C101.97 8.82213 101.833 8.68105 101.708 8.53331ZM102.481 9.11472L102.201 8.86277C102.079 8.75293 101.965 8.63758 101.859 8.51744L103.009 8.39655L103.467 8.90513C103.462 8.90628 103.456 8.90743 103.451 8.90858L102.481 9.11472ZM102.445 9.24975L101.313 9.49027C101.431 9.59866 101.557 9.70146 101.69 9.79795L101.994 10.0193L102.937 9.71299C102.943 9.71123 102.948 9.70948 102.953 9.70773L102.445 9.24975ZM103.091 9.66408L102.595 9.21774L103.477 9.03041C103.506 9.02426 103.535 9.01822 103.564 9.01228L103.942 9.43232C103.656 9.49934 103.373 9.57658 103.091 9.66408ZM103.061 9.80421C103.032 9.81318 103.004 9.82226 102.976 9.83145L102.119 10.1098L102.659 10.5019C102.93 10.3854 103.204 10.2789 103.481 10.1824L103.061 9.80421ZM103.615 10.1363L103.199 9.76123C103.476 9.67683 103.756 9.60246 104.037 9.5381L104.371 9.90887C104.117 9.97655 103.865 10.0524 103.615 10.1363ZM103.586 10.2776C103.314 10.3711 103.043 10.4742 102.776 10.5872L103.229 10.9167C103.469 10.8071 103.712 10.7053 103.957 10.6115L103.586 10.2776ZM104.088 10.5621L103.722 10.2321C103.968 10.1512 104.215 10.0781 104.465 10.013L104.756 10.3365C104.532 10.4053 104.309 10.4805 104.088 10.5621ZM104.061 10.7052C103.82 10.7961 103.581 10.8947 103.345 11.0009L104.817 12.0701C105.472 12.5463 105.96 13.209 106.223 13.9637C106.225 13.9542 106.226 13.9446 106.228 13.9351C106.12 13.0164 105.682 12.1647 104.991 11.542L104.061 10.7052ZM106.18 14.2447C105.951 13.4147 105.447 12.6819 104.744 12.1709L103.215 11.0603C102.954 11.1817 102.696 11.3126 102.442 11.4529L104.627 12.7143C105.291 13.0981 105.824 13.6642 106.168 14.3376C106.172 14.3066 106.176 14.2756 106.18 14.2447ZM106.139 14.5667C105.813 13.8387 105.264 13.2262 104.564 12.8222L102.315 11.5237C102.289 11.5384 102.263 11.5533 102.238 11.5682L101.458 12.0183L104.505 13.3748C105.16 13.6666 105.718 14.129 106.124 14.7059C106.129 14.6594 106.134 14.6131 106.139 14.5667ZM106.106 14.9008C105.706 14.2847 105.135 13.7917 104.454 13.4885L101.325 12.0953L100.323 12.6737C100.469 12.7402 100.62 12.7992 100.776 12.8499L104.452 14.0444C105.082 14.2489 105.643 14.6064 106.091 15.0775C106.096 15.0186 106.1 14.9597 106.106 14.9008ZM106.08 15.2489C105.634 14.7503 105.061 14.3731 104.414 14.1629L100.737 12.9683C100.548 12.9068 100.366 12.8335 100.191 12.7496L99.2341 13.3023C99.6638 13.5877 100.154 13.7984 100.689 13.9122L104.47 14.7159C105.058 14.8409 105.604 15.0972 106.069 15.459C106.072 15.389 106.076 15.319 106.08 15.2489ZM106.19 15.5568C106.192 15.5001 106.195 15.4433 106.197 15.3865C106.199 15.3892 106.202 15.3918 106.204 15.3944C106.205 15.4536 106.206 15.5128 106.208 15.572C106.202 15.5669 106.196 15.5619 106.19 15.5568ZM106.064 15.6138C105.598 15.2335 105.044 14.9652 104.444 14.8378L100.663 14.0341C100.091 13.9124 99.5686 13.683 99.114 13.3716L98.8898 13.501C98.6837 13.6201 98.4914 13.7539 98.3135 13.9004C98.955 14.4865 99.7828 14.8801 100.713 14.9779L104.558 15.382C105.09 15.4379 105.6 15.6009 106.059 15.8556C106.06 15.775 106.061 15.6944 106.064 15.6138ZM106.183 15.9274C106.183 15.8575 106.184 15.7875 106.186 15.7176C106.195 15.7262 106.205 15.7349 106.215 15.7436C106.218 15.8138 106.222 15.8839 106.226 15.9539C106.212 15.945 106.197 15.9362 106.183 15.9274ZM106.058 15.9984C105.598 15.7323 105.083 15.5625 104.545 15.5059L100.7 15.1018C99.7366 15.0005 98.8799 14.591 98.2178 13.9816C98.0104 14.1631 97.8241 14.3623 97.6596 14.5755C98.4324 15.4695 99.5747 16.0353 100.849 16.0352H104.715C105.178 16.0352 105.634 16.1169 106.061 16.2723C106.059 16.1811 106.058 16.0898 106.058 15.9984ZM106.187 16.3205C106.185 16.2383 106.184 16.1561 106.183 16.0739C106.201 16.0852 106.219 16.0967 106.237 16.1084C106.243 16.1888 106.25 16.2692 106.257 16.3494C106.234 16.3396 106.211 16.3299 106.187 16.3205ZM106.065 16.4066C105.638 16.2449 105.181 16.1598 104.715 16.1598H100.849C99.5469 16.1598 98.3786 15.5861 97.5833 14.6776C97.4391 14.8769 97.3135 15.0876 97.2071 15.3067C98.0584 16.5144 99.5209 17.2379 101.095 17.0725L104.939 16.6684C105.323 16.6281 105.707 16.6446 106.079 16.7146C106.073 16.612 106.069 16.5093 106.065 16.4066ZM106.206 16.7404C106.2 16.646 106.195 16.5515 106.192 16.457C106.218 16.4682 106.245 16.4797 106.271 16.4915C106.281 16.5823 106.292 16.6729 106.303 16.7634C106.271 16.7553 106.238 16.7477 106.206 16.7404ZM106.087 16.843C105.717 16.7702 105.335 16.7521 104.952 16.7923L101.108 17.1963C99.5128 17.364 98.0289 16.6449 97.1468 15.4364C97.0558 15.6412 96.9814 15.8527 96.924 16.0688C97.813 17.6046 99.6179 18.4672 101.448 18.0783L105.229 17.2745C105.523 17.2121 105.82 17.1839 106.116 17.1889C106.105 17.0738 106.095 16.9584 106.087 16.843ZM106.242 17.1931C106.231 17.0856 106.222 16.9779 106.214 16.8701C106.25 16.8784 106.286 16.8872 106.321 16.8965C106.335 16.9983 106.351 17.0999 106.367 17.2013C106.325 17.1979 106.284 17.1951 106.242 17.1931ZM106.129 17.3138C105.838 17.3077 105.544 17.3348 105.255 17.3964L101.474 18.2001C99.6338 18.5912 97.8186 17.7533 96.882 16.2412C96.8384 16.4383 96.8088 16.6387 96.7938 16.8407C97.6867 18.7287 99.8647 19.7043 101.904 19.0418L105.58 17.8472C105.776 17.7836 105.976 17.7357 106.177 17.7036C106.159 17.5739 106.143 17.444 106.129 17.3138ZM106.3 17.6859C106.283 17.5637 106.268 17.4412 106.254 17.3185C106.299 17.3209 106.344 17.3241 106.389 17.3281C106.409 17.4422 106.43 17.556 106.453 17.6694C106.402 17.6739 106.351 17.6794 106.3 17.6859ZM106.194 17.8269C106 17.858 105.808 17.9042 105.619 17.9657L101.942 19.1603C99.9164 19.8185 97.7573 18.9061 96.7825 17.0946C96.7801 17.2643 96.7879 17.4345 96.8062 17.6046C96.8334 17.6756 96.8626 17.7463 96.8939 17.8166C97.8406 19.9428 100.332 20.899 102.458 19.9524L105.989 18.3801C106.081 18.3392 106.174 18.302 106.268 18.2685C106.241 18.1217 106.216 17.9745 106.194 17.8269ZM106.387 18.2281C106.362 18.0889 106.338 17.9492 106.318 17.8092C106.371 17.8024 106.425 17.7967 106.479 17.7922C106.506 17.9202 106.536 18.0478 106.567 18.1749C106.507 18.1912 106.447 18.2089 106.387 18.2281ZM106.292 18.3923C106.207 18.4231 106.123 18.4569 106.04 18.4939L102.508 20.0662C100.396 21.0067 97.9339 20.1229 96.8883 18.0928C96.98 18.492 97.1319 18.8845 97.3473 19.2577C98.5111 21.2733 101.088 21.9639 103.104 20.8001L106.401 18.8964C106.361 18.7291 106.325 18.561 106.292 18.3923ZM106.514 18.8321C106.476 18.6725 106.442 18.5123 106.411 18.3514C106.473 18.3312 106.535 18.3127 106.598 18.2957C106.635 18.4402 106.675 18.584 106.717 18.7272C106.649 18.7601 106.581 18.7951 106.514 18.8321ZM106.544 18.9578C106.821 20.0754 107.254 21.1586 107.84 22.1735L110.158 26.1887C111.2 27.9924 113.373 28.7351 115.263 28.0374C113.777 28.1872 112.254 27.5655 111.313 26.2705L108.588 22.5196C107.771 21.3945 107.155 20.1525 106.754 18.8479C106.683 18.8822 106.613 18.9189 106.544 18.9578ZM106.832 18.6745C106.889 18.6492 106.947 18.6253 107.005 18.6028C106.961 18.4797 106.918 18.3559 106.878 18.2314C106.824 18.2415 106.771 18.2528 106.719 18.2652C106.754 18.4023 106.792 18.5387 106.832 18.6745ZM106.688 18.1444C106.738 18.1326 106.789 18.1218 106.839 18.1119C106.804 18.0015 106.771 17.8906 106.739 17.7793C106.694 17.78 106.649 17.7815 106.605 17.7837C106.631 17.9044 106.658 18.0246 106.688 18.1444ZM106.579 17.6604C106.621 17.658 106.663 17.6564 106.705 17.6554C106.677 17.5562 106.651 17.4568 106.627 17.3569C106.59 17.3514 106.554 17.3463 106.518 17.3418C106.537 17.4483 106.557 17.5545 106.579 17.6604ZM106.496 17.2138C106.529 17.2176 106.562 17.2218 106.595 17.2264C106.574 17.1377 106.554 17.0487 106.535 16.9594C106.507 16.9504 106.48 16.9418 106.452 16.9334C106.465 17.027 106.48 17.1205 106.496 17.2138ZM106.433 16.7981C106.458 16.8051 106.482 16.8122 106.506 16.8196C106.49 16.7407 106.475 16.6616 106.461 16.5823C106.442 16.5725 106.423 16.5629 106.403 16.5535C106.413 16.6352 106.423 16.7167 106.433 16.7981ZM106.388 16.4079C106.403 16.4151 106.419 16.4224 106.434 16.4298C106.422 16.3606 106.411 16.2913 106.401 16.2219C106.39 16.2141 106.379 16.2065 106.369 16.1989C106.375 16.2686 106.381 16.3383 106.388 16.4079ZM106.357 16.0385C106.363 16.0429 106.37 16.0474 106.376 16.0518C106.368 15.9931 106.36 15.9343 106.353 15.8755C106.351 15.8731 106.348 15.8706 106.346 15.8682C106.349 15.925 106.353 15.9818 106.357 16.0385ZM106.544 16.3321C106.553 16.3882 106.563 16.4443 106.572 16.5003C106.579 16.504 106.586 16.5078 106.593 16.5116C106.579 16.4541 106.566 16.3965 106.552 16.3388C106.549 16.3365 106.547 16.3343 106.544 16.3321ZM106.636 16.6782C106.624 16.6715 106.613 16.665 106.601 16.6585C106.614 16.7271 106.628 16.7957 106.642 16.8641C106.658 16.8697 106.674 16.8753 106.69 16.8811C106.672 16.8136 106.653 16.746 106.636 16.6782ZM106.836 16.9368C106.82 16.8823 106.805 16.8276 106.79 16.7728C106.793 16.7747 106.796 16.7766 106.798 16.7785C106.818 16.8344 106.837 16.8902 106.857 16.9458C106.85 16.9427 106.843 16.9398 106.836 16.9368ZM106.733 17.03C106.713 17.0223 106.693 17.0147 106.673 17.0073C106.69 17.0875 106.709 17.1675 106.728 17.2473C106.753 17.2517 106.778 17.2563 106.803 17.2612C106.779 17.1844 106.755 17.1073 106.733 17.03ZM106.943 17.2911C106.922 17.2246 106.901 17.158 106.881 17.0911C106.893 17.0963 106.905 17.1016 106.917 17.107C106.942 17.1726 106.967 17.2379 106.992 17.303C106.976 17.2989 106.96 17.295 106.943 17.2911ZM106.846 17.3972C106.818 17.3911 106.789 17.3853 106.761 17.3799C106.784 17.4717 106.808 17.5632 106.834 17.6544C106.867 17.6547 106.901 17.6554 106.934 17.6566C106.904 17.5705 106.875 17.484 106.846 17.3972ZM107.069 17.6635C107.041 17.5861 107.014 17.5084 106.988 17.4304C107.009 17.4356 107.03 17.441 107.05 17.4466C107.081 17.5212 107.112 17.5955 107.144 17.6694C107.119 17.6672 107.094 17.6653 107.069 17.6635ZM106.979 17.7831C106.942 17.7814 106.906 17.7802 106.869 17.7795C106.899 17.8834 106.93 17.9868 106.963 18.0899C107.004 18.0832 107.046 18.0771 107.088 18.0717C107.05 17.976 107.014 17.8798 106.979 17.7831ZM107.216 18.0573C107.181 17.9693 107.148 17.8808 107.115 17.792C107.144 17.7944 107.173 17.7971 107.202 17.8002C107.239 17.8835 107.277 17.9665 107.316 18.049C107.283 18.0513 107.249 18.0541 107.216 18.0573ZM107.135 18.1913C107.091 18.1967 107.046 18.2029 107.002 18.2098C107.04 18.3271 107.08 18.4438 107.122 18.5598C107.171 18.5428 107.22 18.5267 107.269 18.5117C107.223 18.4055 107.178 18.2987 107.135 18.1913ZM107.39 18.4768C107.347 18.3778 107.305 18.2781 107.264 18.178C107.301 18.1748 107.337 18.1722 107.374 18.1701C107.419 18.2625 107.465 18.3544 107.512 18.4457C107.471 18.4555 107.431 18.4658 107.39 18.4768ZM107.441 18.5921C108.139 20.1473 109.158 21.5565 110.449 22.7192L113.895 25.8215C114.762 26.6024 115.865 26.9567 116.945 26.8976C117.095 26.7303 117.23 26.5524 117.35 26.3658C116.537 26.3256 115.726 26.0564 115.019 25.5422L111.268 22.8171C109.713 21.6874 108.455 20.2263 107.572 18.5597C107.528 18.5697 107.485 18.5805 107.441 18.5921ZM107.699 18.533C108.572 20.1698 109.811 21.605 111.341 22.7163L115.092 25.4415C115.799 25.9554 116.613 26.2174 117.426 26.2443C117.551 26.0339 117.658 25.8136 117.744 25.5862C117.209 25.5109 116.678 25.3334 116.181 25.0462L112.165 22.7281C110.372 21.6929 108.882 20.2393 107.807 18.5137C107.771 18.5196 107.735 18.526 107.699 18.533ZM107.638 18.418C107.671 18.4114 107.704 18.4051 107.737 18.3993C107.689 18.3213 107.643 18.2428 107.597 18.1638C107.568 18.1637 107.539 18.164 107.51 18.1647C107.552 18.2496 107.594 18.3341 107.638 18.418ZM107.45 18.0418C107.476 18.0409 107.501 18.0402 107.526 18.0398C107.487 17.9696 107.448 17.899 107.41 17.828C107.389 17.8246 107.367 17.8214 107.346 17.8183C107.38 17.8932 107.415 17.9677 107.45 18.0418ZM107.287 17.6846C107.303 17.6867 107.32 17.6889 107.337 17.6912C107.305 17.6291 107.273 17.5666 107.241 17.5039C107.229 17.4998 107.216 17.4958 107.204 17.4918C107.231 17.5563 107.259 17.6206 107.287 17.6846ZM107.143 17.3432C107.15 17.3453 107.158 17.3475 107.165 17.3498C107.14 17.2966 107.114 17.2433 107.089 17.1898C107.086 17.1882 107.083 17.1866 107.08 17.185C107.101 17.2379 107.121 17.2906 107.143 17.3432ZM107.412 17.5644C107.438 17.615 107.464 17.6653 107.491 17.7155C107.498 17.7169 107.506 17.7183 107.514 17.7197C107.483 17.6695 107.452 17.619 107.422 17.5683C107.418 17.567 107.415 17.5657 107.412 17.5644ZM107.606 17.8651C107.593 17.8623 107.58 17.8596 107.567 17.857C107.601 17.9183 107.635 17.9793 107.67 18.04C107.687 18.0403 107.704 18.0407 107.721 18.0413C107.682 17.9829 107.644 17.9242 107.606 17.8651ZM107.876 18.0494C107.844 18.0023 107.813 17.955 107.782 17.9075C107.785 17.9084 107.788 17.9094 107.792 17.9103C107.827 17.9575 107.863 18.0045 107.9 18.0512C107.892 18.0505 107.884 18.05 107.876 18.0494ZM107.807 18.1698C107.786 18.1686 107.764 18.1676 107.743 18.1667C107.785 18.2376 107.827 18.3081 107.87 18.3781C107.895 18.3745 107.92 18.3712 107.945 18.3682C107.898 18.3025 107.852 18.2364 107.807 18.1698ZM108.029 18.4841C108 18.4871 107.971 18.4904 107.942 18.4941C109.004 20.1823 110.469 21.6046 112.228 22.6202L116.243 24.9384C116.734 25.222 117.259 25.3955 117.788 25.4664C117.877 25.2091 117.942 24.9435 117.98 24.6736C117.746 24.6137 117.513 24.5332 117.284 24.4314L113.049 22.5456C111.031 21.6473 109.306 20.2393 108.029 18.4841ZM118.102 24.7028C118.064 24.9676 118.001 25.2284 117.915 25.4815C118.159 25.5067 118.405 25.5103 118.648 25.4928C118.75 25.2705 118.833 25.0402 118.896 24.805C118.632 24.7957 118.366 24.7621 118.102 24.7028ZM118.118 24.5787C118.387 24.6398 118.658 24.6736 118.927 24.6813C118.989 24.416 119.025 24.1452 119.035 23.8727C118.796 23.8376 118.556 23.782 118.318 23.7047L118.125 23.6422C118.157 23.9554 118.154 24.2695 118.118 24.5787ZM118.585 25.6216C118.348 25.6347 118.11 25.6284 117.872 25.6022C117.789 25.8242 117.687 26.0399 117.569 26.2466C117.793 26.2464 118.017 26.2284 118.237 26.1929C118.369 26.0108 118.485 25.8197 118.585 25.6216ZM118.13 26.3344C117.92 26.3619 117.707 26.374 117.495 26.3706C117.384 26.5497 117.259 26.7215 117.121 26.8843C117.322 26.8648 117.522 26.831 117.719 26.7829C117.868 26.642 118.006 26.492 118.13 26.3344ZM109.47 18.7899C111.47 20.1003 113.823 20.8135 116.25 20.8135H116.787L116.533 20.3734C114.062 20.5549 111.606 19.9969 109.47 18.7899ZM109.954 18.9098C111.949 19.9371 114.199 20.4087 116.464 20.2535L116.246 19.8758C114.097 20.1028 111.929 19.7677 109.954 18.9098ZM116.381 19.8608L116.602 20.2433C116.705 20.235 116.808 20.2255 116.911 20.2146L117.445 20.1586L117.146 19.7475C116.892 19.7933 116.636 19.831 116.381 19.8608ZM117.065 19.6354C116.815 19.6791 116.564 19.7151 116.313 19.7432L116.12 19.4093C116.35 19.3736 116.58 19.3314 116.808 19.2827L117.065 19.6354ZM117.282 19.7223L117.588 20.1435L118.572 20.0401L118.127 19.5453L117.532 19.6718C117.449 19.6895 117.365 19.7063 117.282 19.7223ZM118.031 19.4385L117.506 19.5499C117.404 19.5715 117.303 19.5918 117.201 19.6108L116.941 19.2537C117.192 19.1973 117.442 19.1331 117.691 19.0609L118.031 19.4385ZM118.267 19.5154L118.725 20.024L119.876 19.903C119.77 19.783 119.656 19.6678 119.534 19.558L119.254 19.3057L118.267 19.5154ZM119.14 19.2027L118.171 19.4085L117.823 19.0217C117.904 18.9971 117.985 18.9716 118.066 18.9453L118.645 18.7573L119.14 19.2027ZM119.405 19.2737L119.618 19.4655C119.766 19.5986 119.902 19.7395 120.027 19.8871L121.127 19.7716C120.959 19.5078 120.761 19.26 120.531 19.0342L119.405 19.2737ZM120.422 18.9301L119.29 19.1707L118.782 18.7128L119.741 18.4012L120.046 18.6228C120.179 18.7192 120.304 18.8219 120.422 18.9301ZM120.677 19.0034C120.903 19.2352 121.099 19.4884 121.265 19.7571L121.522 19.73C121.759 19.7051 121.989 19.6611 122.211 19.5996C122.085 19.3106 121.926 19.0347 121.736 18.7782L120.677 19.0034ZM121.652 18.6687L120.571 18.8986C120.431 18.7649 120.28 18.639 120.119 18.522L119.887 18.3536L120.983 17.9977C121.234 18.1983 121.458 18.4239 121.652 18.6687ZM121.869 18.7498C122.053 19.0052 122.208 19.2786 122.331 19.5644C122.595 19.4829 122.846 19.3768 123.083 19.2488C123.004 18.9881 122.9 18.7354 122.773 18.4945C122.548 18.584 122.312 18.6558 122.067 18.7078L121.869 18.7498ZM122.712 18.3844C122.498 18.4687 122.274 18.5365 122.041 18.586L121.788 18.6399C121.595 18.3899 121.373 18.1587 121.124 17.9519L122.154 17.6171C122.37 17.8524 122.557 18.1101 122.712 18.3844ZM122.888 18.4466C123.013 18.6834 123.115 18.9312 123.194 19.1865C123.407 19.0631 123.608 18.9217 123.794 18.7647C123.747 18.5245 123.678 18.2895 123.591 18.0625C123.371 18.2105 123.137 18.3394 122.888 18.4466ZM123.543 17.9443C123.321 18.0963 123.082 18.2282 122.829 18.3367C122.676 18.0654 122.494 17.8097 122.284 17.5749L122.476 17.5126C122.714 17.4352 122.941 17.3391 123.156 17.2265C123.308 17.4528 123.437 17.6933 123.543 17.9443ZM123.696 17.9893C123.783 18.2098 123.852 18.4377 123.902 18.6707C124.068 18.5205 124.223 18.3574 124.363 18.1833C124.339 17.9597 124.298 17.74 124.239 17.5261C124.072 17.6943 123.89 17.8495 123.696 17.9893ZM124.199 17.3887C124.03 17.5643 123.846 17.7258 123.647 17.8708C123.542 17.6251 123.414 17.3893 123.265 17.1668C123.501 17.0343 123.721 16.8816 123.924 16.7115C124.035 16.9282 124.127 17.1547 124.199 17.3887ZM123.864 16.599C123.733 16.3604 123.578 16.1348 123.404 15.9256C123.202 16.0601 122.986 16.1794 122.757 16.2813L122.573 16.3632C122.806 16.5747 123.014 16.81 123.195 17.0638C123.435 16.9294 123.659 16.7734 123.864 16.599ZM123.084 17.1234C122.901 16.8669 122.688 16.6301 122.449 16.4187L121.459 16.8592C121.729 17.0389 121.973 17.2457 122.191 17.4742L122.437 17.3942C122.664 17.3206 122.88 17.2297 123.084 17.1234ZM122.059 17.517C121.84 17.2938 121.595 17.0928 121.324 16.9196L120.271 17.3881L120.519 17.5314C120.692 17.6308 120.854 17.7403 121.008 17.8587L122.059 17.517ZM120.863 17.9056C120.734 17.8103 120.599 17.7212 120.457 17.6392L120.131 17.4508L119.209 17.8609L119.763 18.2631L120.863 17.9056ZM119.616 18.3107L119.078 17.9194L118.522 18.167C118.444 18.2016 118.366 18.2353 118.288 18.2682L118.675 18.6166L119.616 18.3107ZM118.538 18.661L118.161 18.3211C117.921 18.4188 117.679 18.5089 117.435 18.5912L117.731 18.9193C117.83 18.8898 117.929 18.859 118.028 18.8269L118.538 18.661ZM117.598 18.958L117.306 18.634C117.084 18.7063 116.86 18.7723 116.635 18.8319L116.861 19.1438C117.108 19.0896 117.354 19.0276 117.598 18.958ZM116.728 19.1723L116.505 18.8654C116.3 18.9173 116.094 18.964 115.887 19.0053L116.053 19.2935C116.279 19.2594 116.504 19.2191 116.728 19.1723ZM115.921 19.3129L115.758 19.0304C114.172 19.3297 112.541 19.3197 110.955 18.998C112.571 19.4377 114.26 19.5454 115.921 19.3129ZM111.456 18.9628C112.861 19.191 114.294 19.1748 115.692 18.9161L115.553 18.6765C114.216 18.9964 112.832 19.0943 111.456 18.9628ZM115.679 18.6457L115.821 18.8914C116.024 18.8516 116.226 18.8068 116.426 18.7568L116.235 18.493C116.051 18.5482 115.865 18.5991 115.679 18.6457ZM116.157 18.3862C115.977 18.4394 115.796 18.4885 115.614 18.5334L115.247 17.8971C114.825 17.1666 114.66 16.3215 114.768 15.4943C114.826 16.2097 115.079 16.9021 115.508 17.4924L116.157 18.3862ZM116.361 18.4545L116.556 18.7237C116.777 18.6662 116.997 18.6025 117.215 18.5326L116.961 18.2507C116.762 18.3238 116.562 18.3917 116.361 18.4545ZM116.871 18.1509C116.677 18.2216 116.481 18.2873 116.283 18.348L115.608 17.4192C115.113 16.7366 114.859 15.9133 114.88 15.0791C115.013 15.7847 115.337 16.447 115.825 16.9893L116.871 18.1509ZM117.086 18.2038L117.344 18.4903C117.584 18.4105 117.822 18.3232 118.058 18.2284L117.734 17.9367C117.52 18.0319 117.304 18.121 117.086 18.2038ZM117.632 17.8454C117.423 17.9378 117.211 18.0241 116.997 18.1044L115.918 16.906C115.356 16.2818 115.019 15.4937 114.95 14.6661L114.951 14.6611C115.158 15.3465 115.548 15.9689 116.089 16.4557L117.632 17.8454ZM117.858 17.8806L118.186 18.1761C118.281 18.1364 118.376 18.0954 118.471 18.0532L118.961 17.8349L118.55 17.5363C118.322 17.6585 118.091 17.7733 117.858 17.8806ZM118.438 17.4549C118.214 17.5738 117.987 17.6854 117.757 17.7898L116.172 16.3632C115.59 15.839 115.188 15.1527 115.01 14.4006C115.015 14.3804 115.019 14.3602 115.023 14.34C115.303 14.955 115.739 15.4935 116.295 15.8976L118.438 17.4549ZM118.672 17.4704L119.093 17.7764L119.997 17.3738L119.421 17.0409L118.893 17.3454C118.82 17.3879 118.746 17.4295 118.672 17.4704ZM119.296 16.969L118.831 17.2375C118.741 17.2894 118.651 17.34 118.56 17.3894L116.368 15.7969C115.781 15.37 115.332 14.7883 115.067 14.1245C115.073 14.0904 115.08 14.0563 115.086 14.0222C115.424 14.5531 115.887 15.0006 116.442 15.3211L119.296 16.969ZM119.545 16.969L120.138 17.3112L121.195 16.8405C121.057 16.7591 120.913 16.6847 120.763 16.618L120.419 16.4647L119.545 16.969ZM120.278 16.4021L119.421 16.8971L116.504 15.2132C115.926 14.8793 115.45 14.4029 115.119 13.8366C115.126 13.7911 115.134 13.7456 115.141 13.7001C115.518 14.1383 115.99 14.4927 116.528 14.7322L120.278 16.4021ZM120.552 16.3877L120.814 16.5042C120.995 16.5851 121.169 16.677 121.334 16.7787L122.344 16.329C122.103 16.1299 121.837 15.9557 121.55 15.8117L120.552 16.3877ZM121.413 15.7466L120.411 16.3251L116.578 14.6184C116.023 14.3714 115.541 13.9983 115.166 13.5353C115.174 13.4796 115.181 13.4239 115.188 13.3682C115.583 13.71 116.045 13.9733 116.551 14.1377L120.961 15.5704C121.117 15.6211 121.268 15.68 121.413 15.7466ZM121.678 15.7376C121.965 15.8881 122.23 16.0682 122.47 16.2726L122.707 16.1675C122.924 16.0706 123.129 15.9576 123.322 15.8305C123.112 15.5946 122.876 15.3814 122.616 15.1961L121.678 15.7376ZM122.502 15.1179L121.545 15.6706C121.371 15.5867 121.188 15.5134 120.999 15.4519L116.59 14.0192C116.072 13.8512 115.602 13.5764 115.207 13.2182C115.214 13.1528 115.222 13.0873 115.228 13.0218C115.618 13.2681 116.053 13.4462 116.513 13.544L121.048 14.508C121.583 14.6217 122.073 14.8325 122.502 15.1179ZM115.111 12.9447C115.099 12.9369 115.088 12.9291 115.077 12.9212C115.075 12.9772 115.074 13.0333 115.071 13.0895C115.079 13.0968 115.086 13.1041 115.094 13.1114C115.1 13.0558 115.105 13.0003 115.111 12.9447ZM115.076 13.2667C115.072 13.2631 115.068 13.2595 115.064 13.2559C115.062 13.3019 115.059 13.3479 115.056 13.3939L115.059 13.3974C115.065 13.3539 115.07 13.3103 115.076 13.2667ZM114.951 12.9635C114.952 12.9196 114.953 12.8758 114.954 12.832C114.95 12.8288 114.946 12.8257 114.941 12.8225C114.944 12.8684 114.946 12.9144 114.948 12.9604L114.951 12.9635ZM114.091 11.4111C114.075 11.3704 114.058 11.3299 114.04 11.2894C114.035 11.2883 114.03 11.2871 114.025 11.2859C114.047 11.327 114.067 11.3682 114.088 11.4095L114.091 11.4111ZM113.949 11.1381C113.959 11.1408 113.968 11.1434 113.978 11.1459C113.956 11.0948 113.933 11.0438 113.91 10.993C113.896 10.992 113.883 10.9909 113.869 10.9897C113.896 11.039 113.922 11.0885 113.949 11.1381ZM113.718 10.9739C113.739 11.0122 113.76 11.0507 113.781 11.0893L113.778 11.0881C113.753 11.0493 113.728 11.0105 113.703 10.972C113.708 10.9726 113.713 10.9733 113.718 10.9739ZM113.796 10.8575C113.814 10.8595 113.832 10.8613 113.85 10.8629C113.821 10.8021 113.792 10.7415 113.762 10.6812C113.741 10.683 113.719 10.6846 113.698 10.686C113.731 10.7429 113.763 10.8001 113.796 10.8575ZM113.557 10.6927C113.586 10.7408 113.614 10.7892 113.641 10.8377C113.631 10.8362 113.621 10.8346 113.611 10.833C113.58 10.7864 113.548 10.7399 113.516 10.6937C113.53 10.6935 113.544 10.6931 113.557 10.6927ZM113.626 10.5653C113.652 10.5641 113.677 10.5626 113.702 10.5608C113.667 10.4905 113.631 10.4205 113.594 10.3509C113.565 10.358 113.537 10.3647 113.508 10.3712C113.548 10.4355 113.587 10.5002 113.626 10.5653ZM113.378 10.398C113.414 10.4549 113.449 10.5121 113.484 10.5697C113.466 10.5699 113.448 10.57 113.43 10.5699C113.391 10.5161 113.353 10.4627 113.314 10.4096C113.335 10.4059 113.357 10.4021 113.378 10.398ZM113.437 10.2591C113.469 10.2523 113.501 10.2451 113.533 10.2374C112.454 8.24359 110.837 6.5675 108.841 5.41518L105.493 3.48235C105.002 3.19861 104.477 3.02511 103.947 2.95418C103.858 3.21136 103.793 3.47682 103.755 3.74659C103.99 3.80654 104.223 3.88705 104.452 3.98902L107.983 5.56133C110.239 6.56579 112.129 8.20743 113.437 10.2591ZM103.739 3.87113C103.962 3.92894 104.184 4.0059 104.401 4.10281L107.933 5.67512C110.151 6.66279 112.012 8.27272 113.306 10.2846C113.281 10.289 113.256 10.2931 113.231 10.297C111.697 8.25152 109.56 6.71092 107.095 5.91017L103.739 4.81977C103.703 4.5027 103.703 4.18444 103.739 3.87113ZM103.633 3.71743C103.672 3.45275 103.734 3.19215 103.821 2.93918C103.576 2.91395 103.33 2.91045 103.087 2.92792C102.985 3.15017 102.902 3.38031 102.839 3.61545C103.104 3.62463 103.369 3.65822 103.633 3.71743ZM102.808 3.73912C103.077 3.74676 103.348 3.78042 103.617 3.84148C103.581 4.15059 103.578 4.46448 103.61 4.77758L103.419 4.71561C103.18 4.63811 102.94 4.58239 102.7 4.54734C102.71 4.27501 102.746 4.00425 102.808 3.73912ZM102.711 3.6129C102.77 3.38346 102.849 3.15851 102.945 2.94059C102.722 2.96422 102.502 3.00554 102.286 3.06394C102.173 3.25878 102.078 3.46095 101.999 3.66829C102.233 3.63047 102.472 3.6117 102.711 3.6129ZM101.951 3.80288C102.191 3.7601 102.435 3.73794 102.681 3.73744C102.622 3.99804 102.586 4.26379 102.576 4.53106C102.307 4.49977 102.04 4.49414 101.776 4.51265C101.813 4.27224 101.872 4.03468 101.951 3.80288ZM101.758 4.63888C101.724 4.90905 101.716 5.18215 101.735 5.45407C101.977 5.46383 102.222 5.49412 102.467 5.54626L102.663 5.58794C102.599 5.27983 102.569 4.96733 102.573 4.65613C102.299 4.62351 102.026 4.61834 101.758 4.63888ZM102.697 4.67286C102.695 4.98817 102.728 5.30475 102.797 5.61633L103.856 5.84147C103.743 5.53752 103.667 5.22641 103.625 4.91372L103.38 4.83407C103.154 4.76042 102.925 4.70702 102.697 4.67286ZM103.757 4.95656C103.803 5.26567 103.884 5.57282 104.001 5.8723L106.248 6.34998C108.895 6.91245 111.27 8.31424 113.035 10.3222C113.053 10.3203 113.071 10.3184 113.089 10.3162C111.573 8.31878 109.474 6.81414 107.057 6.02863L103.757 4.95656ZM113.175 10.4309C113.161 10.4328 113.148 10.4346 113.134 10.4363C113.171 10.4789 113.207 10.5217 113.243 10.5649C113.253 10.5654 113.264 10.5659 113.274 10.5663C113.241 10.521 113.208 10.4758 113.175 10.4309ZM113.364 10.6938C113.359 10.6937 113.354 10.6936 113.349 10.6934C113.378 10.7292 113.407 10.7651 113.435 10.8012L113.439 10.802C113.415 10.7658 113.39 10.7297 113.364 10.6938ZM113.069 10.5519C113.041 10.5185 113.012 10.4853 112.983 10.4522C112.978 10.4526 112.973 10.4531 112.968 10.4535C113 10.486 113.033 10.5186 113.065 10.5515L113.069 10.5519ZM112.849 10.3367C112.859 10.3361 112.87 10.3355 112.88 10.3349C111.139 8.38414 108.812 7.02217 106.222 6.47181L104.059 6.01188C104.122 6.15909 104.195 6.3042 104.278 6.44651L104.466 6.77235L105.452 6.876C108.25 7.17004 110.851 8.39723 112.849 10.3367ZM104.543 6.90568L105.439 6.99987C108.168 7.28672 110.708 8.47048 112.675 10.342H112.67C110.482 8.53534 107.734 7.52032 104.876 7.48344L104.543 6.90568ZM104.313 6.75625L104.17 6.50878C104.07 6.33624 103.984 6.15969 103.91 5.98031L102.829 5.75049C102.907 6.05318 103.019 6.35025 103.167 6.63585L104.313 6.75625ZM103.239 6.76865L104.39 6.88959L104.732 7.48241C104.726 7.4824 104.72 7.48239 104.715 7.48239L103.723 7.4824L103.502 7.17792C103.405 7.04501 103.318 6.90835 103.239 6.76865ZM103.02 6.62035C102.876 6.3298 102.767 6.02834 102.693 5.72167L102.441 5.6681C102.208 5.61854 101.975 5.58931 101.745 5.57919C101.776 5.89305 101.841 6.2045 101.943 6.50718L103.02 6.62035ZM101.989 6.63725L103.088 6.75278C103.18 6.92346 103.284 7.08997 103.401 7.25113L103.569 7.4824H102.418C102.241 7.21384 102.098 6.93016 101.989 6.63725ZM102.503 7.60695C102.596 7.73758 102.697 7.86426 102.807 7.9863L103.059 8.26604L104.045 8.1624C104.051 8.16181 104.056 8.16123 104.062 8.16065L103.66 7.60695H102.503ZM103.814 7.60695L104.206 8.14657C104.5 8.11952 104.793 8.10296 105.086 8.09673L104.804 7.60727C104.774 7.60706 104.744 7.60695 104.715 7.60695H103.814ZM104.949 7.60916L105.229 8.09451C107.74 8.06983 110.201 8.80264 112.29 10.1971C110.194 8.57433 107.622 7.65968 104.949 7.60916ZM111.86 10.0692C109.892 8.85154 107.619 8.20898 105.301 8.21857L105.547 8.64554C107.734 8.55767 109.913 9.046 111.86 10.0692ZM105.407 8.65196L105.158 8.21999C104.869 8.22452 104.58 8.23914 104.291 8.26402L104.621 8.71737C104.882 8.68723 105.145 8.66544 105.407 8.65196ZM104.705 8.83326C104.962 8.80514 105.22 8.78515 105.477 8.77324L105.695 9.15022C105.461 9.17094 105.227 9.19828 104.995 9.23225L104.705 8.83326ZM104.479 8.73448L104.147 8.27729C104.117 8.28018 104.088 8.28317 104.058 8.28627L103.162 8.38045L103.609 8.87611C103.898 8.8185 104.188 8.77132 104.479 8.73448ZM103.706 8.98399C103.991 8.92903 104.276 8.88428 104.563 8.84963L104.856 9.25328C104.597 9.2941 104.338 9.34317 104.081 9.40052L103.706 8.98399ZM104.177 9.50698L104.507 9.87347C104.735 9.81536 104.964 9.76378 105.194 9.71873L104.938 9.36658C104.683 9.40534 104.429 9.45212 104.177 9.50698ZM105.077 9.34623L105.329 9.69305C105.536 9.655 105.743 9.6222 105.951 9.59465L105.763 9.2693C105.534 9.28853 105.306 9.31416 105.077 9.34623ZM105.901 9.25853L106.085 9.57763C107.718 9.37924 109.383 9.50403 110.982 9.95456C109.351 9.36858 107.619 9.13359 105.901 9.25853ZM110.537 9.96626C109.098 9.61372 107.613 9.52392 106.153 9.69498L106.21 9.79427C106.243 9.85124 106.275 9.90888 106.305 9.96714C107.697 9.72752 109.129 9.72453 110.537 9.96626ZM106.176 9.98993C106.152 9.94507 106.128 9.90061 106.103 9.85655L106.019 9.71146C105.815 9.73754 105.613 9.76868 105.411 9.80488L105.627 10.103C105.809 10.0612 105.992 10.0235 106.176 9.98993ZM105.707 10.2126C105.882 10.1732 106.058 10.1377 106.234 10.1059C106.605 10.8727 106.708 11.7426 106.527 12.5765C106.517 11.7651 106.257 10.9705 105.774 10.3053L105.707 10.2126ZM105.496 10.1339L105.275 9.82998C105.049 9.87304 104.824 9.92243 104.601 9.97816L104.888 10.2968C105.089 10.2373 105.292 10.1831 105.496 10.1339ZM104.98 10.3995C105.177 10.3424 105.376 10.2902 105.575 10.2431L105.673 10.3785C106.233 11.1483 106.483 12.0972 106.38 13.0387C106.286 12.233 105.944 11.47 105.394 10.859L104.98 10.3995ZM104.848 10.4386C104.628 10.505 104.41 10.5776 104.193 10.6564L105.074 11.4494C105.685 11.9993 106.104 12.7221 106.282 13.5133C106.286 12.5665 105.938 11.6493 105.301 10.9424L104.848 10.4386ZM109.631 18.5222C111.568 19.0087 113.576 19.0153 115.488 18.5639L115.139 17.9594C114.616 17.0538 114.475 15.9776 114.745 14.9675C114.752 14.9433 114.758 14.919 114.765 14.8948C114.773 14.7825 114.785 14.6701 114.803 14.5581C114.807 14.5331 114.811 14.5082 114.815 14.4832C114.811 14.3708 114.812 14.2579 114.818 14.1447C114.819 14.1192 114.821 14.0936 114.822 14.068C114.806 13.957 114.796 13.8449 114.79 13.732C114.788 13.7068 114.787 13.6816 114.786 13.6564C114.759 13.5472 114.736 13.4366 114.718 13.3246C114.714 13.2997 114.71 13.2747 114.706 13.2497C114.668 13.1441 114.634 13.0364 114.605 12.927C114.598 12.9023 114.591 12.8777 114.585 12.8531C114.536 12.7522 114.491 12.6488 114.45 12.5433C114.441 12.5194 114.432 12.4957 114.423 12.4719C114.363 12.3767 114.308 12.2786 114.257 12.1779C114.245 12.1554 114.234 12.133 114.222 12.1107C114.153 12.0219 114.087 11.9299 114.026 11.8348C114.012 11.8139 113.998 11.7931 113.985 11.7723C113.906 11.691 113.831 11.6062 113.76 11.5178C113.744 11.4985 113.728 11.4792 113.713 11.46C113.626 11.3873 113.543 11.3108 113.462 11.2304C113.445 11.2125 113.427 11.1947 113.409 11.1769C113.316 11.1139 113.225 11.0467 113.137 10.9755C113.117 10.9594 113.097 10.9433 113.077 10.9274C112.978 10.8746 112.881 10.8174 112.787 10.7559C112.766 10.7423 112.745 10.7287 112.723 10.7152C112.619 10.6728 112.516 10.6259 112.415 10.5743C112.393 10.5629 112.37 10.5516 112.348 10.5404C112.24 10.5092 112.132 10.4733 112.026 10.4326C112.003 10.4237 111.98 10.4148 111.956 10.406C111.845 10.3863 111.735 10.3617 111.625 10.3323C109.892 9.86801 108.097 9.79047 106.362 10.0837C106.758 10.9242 106.847 11.8817 106.604 12.7861C106.547 12.9999 106.496 13.2147 106.45 13.4302C106.428 13.585 106.409 13.7399 106.393 13.895C106.387 14.0507 106.384 14.2063 106.384 14.3616C106.395 14.5189 106.409 14.6758 106.425 14.8321C106.452 14.9864 106.482 15.1399 106.514 15.2926C106.557 15.4428 106.603 15.5919 106.651 15.7399C106.709 15.8854 106.77 16.0295 106.834 16.1722C106.908 16.3117 106.984 16.4495 107.063 16.5855C107.151 16.7163 107.241 16.8452 107.333 16.9722C107.434 17.0925 107.537 17.2106 107.641 17.3266C107.753 17.435 107.867 17.541 107.982 17.6447C108.105 17.741 108.229 17.8347 108.355 17.9259C108.489 18.0102 108.625 18.0917 108.762 18.1705C108.902 18.2394 109.044 18.3055 109.187 18.3689C109.334 18.4229 109.482 18.474 109.631 18.5222ZM111.426 9.98983C109.616 9.11592 107.621 8.69768 105.618 8.76754L105.832 9.13881C107.729 8.99166 109.644 9.27926 111.426 9.98983ZM110.455 18.981C112.269 19.6856 114.23 19.9545 116.177 19.7577L115.988 19.4291C114.134 19.6964 112.242 19.5433 110.455 18.981ZM101.857 3.69369C101.648 3.73456 101.443 3.79064 101.243 3.86127C101.332 3.68123 101.435 3.50603 101.552 3.33717C101.735 3.24923 101.923 3.17465 102.115 3.11384C102.014 3.30162 101.928 3.49549 101.857 3.69369ZM124.339 17.422C124.484 17.2662 124.617 17.1003 124.738 16.9256C124.771 17.1237 124.791 17.3259 124.796 17.5311C124.7 17.7095 124.591 17.8805 124.471 18.0428C124.443 17.8317 124.398 17.6242 124.339 17.422ZM96.6575 17.1358C96.6579 17.0451 96.6612 16.9545 96.6672 16.8642C96.6288 16.7813 96.5927 16.6967 96.5592 16.6105C96.5805 16.786 96.6132 16.9614 96.6575 17.1358ZM96.5286 16.1163C96.5481 16.1897 96.5698 16.263 96.5935 16.3361C96.6235 16.4285 96.6564 16.519 96.692 16.6078C96.7143 16.4321 96.7473 16.258 96.7907 16.0866C96.7041 15.9328 96.6263 15.7726 96.5582 15.6065C96.5381 15.775 96.5281 15.9453 96.5286 16.1163ZM96.596 15.3551C96.6639 15.549 96.7451 15.7353 96.8383 15.9134C96.8988 15.7101 96.974 15.5112 97.0636 15.3184C96.9452 15.1442 96.8389 14.9606 96.7463 14.7687C96.6823 14.96 96.6321 15.156 96.596 15.3551ZM96.6716 14.6054C96.6106 14.7711 96.5597 14.9406 96.5192 15.1129C96.493 15.0209 96.4698 14.9273 96.4496 14.8324C96.4336 14.7571 96.4197 14.6819 96.4079 14.6068C96.4253 14.4369 96.453 14.269 96.4906 14.1037C96.5409 14.276 96.6015 14.4434 96.6716 14.6054ZM96.806 14.6016C96.8977 14.8068 97.0052 15.0029 97.1267 15.1884C97.2338 14.9767 97.3585 14.7731 97.5004 14.58C97.3496 14.3971 97.2134 14.2017 97.0938 13.9956C96.9819 14.1898 96.8857 14.3925 96.806 14.6016ZM97.0234 13.8695C96.9141 14.052 96.8184 14.2421 96.737 14.438C96.6629 14.2513 96.6016 14.0575 96.5543 13.8577C96.611 13.6632 96.6816 13.4734 96.7652 13.2896C96.8373 13.4902 96.9238 13.6839 97.0234 13.8695ZM97.1673 13.8729C97.2867 14.0867 97.4242 14.289 97.5777 14.4778C97.7406 14.2694 97.924 14.0742 98.127 13.8956C97.9354 13.7088 97.7615 13.5048 97.6074 13.2863C97.4431 13.4696 97.296 13.666 97.1673 13.8729ZM97.5351 13.1806C97.3738 13.3578 97.2283 13.5474 97.0997 13.7468C96.9982 13.5496 96.9118 13.3434 96.8421 13.1297C96.9432 12.93 97.0601 12.7384 97.1918 12.5568C97.2892 12.7744 97.4042 12.9829 97.5351 13.1806ZM97.6939 13.1928C97.8495 13.4163 98.0264 13.6245 98.2221 13.8143C98.4086 13.6596 98.6106 13.5184 98.8276 13.3932L99.0022 13.2923C98.7482 13.1063 98.5169 12.8941 98.3111 12.6605C98.0859 12.8192 97.8797 12.9979 97.6939 13.1928ZM98.2298 12.5654C98.0092 12.7218 97.8064 12.8968 97.6227 13.0871C97.4897 12.8832 97.3741 12.6676 97.2777 12.4425C97.4274 12.2502 97.5941 12.0702 97.7767 11.9052C97.9071 12.1385 98.0588 12.3596 98.2298 12.5654ZM98.4148 12.5897C98.6241 12.8256 98.8605 13.0388 99.1204 13.2241L100.058 12.6826C99.7712 12.5321 99.5062 12.352 99.266 12.1475L99.0297 12.2528C98.8122 12.3496 98.607 12.4626 98.4148 12.5897ZM99.1631 12.057L98.979 12.139C98.7502 12.2409 98.5345 12.3601 98.3329 12.4945C98.1581 12.2853 98.0039 12.0598 97.8725 11.8212C98.0777 11.6468 98.3014 11.4907 98.5419 11.3564C98.7221 11.6102 98.93 11.8455 99.1631 12.057ZM99.3927 12.0912C99.6335 12.2903 99.899 12.4645 100.187 12.6085L101.184 12.0327L100.922 11.9162C100.741 11.8353 100.567 11.7434 100.402 11.6416L99.3927 12.0912ZM100.277 11.5611L99.2878 12.0015C99.0486 11.7901 98.8359 11.5533 98.6524 11.2968C98.8568 11.1905 99.0728 11.0996 99.2992 11.026L99.545 10.9461C99.7625 11.1746 100.007 11.3814 100.277 11.5611ZM100.541 11.5799C100.679 11.6613 100.823 11.7357 100.973 11.8024L101.317 11.9557L102.175 11.4603C102.18 11.4574 102.185 11.4545 102.19 11.4516L101.598 11.1094L100.541 11.5799ZM101.464 11.0324L100.412 11.5008C100.141 11.3275 99.8955 11.1265 99.6768 10.9033L100.728 10.5618C100.881 10.6802 101.044 10.7898 101.217 10.8893L101.464 11.0324ZM101.738 11.0468L102.316 11.3803C102.573 11.2361 102.835 11.1016 103.1 10.9767L102.643 10.6444C102.616 10.6563 102.588 10.6683 102.561 10.6805L101.738 11.0468ZM102.526 10.5597C102.521 10.562 102.516 10.5643 102.51 10.5667L101.605 10.9698L101.279 10.7815C101.137 10.6994 101.001 10.6103 100.872 10.5149L101.972 10.1574L102.526 10.5597ZM101.848 10.0669L101.616 9.89872C101.455 9.7817 101.305 9.65568 101.165 9.52184L100.084 9.75165C100.278 9.99652 100.501 10.2221 100.753 10.4228L101.848 10.0669ZM100.612 10.4686C100.362 10.2617 100.14 10.0305 99.9479 9.78047L99.6955 9.83413C99.4625 9.88365 99.2382 9.95154 99.0236 10.0359C99.1793 10.3102 99.3662 10.5679 99.5819 10.8032L100.612 10.4686ZM99.4521 10.8454C99.2424 10.6106 99.0602 10.3549 98.9075 10.0837C98.6544 10.1921 98.4156 10.3239 98.1935 10.4759C98.2992 10.7269 98.4289 10.9673 98.5809 11.1936C98.7955 11.081 99.0224 10.985 99.2607 10.9075L99.4521 10.8454ZM98.4709 11.2533C98.3224 11.0308 98.1947 10.7951 98.0894 10.5494C97.8906 10.6944 97.706 10.8559 97.5371 11.0315C97.6094 11.2655 97.7018 11.492 97.8128 11.7086C98.0154 11.5386 98.2353 11.3858 98.4709 11.2533ZM97.7158 11.7924C97.6064 11.5822 97.5138 11.3628 97.4397 11.1362C97.2897 11.303 97.1534 11.4814 97.032 11.6693C97.079 11.8892 97.1434 12.1033 97.2237 12.31C97.3725 12.1252 97.5369 11.9519 97.7158 11.7924ZM97.135 12.4241C97.0553 12.229 96.9896 12.0273 96.9388 11.8204C96.8364 11.9945 96.7463 12.1761 96.6695 12.3637C96.6957 12.5673 96.7364 12.7664 96.7906 12.9598C96.892 12.7733 97.0071 12.5942 97.135 12.4241ZM96.708 13.1194C96.6552 12.951 96.6125 12.7782 96.5804 12.6017C96.5257 12.7625 96.4805 12.927 96.4455 13.0945C96.4493 13.17 96.4553 13.2458 96.4633 13.3219C96.4734 13.4186 96.4868 13.5143 96.5032 13.6087C96.5615 13.4415 96.6299 13.2781 96.708 13.1194ZM96.4257 13.8544C96.4053 13.7655 96.3877 13.6755 96.3728 13.5844C96.3573 13.7601 96.3528 13.9381 96.3599 14.1174C96.3791 14.0289 96.401 13.9412 96.4257 13.8544ZM96.4487 12.6027C96.4771 12.5164 96.5082 12.4311 96.5419 12.347C96.531 12.2561 96.5228 12.1644 96.5175 12.0719C96.4836 12.2457 96.4604 12.4229 96.4487 12.6027ZM96.641 11.5924C96.637 11.6681 96.6349 11.7444 96.6349 11.8211C96.6349 11.9184 96.6382 12.015 96.6447 12.1107C96.7203 11.9503 96.8054 11.7948 96.8997 11.6451C96.8648 11.4719 96.8404 11.2954 96.8269 11.1163C96.7556 11.2705 96.6935 11.4294 96.641 11.5924ZM96.9405 10.8889C96.9452 11.0944 96.9649 11.2968 96.9985 11.495C97.1189 11.3202 97.2521 11.1541 97.397 10.9982C97.3382 10.7959 97.2939 10.5883 97.265 10.377C97.145 10.5394 97.0364 10.7105 96.9405 10.8889ZM97.2445 10.1987C97.1351 10.3376 97.0341 10.4833 96.9423 10.6348C96.9458 10.5392 96.9526 10.443 96.9628 10.3464C96.9708 10.2698 96.9809 10.194 96.9929 10.1189C97.062 9.96243 97.1404 9.81099 97.2274 9.66523C97.222 9.84474 97.2279 10.0228 97.2445 10.1987ZM97.3735 10.2366C97.3973 10.4603 97.4389 10.6801 97.4972 10.8941C97.6644 10.7259 97.8461 10.5707 98.0406 10.4309C97.9537 10.2103 97.8846 9.98237 97.8345 9.74927C97.668 9.89941 97.5139 10.0624 97.3735 10.2366ZM97.8066 9.6076C97.6462 9.74737 97.4964 9.89856 97.3585 10.0597C97.3457 9.85911 97.3473 9.65577 97.3641 9.451C97.4781 9.28366 97.6039 9.12496 97.7402 8.97608C97.7468 9.18918 97.7692 9.40021 97.8066 9.6076ZM97.9423 9.6553C97.9898 9.89562 98.0581 10.1306 98.1458 10.3577C98.365 10.2098 98.5996 10.0809 98.8477 9.97375C98.7233 9.73693 98.6209 9.48913 98.5418 9.23378C98.3291 9.35716 98.1286 9.49843 97.9423 9.6553ZM98.5057 9.11081C98.2977 9.22951 98.1009 9.36474 97.917 9.51454C97.8814 9.29557 97.863 9.07267 97.8628 8.84776C98.0205 8.6893 98.1908 8.54333 98.372 8.41146C98.3975 8.64849 98.4423 8.8824 98.5057 9.11081ZM98.653 9.17153C98.7319 9.4322 98.8358 9.68491 98.9633 9.92585C99.1886 9.83626 99.4244 9.7644 99.6696 9.71229L99.8661 9.67053C99.6821 9.41515 99.5276 9.14182 99.4042 8.85611C99.1411 8.93752 98.8899 9.04364 98.653 9.17153ZM99.3562 8.74057C99.0982 8.82115 98.8514 8.92483 98.618 9.04898C98.5545 8.81403 98.5112 8.57321 98.4891 8.32927C98.6907 8.19271 98.9048 8.07316 99.1293 7.97268C99.1813 8.23489 99.2572 8.49204 99.3562 8.74057ZM99.5247 8.82081C99.6508 9.10982 99.8097 9.38564 99.9996 9.64215L101.059 9.41702C100.832 9.18516 100.636 8.93204 100.471 8.66334L100.214 8.69034C99.977 8.71524 99.7468 8.7593 99.5247 8.82081ZM100.401 8.54545L100.201 8.56647C99.9516 8.59266 99.7095 8.63947 99.4761 8.70501C99.3746 8.45207 99.2977 8.18988 99.2465 7.9224C99.4954 7.81995 99.7564 7.74064 100.027 7.68718C100.12 7.98424 100.245 8.27223 100.401 8.54545ZM99.9909 7.56725C99.9184 7.30972 99.8698 7.04605 99.8456 6.77984C99.6118 6.85633 99.3863 6.95287 99.1715 7.06764C99.1679 7.31255 99.1858 7.55656 99.2244 7.79685C99.4696 7.69776 99.7259 7.62043 99.9909 7.56725ZM99.1063 7.84662C99.0671 7.61284 99.047 7.37554 99.0465 7.13716C98.8524 7.2494 98.6678 7.37681 98.4943 7.51794C98.4711 7.74161 98.4661 7.96518 98.4786 8.18662C98.6771 8.05686 98.887 7.94293 99.1063 7.84662ZM98.359 8.26764C98.3435 8.05753 98.3433 7.84536 98.359 7.63278C98.208 7.76657 98.0664 7.91121 97.9355 8.06567C97.8974 8.26751 97.8746 8.46951 97.8663 8.67032C98.0203 8.52449 98.185 8.38983 98.359 8.26764ZM97.7384 8.79654C97.7403 8.62 97.7531 8.44235 97.7772 8.26447C97.6755 8.40028 97.5818 8.54262 97.4967 8.69091C97.4769 8.76435 97.459 8.83872 97.443 8.91399C97.4228 9.00892 97.406 9.10379 97.3925 9.19846C97.4996 9.05748 97.6152 8.92326 97.7384 8.79654ZM97.2428 9.40808C97.2509 9.317 97.262 9.22565 97.2761 9.13415C97.2068 9.29694 97.1473 9.46532 97.0984 9.63863C97.1442 9.56018 97.1923 9.4833 97.2428 9.40808ZM97.6519 8.22433C97.7055 8.15115 97.7614 8.07979 97.8193 8.01032C97.837 7.92065 97.8575 7.83104 97.8811 7.74157C97.7952 7.89611 97.7185 8.05721 97.6519 8.22433ZM98.1468 7.32374C98.1195 7.39462 98.0939 7.46663 98.0701 7.53972C98.0401 7.63206 98.0135 7.72469 97.9901 7.81747C98.1114 7.6885 98.2403 7.56714 98.376 7.45402C98.3963 7.2787 98.4276 7.10341 98.4701 6.92906C98.3549 7.05347 98.2468 7.18521 98.1468 7.32374ZM98.6484 6.74787C98.5894 6.94457 98.5456 7.14304 98.5164 7.34184C98.6848 7.21287 98.8627 7.09612 99.0485 6.99276C99.0551 6.7822 99.0771 6.57119 99.1149 6.36144C98.9507 6.47875 98.7947 6.60786 98.6484 6.74787ZM99.1505 6.18541C99.0036 6.28377 98.8627 6.39105 98.7286 6.5067C98.7616 6.41678 98.7978 6.32736 98.8373 6.23858C98.8685 6.16851 98.9014 6.09971 98.9359 6.0322C99.0499 5.90478 99.1713 5.78497 99.2989 5.6732C99.2384 5.84214 99.189 6.01319 99.1505 6.18541ZM99.2615 6.26135C99.215 6.48135 99.1867 6.70315 99.1759 6.92468C99.387 6.81634 99.6076 6.72494 99.8359 6.65205C99.8213 6.41548 99.8261 6.17737 99.8505 5.94025C99.6458 6.03163 99.4488 6.13908 99.2615 6.26135ZM99.8677 5.79686C99.6719 5.88025 99.4828 5.9778 99.3018 6.0885C99.3517 5.89385 99.416 5.70106 99.4952 5.51161C99.6553 5.38762 99.824 5.27549 99.9997 5.17596C99.9401 5.3806 99.8962 5.58815 99.8677 5.79686ZM100.053 5.00461C100.11 4.83732 100.177 4.67232 100.255 4.51059C100.116 4.60839 99.9828 4.71486 99.8561 4.82965C99.8146 4.89326 99.7747 4.95833 99.7363 5.02483C99.6877 5.109 99.6424 5.19414 99.6002 5.28012C99.7457 5.17909 99.897 5.0871 100.053 5.00461ZM99.393 5.43331C99.4289 5.34925 99.4676 5.26584 99.5093 5.18321C99.3931 5.31656 99.2846 5.45827 99.1847 5.60794C99.2524 5.54748 99.3219 5.48926 99.393 5.43331ZM100.148 4.43372C100.222 4.38068 100.297 4.33006 100.373 4.28187C100.418 4.20204 100.465 4.12317 100.515 4.04536C100.386 4.16582 100.263 4.29536 100.148 4.43372ZM98.628 6.42008C98.5953 6.50652 98.5655 6.59342 98.5386 6.68068C98.4738 6.74367 98.4108 6.80875 98.3499 6.87586C98.4335 6.71676 98.5265 6.56468 98.628 6.42008ZM96.8198 10.5827C96.8154 10.6753 96.8139 10.7674 96.8153 10.8589C96.773 10.9391 96.7331 11.0207 96.6958 11.1036C96.7262 10.926 96.7678 10.7521 96.8198 10.5827ZM96.3867 15.1015C96.4111 15.1908 96.4381 15.2788 96.4677 15.3653C96.4522 15.4545 96.4395 15.5443 96.4296 15.6346C96.4038 15.4564 96.3896 15.2784 96.3867 15.1015ZM103.694 1.59965C103.78 1.57197 103.867 1.54705 103.955 1.5249C104.022 1.46274 104.091 1.40233 104.163 1.3438C104.002 1.41835 103.846 1.50362 103.694 1.59965ZM104.623 1.16192C104.559 1.2032 104.497 1.24642 104.434 1.29158C104.356 1.34865 104.28 1.40792 104.206 1.46925C104.38 1.43613 104.556 1.41368 104.732 1.40194C104.852 1.27207 104.98 1.14864 105.117 1.0326C104.951 1.06553 104.786 1.10862 104.623 1.16192ZM105.368 0.990807C105.205 1.11528 105.052 1.25007 104.912 1.3937C105.983 1.36663 107.065 1.73353 107.924 2.50676L110.797 5.0934C112.311 6.45715 113.455 8.15659 114.151 10.0328C114.207 10.0088 114.262 9.98335 114.317 9.95656C113.798 8.21627 112.896 6.59495 111.657 5.21942L109.071 2.34666C108.101 1.26998 106.703 0.809422 105.368 0.990807ZM114.43 9.89925C113.904 8.14965 112.996 6.51975 111.75 5.13607L109.163 2.26332C108.219 1.21478 106.88 0.733801 105.575 0.842879C105.654 0.789507 105.736 0.738457 105.82 0.68987C105.887 0.651486 105.954 0.615119 106.021 0.58075C107.603 0.239964 109.309 0.830858 110.321 2.22389L112.593 5.35128C113.568 6.69378 114.254 8.20443 114.627 9.789L114.555 9.83056C114.514 9.85427 114.472 9.87717 114.43 9.89925ZM114.353 10.0777C114.3 10.103 114.247 10.1271 114.194 10.15C114.232 10.2563 114.269 10.3632 114.304 10.4707C114.353 10.4594 114.401 10.4471 114.45 10.4338C114.419 10.3146 114.387 10.1959 114.353 10.0777ZM114.569 10.3989C114.537 10.2724 114.503 10.1464 114.466 10.0211C114.517 9.99466 114.567 9.96712 114.617 9.93843L114.656 9.91598C114.687 10.0569 114.717 10.1984 114.743 10.3404C114.686 10.3613 114.628 10.3808 114.569 10.3989ZM114.48 10.5547C114.434 10.5672 114.389 10.5788 114.343 10.5896C114.373 10.6837 114.402 10.7781 114.429 10.8729C114.47 10.8705 114.511 10.8675 114.551 10.8638C114.529 10.7604 114.505 10.6574 114.48 10.5547ZM114.676 10.8503C114.652 10.7398 114.627 10.6296 114.6 10.5199C114.655 10.5027 114.711 10.4843 114.766 10.4646C114.787 10.5857 114.807 10.7071 114.825 10.8289C114.775 10.837 114.726 10.8442 114.676 10.8503ZM114.578 10.9864C114.54 10.99 114.502 10.993 114.464 10.9955C114.488 11.0788 114.51 11.1624 114.532 11.2462C114.565 11.2497 114.597 11.2527 114.63 11.2553C114.614 11.1655 114.596 11.0758 114.578 10.9864ZM114.758 11.2634C114.741 11.1662 114.722 11.0693 114.702 10.9726C114.749 10.9667 114.796 10.9599 114.842 10.9522C114.857 11.057 114.869 11.1619 114.881 11.2671C114.84 11.2665 114.799 11.2653 114.758 11.2634ZM114.653 11.382C114.623 11.3799 114.594 11.3774 114.565 11.3747C114.583 11.4483 114.6 11.5221 114.617 11.5961C114.642 11.6027 114.666 11.6092 114.691 11.6153C114.679 11.5374 114.666 11.4596 114.653 11.382ZM114.822 11.6456C114.809 11.5599 114.795 11.4743 114.78 11.389C114.818 11.3905 114.856 11.3914 114.894 11.3918C114.903 11.4827 114.911 11.5738 114.918 11.6649C114.886 11.6589 114.854 11.6524 114.822 11.6456ZM114.711 11.7483C114.69 11.7433 114.669 11.7382 114.648 11.7329C114.662 11.7972 114.675 11.8617 114.688 11.9264C114.705 11.9338 114.721 11.941 114.738 11.9482C114.729 11.8814 114.72 11.8148 114.711 11.7483ZM114.87 12.0023C114.861 11.927 114.851 11.8518 114.841 11.7767C114.87 11.7825 114.899 11.788 114.928 11.7932C114.933 11.8718 114.938 11.9505 114.941 12.0292C114.917 12.0205 114.894 12.0115 114.87 12.0023ZM115.068 12.0729C115.099 12.0831 115.131 12.0929 115.162 12.1023C115.165 12.0109 115.166 11.9196 115.167 11.8282C115.129 11.8239 115.091 11.819 115.054 11.8135C115.06 11.8999 115.064 11.9864 115.068 12.0729ZM115.045 11.6863C115.085 11.6925 115.126 11.698 115.167 11.7028C115.166 11.597 115.164 11.4912 115.161 11.3854C115.114 11.3882 115.067 11.3901 115.019 11.3911C115.029 11.4893 115.038 11.5878 115.045 11.6863ZM115.006 11.2668C115.056 11.2658 115.107 11.2639 115.157 11.2609C115.152 11.138 115.145 11.0152 115.136 10.8925C115.079 10.9064 115.022 10.9189 114.965 10.9301C114.98 11.0421 114.994 11.1543 115.006 11.2668ZM114.947 10.8066C115.007 10.7948 115.067 10.7814 115.127 10.7666C115.115 10.6226 115.101 10.4788 115.084 10.3354L115.043 10.3536C114.991 10.377 114.938 10.3991 114.884 10.4201C114.907 10.5486 114.928 10.6774 114.947 10.8066ZM114.861 10.2952C114.905 10.2776 114.949 10.2591 114.992 10.2398L115.068 10.206C115.048 10.0433 115.024 9.88104 114.996 9.71926L114.769 9.85076C114.802 9.99832 114.833 10.1465 114.861 10.2952ZM114.739 9.72399L114.974 9.58852C114.724 8.19074 114.233 6.83336 113.51 5.58012L111.577 2.23235C110.535 0.428581 108.362 -0.314047 106.472 0.383804C107.957 0.233963 109.481 0.855649 110.421 2.15067L112.694 5.27806C113.671 6.62378 114.361 8.13677 114.739 9.72399ZM115.112 9.65283C115.14 9.81909 115.165 9.9859 115.187 10.1531L119.228 8.35405C121.34 7.4137 123.802 8.29709 124.848 10.3265C124.756 9.92771 124.604 9.53561 124.389 9.16274C123.225 7.14714 120.648 6.45655 118.632 7.62025L115.112 9.65283ZM124.93 10.8148C124.903 10.7441 124.874 10.6736 124.842 10.6036C123.896 8.47741 121.405 7.52119 119.278 8.46784L115.203 10.2823C115.221 10.4326 115.236 10.5832 115.249 10.734C115.294 10.7211 115.34 10.7073 115.385 10.6926L119.794 9.25993C121.82 8.60179 123.979 9.51388 124.954 11.325C124.956 11.1553 124.948 10.9849 124.93 10.8148ZM124.942 11.5789C124.049 9.69129 121.871 8.71597 119.833 9.37839L115.423 10.8111C115.369 10.8288 115.314 10.8454 115.259 10.8606C115.268 10.9908 115.276 11.1212 115.281 11.2516C115.43 11.238 115.58 11.2155 115.728 11.184L120.263 10.22C122.102 9.82901 123.918 10.6666 124.854 12.1784C124.898 11.9813 124.927 11.7809 124.942 11.5789ZM124.946 12.333C124.989 12.1616 125.022 11.9875 125.044 11.8118C125.08 11.9008 125.113 11.9915 125.143 12.084C125.167 12.157 125.188 12.2302 125.208 12.3035C125.208 12.4745 125.198 12.6447 125.178 12.8132C125.11 12.6471 125.032 12.4868 124.946 12.333ZM124.812 12.3508C123.923 10.8154 122.118 9.95296 120.289 10.3419L115.754 11.3058C115.598 11.3388 115.442 11.3623 115.285 11.3763C115.289 11.4893 115.291 11.6024 115.291 11.7156C115.531 11.7362 115.774 11.7342 116.017 11.7086L120.628 11.224C122.223 11.0564 123.707 11.7755 124.589 12.984C124.68 12.779 124.755 12.5672 124.812 12.3508ZM124.672 13.1021C124.762 12.909 124.837 12.7098 124.898 12.5063C124.991 12.6843 125.072 12.8707 125.14 13.0645C125.104 13.264 125.054 13.4603 124.99 13.652C124.897 13.46 124.791 13.2763 124.672 13.1021ZM124.529 13.1137C123.678 11.906 122.215 11.1825 120.641 11.3479L116.03 11.8325C115.783 11.8585 115.536 11.8609 115.291 11.8406C115.291 11.9393 115.289 12.0381 115.286 12.1368C115.598 12.2183 115.922 12.2606 116.25 12.2606H120.887C122.189 12.2606 123.357 12.8344 124.153 13.7429C124.297 13.5436 124.423 13.3329 124.529 13.1137ZM124.236 13.8406C124.377 13.6474 124.502 13.4437 124.609 13.232C124.731 13.4176 124.838 13.6137 124.93 13.8191C124.85 14.0281 124.754 14.2308 124.642 14.4251C124.523 14.2189 124.386 14.0234 124.236 13.8406ZM124.713 14.5512C124.812 14.7369 124.899 14.9307 124.971 15.1313C125.054 14.9476 125.125 14.7577 125.182 14.5633C125.135 14.3634 125.073 14.1695 124.999 13.9826C124.918 14.1786 124.822 14.3687 124.713 14.5512ZM125.065 13.8153C125.135 13.9774 125.195 14.1449 125.246 14.3173C125.283 14.1516 125.311 13.9831 125.329 13.8127C125.317 13.7378 125.303 13.6628 125.287 13.5878C125.267 13.4926 125.243 13.3989 125.217 13.3068C125.177 13.4794 125.126 13.6492 125.065 13.8153ZM125.269 13.0543C125.298 13.1408 125.325 13.2287 125.35 13.318C125.347 13.1412 125.333 12.9633 125.307 12.7852C125.297 12.8754 125.284 12.9652 125.269 13.0543ZM125.377 14.3021C125.357 14.3911 125.335 14.4793 125.31 14.5666C125.331 14.656 125.349 14.7465 125.364 14.8381C125.379 14.6614 125.384 14.4824 125.377 14.3021ZM125.291 15.3278C125.287 15.2516 125.281 15.1752 125.273 15.0985C125.263 15.0019 125.249 14.9065 125.233 14.8123C125.175 14.9795 125.106 15.1429 125.028 15.3015C125.081 15.4701 125.124 15.6431 125.156 15.8198C125.21 15.6593 125.256 15.495 125.291 15.3278ZM125.194 16.0746C125.205 16.1652 125.213 16.2568 125.218 16.3491C125.252 16.1757 125.275 15.9988 125.287 15.8194C125.259 15.9056 125.228 15.9906 125.194 16.0746ZM125.177 11.8093C125.143 11.723 125.107 11.6384 125.069 11.5554C125.075 11.465 125.078 11.3744 125.079 11.2835C125.123 11.4581 125.156 11.6336 125.177 11.8093ZM105.544 0.713483C105.467 0.764221 105.392 0.817074 105.319 0.871922C105.229 0.884782 105.14 0.900455 105.051 0.91895C105.212 0.839322 105.377 0.770888 105.544 0.713483ZM124.085 20.1952C124.031 20.2684 123.975 20.3399 123.917 20.4095C123.9 20.4992 123.879 20.5889 123.855 20.6785C123.941 20.5238 124.018 20.3625 124.085 20.1952ZM123.59 21.0963C123.617 21.0255 123.643 20.9536 123.666 20.8805C123.696 20.7881 123.723 20.6953 123.746 20.6024C123.625 20.7315 123.496 20.853 123.36 20.9663C123.34 21.1417 123.309 21.3171 123.266 21.4916C123.381 21.367 123.49 21.235 123.59 21.0963ZM123.197 21.7399C123.171 21.8274 123.141 21.9145 123.108 22.0012C123.21 21.8562 123.303 21.7037 123.387 21.5441C123.326 21.6115 123.262 21.6767 123.197 21.7399ZM123.088 21.6727C123.147 21.4759 123.19 21.2774 123.22 21.0785C123.051 21.2075 122.873 21.3243 122.687 21.4277C122.681 21.6384 122.659 21.8494 122.621 22.0592C122.785 21.9419 122.941 21.8127 123.088 21.6727ZM122.474 22.1593C122.521 21.9392 122.549 21.7174 122.56 21.4958C122.349 21.6041 122.128 21.6955 121.9 21.7684C121.914 22.005 121.91 22.2432 121.885 22.4803C122.09 22.389 122.287 22.2815 122.474 22.1593ZM121.754 22.5364C121.783 22.2931 121.79 22.0486 121.777 21.8056C121.523 21.8785 121.26 21.9286 120.991 21.9537C121.036 22.2174 121.057 22.4847 121.053 22.752C121.293 22.7004 121.528 22.628 121.754 22.5364ZM120.928 22.7768C120.933 22.5046 120.913 22.2321 120.866 21.9635C120.624 21.9791 120.378 21.9745 120.129 21.9484L119.928 21.9272C120.024 22.227 120.086 22.5347 120.116 22.8446C120.391 22.8486 120.663 22.8253 120.928 22.7768ZM119.99 22.8409C119.959 22.5271 119.893 22.2156 119.792 21.913L118.715 21.7997C118.859 22.0902 118.967 22.3915 119.041 22.6981L119.295 22.7521C119.528 22.8015 119.76 22.8308 119.99 22.8409ZM118.906 22.6693C118.828 22.3667 118.715 22.0697 118.567 21.7842L117.422 21.6638L117.565 21.9123C117.665 22.0844 117.751 22.2605 117.824 22.4394L118.906 22.6693ZM120.507 25.054C120.428 25.0991 120.348 25.1416 120.267 25.1815C120.214 25.2563 120.159 25.3298 120.101 25.402C120.243 25.2957 120.378 25.1797 120.507 25.054Z" fill="#4845D2"/>
<path d="M4.07937 21.2837H0.5V37.4345H10.4087V34.2698H4.07937V21.2837Z" fill="#4845D2"/>
<path d="M10.7506 31.9563C10.7506 35.4048 13.0641 37.6964 16.5562 37.6964C20.0264 37.6964 22.3399 35.4048 22.3399 31.9563C22.3399 28.5079 20.0264 26.1944 16.5562 26.1944C13.0641 26.1944 10.7506 28.5079 10.7506 31.9563ZM14.1335 31.9345C14.1335 30.2976 15.0939 29.2063 16.5562 29.2063C17.9966 29.2063 18.957 30.2976 18.957 31.9345C18.957 33.5933 17.9966 34.6845 16.5562 34.6845C15.0939 34.6845 14.1335 33.5933 14.1335 31.9345Z" fill="#4845D2"/>
<path d="M22.8806 31.7817C22.8806 35.0774 25.0195 37.3036 28.0532 37.3036C29.5155 37.3036 30.7814 36.7798 31.4143 35.9286V37.4345C31.4143 38.9405 30.4758 39.9444 28.8171 39.9444C27.333 39.9444 26.3072 39.246 26.2417 38.002H22.8369C23.1425 40.9921 25.456 43 28.6207 43C32.3528 43 34.7099 40.5774 34.7099 36.7361V26.5218H31.6762L31.5016 27.6349C30.8905 26.7401 29.6028 26.1508 28.1187 26.1508C25.0631 26.1508 22.8806 28.4425 22.8806 31.7817ZM26.2853 31.6944C26.2853 30.123 27.333 29.0754 28.6643 29.0754C30.2139 29.0754 31.3488 30.1012 31.3488 31.6944C31.3488 33.2877 30.2357 34.379 28.6861 34.379C27.3548 34.379 26.2853 33.2877 26.2853 31.6944Z" fill="#4845D2"/>
<path d="M35.6895 31.9563C35.6895 35.4048 38.003 37.6964 41.4951 37.6964C44.9653 37.6964 47.2788 35.4048 47.2788 31.9563C47.2788 28.5079 44.9653 26.1944 41.4951 26.1944C38.003 26.1944 35.6895 28.5079 35.6895 31.9563ZM39.0725 31.9345C39.0725 30.2976 40.0328 29.2063 41.4951 29.2063C42.9356 29.2063 43.8959 30.2976 43.8959 31.9345C43.8959 33.5933 42.9356 34.6845 41.4951 34.6845C40.0328 34.6845 39.0725 33.5933 39.0725 31.9345Z" fill="#4845D2"/>
<path d="M50.1766 24.8194C51.2243 24.8194 52.0755 23.9683 52.0755 22.8988C52.0755 21.8294 51.2243 21 50.1766 21C49.1072 21 48.256 21.8294 48.256 22.8988C48.256 23.9683 49.1072 24.8194 50.1766 24.8194ZM48.4743 37.4345H51.8572V26.5218H48.4743V37.4345Z" fill="#4845D2"/>
<path d="M53.8264 42.6726H57.1439V36.3433C57.7768 37.1726 59.2173 37.7401 60.7233 37.7401C63.9752 37.7401 65.9395 35.252 65.8522 31.8036C65.7649 28.2897 63.7352 26.1726 60.7014 26.1726C59.1518 26.1726 57.6895 26.8492 57.0784 27.8532L56.9038 26.5218H53.8264V42.6726ZM57.2094 31.9782C57.2094 30.3413 58.3006 29.25 59.8721 29.25C61.4653 29.25 62.4693 30.3631 62.4693 31.9782C62.4693 33.5933 61.4653 34.7064 59.8721 34.7064C58.3006 34.7064 57.2094 33.6151 57.2094 31.9782Z" fill="#4845D2"/>
<path d="M66.2104 33.9861C66.2977 36.1905 68.0437 37.7183 70.7937 37.7183C73.4346 37.7183 75.2679 36.3214 75.2679 34.0734C75.2679 32.4583 74.3076 31.3889 72.5179 30.9524L70.5755 30.4722C69.877 30.2976 69.4405 30.123 69.4405 29.5556C69.4405 28.9881 69.8989 28.6171 70.5755 28.6171C71.3393 28.6171 71.8413 29.119 71.8195 29.8611H74.8532C74.7659 27.5913 73.0417 26.1726 70.6409 26.1726C68.2183 26.1726 66.4068 27.6131 66.4068 29.7956C66.4068 31.2579 67.2143 32.4583 69.3751 33.0258L71.2957 33.5278C71.8631 33.6806 72.1032 33.9425 72.1032 34.3135C72.1032 34.8591 71.6012 35.2083 70.7501 35.2083C69.7679 35.2083 69.2441 34.75 69.2441 33.9861H66.2104Z" fill="#4845D2"/>
<path d="M80.4128 37.7183C81.7442 37.7183 83.0755 37.1071 83.7521 36.2123L83.9704 37.4345H87.1351V26.5218H83.7739V32.1964C83.7739 33.8333 83.2938 34.7282 81.7442 34.7282C80.5438 34.7282 79.7581 34.1825 79.7581 32.1528V26.5218H76.397V33.375C76.397 35.9722 77.8374 37.7183 80.4128 37.7183Z" fill="#4845D2"/>
<path d="M92.4652 37.4345V31.4762C92.4652 29.6429 93.4473 29.119 94.4076 29.119C95.4771 29.119 96.1755 29.7738 96.1755 31.127V37.4345H99.4929V31.4762C99.4929 29.621 100.453 29.0972 101.413 29.0972C102.483 29.0972 103.203 29.752 103.203 31.127V37.4345H106.477V30.2976C106.477 27.8095 105.167 26.1508 102.352 26.1508C100.781 26.1508 99.4929 26.9147 98.9255 28.0933C98.2707 26.9147 97.1358 26.1508 95.3243 26.1508C94.1239 26.1508 93.0108 26.6964 92.356 27.5694L92.2251 26.5218H89.0822V37.4345H92.4652Z" fill="#4845D2"/>
</g>
<defs>
<clipPath id="clip0_9_568">
<rect width="126" height="44" fill="white" transform="translate(0.5)"/>
</clipPath>
</defs>
</svg>
