<svg width="133" height="36" viewBox="0 0 133 36" fill="none" xmlns="http://www.w3.org/2000/svg">
<path d="M39.01 11.76H42.22V24.76H39.01V11.76ZM43.5 19.87C43.5 16.65 45.5 14.72 48.5 14.72C51.5 14.72 53.5 16.65 53.5 19.87C53.5 23.09 51.57 25.04 48.5 25.04C45.43 25.04 43.5 23.16 43.5 19.87ZM50.32 19.87C50.32 18.1 49.63 17.06 48.53 17.06C47.43 17.06 46.75 18.06 46.75 19.87C46.75 21.68 47.43 22.67 48.53 22.67C49.63 22.67 50.34 21.68 50.34 19.88L50.32 19.87ZM54.78 25.43H57.88C58.0211 25.7637 58.2676 26.0422 58.5818 26.2227C58.896 26.4033 59.2606 26.4761 59.62 26.43C60.85 26.43 61.49 25.77 61.49 24.79V22.99H61.5C61.2351 23.5505 60.8067 24.0176 60.2713 24.33C59.7358 24.6424 59.1183 24.7853 58.5 24.74C56.15 24.74 54.59 22.95 54.59 19.87C54.59 16.79 56.08 14.87 58.59 14.87C59.2241 14.8361 59.8532 14.9996 60.3904 15.3381C60.9277 15.6766 61.3468 16.1734 61.59 16.76H61.5V14.95H64.68V24.69C64.68 27.04 62.6 28.51 59.54 28.51C56.76 28.5 54.98 27.23 54.8 25.44L54.78 25.43ZM61.5 19.87C61.5 18.3 60.78 17.31 59.64 17.31C58.5 17.31 57.8 18.31 57.8 19.87C57.8 21.43 58.49 22.35 59.64 22.35C60.79 22.35 61.5 21.5 61.5 19.87ZM65.95 19.87C65.95 16.65 67.95 14.72 70.95 14.72C73.95 14.72 75.95 16.65 75.95 19.87C75.95 23.09 74.01 25.04 70.95 25.04C67.89 25.04 65.97 23.16 65.97 19.87H65.95ZM72.77 19.87C72.77 18.1 72.07 17.06 70.98 17.06C69.89 17.06 69.2 18.06 69.2 19.87C69.2 21.68 69.88 22.67 70.98 22.67C72.08 22.67 72.79 21.68 72.79 19.88L72.77 19.87ZM77.25 12.58C77.236 12.253 77.3202 11.9293 77.4917 11.6506C77.6632 11.3718 77.9142 11.1508 78.2124 11.0159C78.5106 10.8809 78.8423 10.8383 79.1649 10.8935C79.4875 10.9486 79.7862 11.099 80.0226 11.3253C80.259 11.5517 80.4223 11.8435 80.4915 12.1634C80.5606 12.4833 80.5325 12.8166 80.4107 13.1203C80.2889 13.4241 80.079 13.6845 79.808 13.868C79.537 14.0515 79.2173 14.1497 78.89 14.15C78.6809 14.1553 78.4727 14.119 78.2777 14.0433C78.0827 13.9675 77.9046 13.8537 77.7539 13.7086C77.6032 13.5635 77.4828 13.3899 77.3998 13.1978C77.3167 13.0058 77.2726 12.7992 77.27 12.59L77.25 12.58ZM77.25 14.94H80.5V24.8H77.3L77.25 14.94ZM92.19 19.87C92.19 23.08 90.75 24.94 88.3 24.94C87.6728 24.9787 87.0488 24.8239 86.5123 24.4967C85.9758 24.1694 85.5527 23.6854 85.3 23.11H85.24V27.97H82.03V14.97H85.22V16.73H85.28C85.524 16.1433 85.943 15.646 86.4798 15.306C87.0167 14.966 87.6453 14.7998 88.28 14.83C90.8 14.81 92.25 16.66 92.25 19.88L92.19 19.87ZM88.92 19.87C88.92 18.31 88.19 17.3 87.06 17.3C85.93 17.3 85.22 18.3 85.21 19.87C85.2 21.44 85.93 22.43 87.06 22.43C88.19 22.43 88.98 21.5 88.98 19.88L88.92 19.87ZM97.67 14.71C100.36 14.71 102.03 15.98 102.05 18.02H99.12C99.12 17.31 98.53 16.87 97.65 16.87C96.77 16.87 96.35 17.21 96.35 17.72C96.35 18.23 96.72 18.39 97.46 18.54L99.52 18.96C101.52 19.38 102.32 20.18 102.32 21.67C102.32 23.67 100.47 25.03 97.72 25.03C94.97 25.03 93.18 23.71 93.05 21.7H96.16C96.25 22.43 96.83 22.86 97.77 22.86C98.71 22.86 99.15 22.56 99.15 22.03C99.15 21.5 98.85 21.41 98.08 21.25L96.22 20.86C94.29 20.45 93.28 19.44 93.28 17.93C93.34 15.97 95.02 14.72 97.73 14.72L97.67 14.71ZM113.07 24.79H109.96V22.94H109.9C109.726 23.5571 109.347 24.0964 108.825 24.469C108.303 24.8417 107.67 25.0254 107.03 24.99C106.547 25.0057 106.065 24.9191 105.618 24.7357C105.171 24.5524 104.767 24.2765 104.434 23.9262C104.1 23.5758 103.845 23.1589 103.684 22.7029C103.523 22.2469 103.46 21.7619 103.5 21.28V14.95H106.71V20.59C106.71 21.75 107.32 22.38 108.32 22.38C108.555 22.3782 108.786 22.3261 108.999 22.2273C109.212 22.1284 109.401 21.985 109.553 21.8068C109.706 21.6286 109.819 21.4197 109.884 21.1943C109.948 20.9688 109.964 20.7321 109.93 20.5V14.95H113.13L113.07 24.79ZM114.62 14.94H117.74V16.84H117.81C117.982 16.2313 118.352 15.697 118.86 15.3206C119.369 14.9443 119.988 14.7471 120.62 14.76C121.255 14.7048 121.888 14.8884 122.394 15.2749C122.901 15.6614 123.245 16.2231 123.36 16.85H123.5C123.7 16.2197 124.102 15.6731 124.645 15.2952C125.187 14.9172 125.84 14.7291 126.5 14.76C126.939 14.7433 127.377 14.8195 127.784 14.9836C128.192 15.1476 128.56 15.3959 128.865 15.7122C129.17 16.0284 129.404 16.4055 129.553 16.8187C129.703 17.2319 129.763 17.6719 129.73 18.11V24.8H126.5V18.93C126.5 17.93 126.03 17.37 125.12 17.37C124.918 17.3667 124.718 17.4071 124.533 17.4883C124.348 17.5696 124.184 17.6899 124.05 17.8409C123.916 17.992 123.816 18.1701 123.757 18.3633C123.699 18.5565 123.683 18.76 123.71 18.96V24.8H120.65V18.9C120.65 17.9 120.16 17.37 119.28 17.37C119.076 17.3684 118.874 17.4104 118.688 17.4932C118.501 17.5761 118.335 17.6978 118.199 17.8503C118.064 18.0028 117.963 18.1825 117.903 18.3773C117.842 18.5722 117.824 18.7777 117.85 18.98V24.8H114.64L114.62 14.94Z" fill="#394149"/>
<path d="M32.66 12.61C32.6601 10.6197 32.0591 8.67573 30.9357 7.03279C29.8123 5.38985 28.2188 4.1245 26.3641 3.4025C24.5094 2.68049 22.4798 2.53549 20.5413 2.98648C18.6027 3.43747 16.8456 4.46343 15.5 5.92997H3.02002V32.27H29.37V19.96C30.4042 19.035 31.2318 17.9023 31.7987 16.6358C32.3656 15.3693 32.6591 13.9976 32.66 12.61ZM27.59 12.61C27.592 13.5637 27.311 14.4966 26.7826 15.2906C26.2541 16.0845 25.5021 16.7039 24.6215 17.0702C23.7409 17.4366 22.7715 17.5335 21.8358 17.3486C20.9002 17.1638 20.0404 16.7055 19.3653 16.0318C18.6902 15.3581 18.2302 14.4993 18.0434 13.564C17.8566 12.6288 17.9515 11.6591 18.316 10.7778C18.6805 9.89643 19.2983 9.14306 20.0911 8.61299C20.884 8.08292 21.8163 7.79998 22.77 7.79997C24.0466 7.79997 25.2711 8.30642 26.1747 9.20818C27.0784 10.1099 27.5874 11.3334 27.59 12.61ZM24.3 27.2H8.09002V11H13.03C12.9346 11.5315 12.8844 12.0701 12.88 12.61C12.8827 15.2322 13.9255 17.7462 15.7797 19.6004C17.6338 21.4545 20.1478 22.4974 22.77 22.5C23.2827 22.4973 23.7943 22.4538 24.3 22.37V27.2Z" fill="#394149"/>
</svg>
