<svg width="161" height="30" viewBox="0 0 161 30" fill="none" xmlns="http://www.w3.org/2000/svg">
<g clip-path="url(#clip0_9_523)">
<path d="M39.0657 1.27466H43.0604V23.0637H49.6334V26.6953H39.0657V1.27466Z" fill="#726BEA"/>
<path d="M57.1813 27.0584C55.2203 27.0584 53.7193 26.5016 52.6782 25.3879C51.6372 24.2742 51.1167 22.7006 51.1167 20.6669V7.30297C51.1167 5.26932 51.6372 3.69566 52.6782 2.582C53.7193 1.46833 55.2203 0.911499 57.1813 0.911499C59.1423 0.911499 60.6433 1.46833 61.6844 2.582C62.7254 3.69566 63.2459 5.26932 63.2459 7.30297V20.6669C63.2459 22.7006 62.7254 24.2742 61.6844 25.3879C60.6433 26.5016 59.1423 27.0584 57.1813 27.0584ZM57.1813 23.4269C58.5613 23.4269 59.2513 22.5916 59.2513 20.9211V7.04876C59.2513 5.37826 58.5613 4.54301 57.1813 4.54301C55.8013 4.54301 55.1113 5.37826 55.1113 7.04876V20.9211C55.1113 22.5916 55.8013 23.4269 57.1813 23.4269Z" fill="#726BEA"/>
<path d="M71.6124 27.0584C69.6756 27.0584 68.1988 26.5137 67.1819 25.4242C66.1651 24.3106 65.6567 22.7248 65.6567 20.6669V7.30297C65.6567 5.24511 66.1651 3.67145 67.1819 2.582C68.1988 1.46833 69.6756 0.911499 71.6124 0.911499C73.5492 0.911499 75.026 1.46833 76.0428 2.582C77.0597 3.67145 77.5681 5.24511 77.5681 7.30297V9.48187H73.7913V7.04876C73.7913 5.37826 73.1013 4.54301 71.7213 4.54301C70.3414 4.54301 69.6514 5.37826 69.6514 7.04876V20.9575C69.6514 22.6038 70.3414 23.4269 71.7213 23.4269C73.1013 23.4269 73.7913 22.6038 73.7913 20.9575V15.9823H71.794V12.3508H77.5681V20.6669C77.5681 22.7248 77.0597 24.3106 76.0428 25.4242C75.026 26.5137 73.5492 27.0584 71.6124 27.0584Z" fill="#726BEA"/>
<path d="M85.9069 27.0584C83.9459 27.0584 82.4449 26.5016 81.4039 25.3879C80.3628 24.2742 79.8423 22.7006 79.8423 20.6669V7.30297C79.8423 5.26932 80.3628 3.69566 81.4039 2.582C82.4449 1.46833 83.9459 0.911499 85.9069 0.911499C87.868 0.911499 89.369 1.46833 90.41 2.582C91.4511 3.69566 91.9716 5.26932 91.9716 7.30297V20.6669C91.9716 22.7006 91.4511 24.2742 90.41 25.3879C89.369 26.5016 87.868 27.0584 85.9069 27.0584ZM85.9069 23.4269C87.2869 23.4269 87.9769 22.5916 87.9769 20.9211V7.04876C87.9769 5.37826 87.2869 4.54301 85.9069 4.54301C84.527 4.54301 83.837 5.37826 83.837 7.04876V20.9211C83.837 22.5916 84.527 23.4269 85.9069 23.4269Z" fill="#726BEA"/>
<path d="M94.6809 1.27466H98.6756V26.6953H94.6809V1.27466Z" fill="#4F46E5"/>
<path d="M101.667 1.27466H107.55C109.535 1.27466 111.024 1.80728 112.017 2.87253C113.01 3.93777 113.506 5.49932 113.506 7.55718V10.0629C113.506 12.1208 113.01 13.6823 112.017 14.7476C111.024 15.8128 109.535 16.3454 107.55 16.3454H105.662V26.6953H101.667V1.27466ZM107.55 12.7139C108.204 12.7139 108.688 12.5323 109.003 12.1692C109.342 11.806 109.511 11.1887 109.511 10.3171V7.30298C109.511 6.43141 109.342 5.81405 109.003 5.4509C108.688 5.08775 108.204 4.90618 107.55 4.90618H105.662V12.7139H107.55Z" fill="#4F46E5"/>
<path d="M121.01 27.0584C119.074 27.0584 117.609 26.5137 116.616 25.4242C115.624 24.3106 115.127 22.7248 115.127 20.6669V19.2143H118.904V20.9575C118.904 22.6038 119.594 23.4269 120.974 23.4269C121.652 23.4269 122.16 23.2332 122.499 22.8459C122.862 22.4343 123.044 21.7806 123.044 20.8848C123.044 19.8196 122.802 18.8875 122.318 18.0886C121.834 17.2654 120.938 16.2849 119.63 15.147C117.984 13.6944 116.834 12.3871 116.18 11.225C115.527 10.0387 115.2 8.70715 115.2 7.23034C115.2 5.2209 115.708 3.67145 116.725 2.582C117.742 1.46833 119.219 0.911499 121.156 0.911499C123.068 0.911499 124.509 1.46833 125.477 2.582C126.47 3.67145 126.966 5.24511 126.966 7.30297V8.35611H123.189V7.04876C123.189 6.1772 123.02 5.54773 122.681 5.16037C122.342 4.7488 121.846 4.54301 121.192 4.54301C119.86 4.54301 119.195 5.35405 119.195 6.97613C119.195 7.89611 119.437 8.75557 119.921 9.5545C120.429 10.3534 121.337 11.3218 122.645 12.4597C124.315 13.9123 125.465 15.2318 126.095 16.4181C126.724 17.6044 127.039 18.9964 127.039 20.5943C127.039 22.6764 126.518 24.2742 125.477 25.3879C124.46 26.5016 122.971 27.0584 121.01 27.0584Z" fill="#4F46E5"/>
<path d="M135.14 27.0584C133.203 27.0584 131.726 26.5137 130.709 25.4242C129.692 24.3106 129.184 22.7248 129.184 20.6669V1.27466H133.179V20.9575C133.179 21.829 133.348 22.4585 133.687 22.8459C134.05 23.2332 134.559 23.4269 135.212 23.4269C135.866 23.4269 136.362 23.2332 136.701 22.8459C137.064 22.4585 137.246 21.829 137.246 20.9575V1.27466H141.095V20.6669C141.095 22.7248 140.587 24.3106 139.57 25.4242C138.553 26.5137 137.076 27.0584 135.14 27.0584Z" fill="#4F46E5"/>
<path d="M143.94 1.27466H149.642L152.184 19.4685H152.256L154.799 1.27466H160.5V26.6953H156.723V7.44824H156.651L153.745 26.6953H150.404L147.499 7.44824H147.427V26.6953H143.94V1.27466Z" fill="#4F46E5"/>
<path d="M0.5 26.6953C5.41448 26.6953 9.39841 22.7113 9.39841 17.7969C9.39841 12.8824 5.41448 8.89844 0.5 8.89844V15.1273C1.97433 15.1273 3.16951 16.3225 3.16951 17.7969C3.16951 19.2712 1.97433 20.4664 0.5 20.4664V26.6953Z" fill="#726BEA"/>
<path d="M30.1614 11.8646C28.6408 11.3829 27.0215 11.123 25.3414 11.123C16.5363 11.123 9.39844 18.261 9.39844 27.066C9.39844 27.9498 9.47036 28.8168 9.60862 29.6614H19.5145C19.1609 28.8686 18.9643 27.9903 18.9643 27.066C18.9643 23.544 21.8194 20.6888 25.3414 20.6888C27.2664 20.6888 28.9921 21.5417 30.1614 22.8902V11.8646Z" fill="#A5B4FC"/>
<path d="M2.06445 0C2.80219 6.67374 8.46024 11.8646 15.3306 11.8646C22.2009 11.8646 27.859 6.67374 28.5967 0H19.0512C18.4619 1.4773 17.0181 2.52121 15.3306 2.52121C13.643 2.52121 12.1993 1.4773 11.6099 0H2.06445Z" fill="#4F46E5"/>
</g>
<defs>
<clipPath id="clip0_9_523">
<rect width="160" height="30" fill="white" transform="translate(0.5)"/>
</clipPath>
</defs>
</svg>
