<svg width="120" height="30" viewBox="0 0 120 30" fill="none" xmlns="http://www.w3.org/2000/svg">
<path d="M3.44104 27.825H29.0911V2.17499H3.44104V27.825ZM24.1541 12.532H18.7341V7.11199H24.1541V12.532ZM8.37704 7.11199H13.8001V17.468H24.1541V22.888H8.37704V7.11199ZM45.7941 2.17499C43.2575 2.17499 40.7779 2.92717 38.6689 4.3364C36.5598 5.74563 34.916 7.74862 33.9453 10.0921C32.9746 12.4356 32.7207 15.0142 33.2155 17.502C33.7104 19.9898 34.9318 22.275 36.7254 24.0686C38.519 25.8623 40.8042 27.0837 43.292 27.5786C45.7799 28.0734 48.3585 27.8195 50.702 26.8488C53.0455 25.8781 55.0484 24.2343 56.4577 22.1252C57.8669 20.0161 58.6191 17.5365 58.6191 15C58.6151 11.5998 57.2626 8.34003 54.8583 5.93574C52.454 3.53144 49.1943 2.17896 45.7941 2.17499ZM45.7941 22.888C44.234 22.888 42.7089 22.4254 41.4117 21.5586C40.1146 20.6919 39.1035 19.46 38.5065 18.0186C37.9095 16.5773 37.7533 14.9913 38.0576 13.4611C38.362 11.931 39.1133 10.5255 40.2164 9.42233C41.3196 8.31918 42.7251 7.56792 44.2552 7.26356C45.7853 6.9592 47.3713 7.11541 48.8127 7.71243C50.254 8.30945 51.486 9.32048 52.3527 10.6177C53.2195 11.9148 53.6821 13.4399 53.6821 15C53.6789 17.0911 52.8468 19.0956 51.3682 20.5742C49.8896 22.0528 47.8851 22.8848 45.7941 22.888ZM104.513 2.17499C101.976 2.1748 99.4968 2.9268 97.3876 4.33591C95.2784 5.74502 93.6345 7.74794 92.6636 10.0914C91.6928 12.4348 91.4386 15.0136 91.9334 17.5014C92.4281 19.9893 93.6495 22.2746 95.4431 24.0683C97.2366 25.862 99.5218 27.0836 102.01 27.5785C104.497 28.0734 107.076 27.8195 109.42 26.8489C111.763 25.8782 113.766 24.2344 115.175 22.1253C116.585 20.0162 117.337 17.5366 117.337 15C117.333 11.6 115.981 8.34035 113.577 5.93609C111.173 3.53182 107.913 2.17923 104.513 2.17499ZM104.513 22.888C102.953 22.8882 101.428 22.4257 100.13 21.5591C98.8332 20.6925 97.822 19.4606 97.2248 18.0193C96.6276 16.578 96.4713 14.9919 96.7755 13.4617C97.0798 11.9316 97.831 10.526 98.9341 9.42269C100.037 8.31943 101.443 7.56807 102.973 7.26363C104.503 6.95919 106.089 7.11534 107.53 7.71234C108.972 8.30933 110.204 9.32035 111.071 10.6176C111.937 11.9148 112.4 13.4399 112.4 15C112.397 17.0909 111.565 19.0952 110.086 20.5738C108.608 22.0524 106.604 22.8846 104.513 22.888ZM75.1531 2.17499C72.6165 2.17499 70.1369 2.92717 68.0279 4.3364C65.9188 5.74563 64.275 7.74862 63.3043 10.0921C62.3336 12.4356 62.0797 15.0142 62.5745 17.502C63.0694 19.9898 64.2908 22.275 66.0844 24.0686C67.878 25.8623 70.1632 27.0837 72.651 27.5786C75.1388 28.0734 77.7175 27.8195 80.061 26.8488C82.4045 25.8781 84.4074 24.2343 85.8167 22.1252C87.2259 20.0161 87.9781 17.5365 87.9781 15C87.9741 11.5998 86.6216 8.34003 84.2173 5.93574C81.813 3.53144 78.5533 2.17896 75.1531 2.17499ZM75.1531 22.888C73.6995 22.8887 72.2741 22.4878 71.034 21.7295C69.794 20.9712 68.7875 19.8851 68.1258 18.5909C67.4642 17.2967 67.1729 15.8448 67.2843 14.3956C67.3957 12.9463 67.9053 11.556 68.757 10.3781C69.6087 9.20025 70.7693 8.2806 72.1106 7.7207C73.452 7.16079 74.922 6.98241 76.3583 7.20523C77.7947 7.42806 79.1415 8.04342 80.2502 8.98341C81.3589 9.92339 82.1863 11.1515 82.6411 12.532H75.1531V17.468H82.6411C82.1202 19.0433 81.1166 20.4147 79.7725 21.3875C78.4285 22.3604 76.8123 22.8853 75.1531 22.888Z" fill="#394149"/>
</svg>
