<svg width="155" height="28" viewBox="0 0 155 28" fill="none" xmlns="http://www.w3.org/2000/svg">
<g clip-path="url(#clip0_9_552)">
<path d="M23.6526 21.1945H31.6477L11.8422 1.38892H3.84705L23.6526 21.1945Z" fill="#7476ED"/>
<path d="M15.9497 1.38892L35.0419 20.4811V1.38892H29.8752V7.41668L23.8474 1.38892L15.9497 1.38892Z" fill="#E56F8C"/>
<path d="M0.5 2.05194V21.1944H5.66667V15.1666L11.6944 21.1944H19.6425L0.5 2.05194Z" fill="#64C2DB"/>
<path d="M47.5098 18.2164H52.1391V20.9444H43.9758V6.43646H47.5098V18.2164Z" fill="#3A3B7B"/>
<path d="M58.4541 21.1098C57.3243 21.1098 56.3047 20.8687 55.3954 20.3864C54.4998 19.9042 53.7903 19.2153 53.2667 18.3198C52.757 17.4242 52.5021 16.3771 52.5021 15.1784C52.5021 13.9936 52.7638 12.9533 53.2874 12.0578C53.811 11.1484 54.5274 10.4527 55.4367 9.97046C56.3461 9.48824 57.3656 9.24713 58.4954 9.24713C59.6252 9.24713 60.6447 9.48824 61.5541 9.97046C62.4634 10.4527 63.1798 11.1484 63.7034 12.0578C64.227 12.9533 64.4887 13.9936 64.4887 15.1784C64.4887 16.3633 64.2201 17.4104 63.6827 18.3198C63.1592 19.2153 62.4358 19.9042 61.5127 20.3864C60.6034 20.8687 59.5838 21.1098 58.4541 21.1098ZM58.4541 18.0511C59.1292 18.0511 59.701 17.8031 60.1694 17.3071C60.6516 16.8111 60.8927 16.1016 60.8927 15.1784C60.8927 14.2553 60.6585 13.5458 60.1901 13.0498C59.7354 12.5538 59.1705 12.3058 58.4954 12.3058C57.8065 12.3058 57.2347 12.5538 56.7801 13.0498C56.3254 13.532 56.0981 14.2416 56.0981 15.1784C56.0981 16.1016 56.3185 16.8111 56.7594 17.3071C57.2141 17.8031 57.779 18.0511 58.4541 18.0511Z" fill="#3A3B7B"/>
<path d="M70.1249 9.24713C70.9378 9.24713 71.6474 9.41246 72.2536 9.74313C72.8736 10.0738 73.3489 10.5078 73.6796 11.0451V9.41246H77.2136V20.9238C77.2136 21.9847 77 22.9422 76.5729 23.7964C76.1596 24.6644 75.5189 25.3533 74.6509 25.8631C73.7967 26.3729 72.7289 26.6278 71.4476 26.6278C69.7391 26.6278 68.3545 26.2213 67.2936 25.4084C66.2327 24.6093 65.6265 23.5209 65.4749 22.1431H68.9676C69.0778 22.584 69.3396 22.9284 69.7529 23.1764C70.1663 23.4382 70.676 23.5691 71.2823 23.5691C72.0125 23.5691 72.5911 23.3556 73.0183 22.9284C73.4591 22.5151 73.6796 21.8469 73.6796 20.9238V19.2911C73.3351 19.8284 72.8598 20.2693 72.2536 20.6138C71.6474 20.9444 70.9378 21.1098 70.1249 21.1098C69.1743 21.1098 68.3131 20.8687 67.5416 20.3864C66.77 19.8904 66.1569 19.1947 65.7023 18.2991C65.2614 17.3898 65.0409 16.3427 65.0409 15.1578C65.0409 13.9729 65.2614 12.9327 65.7023 12.0371C66.1569 11.1416 66.77 10.4527 67.5416 9.97046C68.3131 9.48824 69.1743 9.24713 70.1249 9.24713ZM73.6796 15.1784C73.6796 14.2967 73.4316 13.6009 72.9356 13.0911C72.4534 12.5813 71.8609 12.3264 71.1583 12.3264C70.4556 12.3264 69.8563 12.5813 69.3603 13.0911C68.878 13.5871 68.6369 14.276 68.6369 15.1578C68.6369 16.0396 68.878 16.7422 69.3603 17.2658C69.8563 17.7756 70.4556 18.0304 71.1583 18.0304C71.8609 18.0304 72.4534 17.7756 72.9356 17.2658C73.4316 16.756 73.6796 16.0602 73.6796 15.1784Z" fill="#3A3B7B"/>
<path d="M84.3996 21.1098C83.2698 21.1098 82.2503 20.8687 81.3409 20.3864C80.4454 19.9042 79.7358 19.2153 79.2123 18.3198C78.7025 17.4242 78.4476 16.3771 78.4476 15.1784C78.4476 13.9936 78.7094 12.9533 79.2329 12.0578C79.7565 11.1484 80.4729 10.4527 81.3823 9.97046C82.2916 9.48824 83.3112 9.24713 84.4409 9.24713C85.5707 9.24713 86.5903 9.48824 87.4996 9.97046C88.4089 10.4527 89.1254 11.1484 89.6489 12.0578C90.1725 12.9533 90.4343 13.9936 90.4343 15.1784C90.4343 16.3633 90.1656 17.4104 89.6283 18.3198C89.1047 19.2153 88.3814 19.9042 87.4583 20.3864C86.5489 20.8687 85.5294 21.1098 84.3996 21.1098ZM84.3996 18.0511C85.0747 18.0511 85.6465 17.8031 86.1149 17.3071C86.5972 16.8111 86.8383 16.1016 86.8383 15.1784C86.8383 14.2553 86.6041 13.5458 86.1356 13.0498C85.6809 12.5538 85.1161 12.3058 84.4409 12.3058C83.7521 12.3058 83.1803 12.5538 82.7256 13.0498C82.2709 13.532 82.0436 14.2416 82.0436 15.1784C82.0436 16.1016 82.2641 16.8111 82.7049 17.3071C83.1596 17.8031 83.7245 18.0511 84.3996 18.0511Z" fill="#3A3B7B"/>
<path d="M93.4665 8.21378C92.8465 8.21378 92.3367 8.03466 91.9371 7.67644C91.5514 7.30444 91.3585 6.84978 91.3585 6.31244C91.3585 5.76133 91.5514 5.30666 91.9371 4.94844C92.3367 4.57644 92.8465 4.39044 93.4665 4.39044C94.0727 4.39044 94.5687 4.57644 94.9545 4.94844C95.354 5.30666 95.5538 5.76133 95.5538 6.31244C95.5538 6.84978 95.354 7.30444 94.9545 7.67644C94.5687 8.03466 94.0727 8.21378 93.4665 8.21378ZM95.2231 9.41244V20.9444H91.6891V9.41244H95.2231Z" fill="#3A3B7B"/>
<path d="M100.698 11.0451C101.043 10.5078 101.518 10.0738 102.124 9.74313C102.73 9.41246 103.44 9.24713 104.253 9.24713C105.204 9.24713 106.065 9.48824 106.836 9.97046C107.608 10.4527 108.214 11.1416 108.655 12.0371C109.11 12.9327 109.337 13.9729 109.337 15.1578C109.337 16.3427 109.11 17.3898 108.655 18.2991C108.214 19.1947 107.608 19.8904 106.836 20.3864C106.065 20.8687 105.204 21.1098 104.253 21.1098C103.454 21.1098 102.744 20.9444 102.124 20.6138C101.518 20.2831 101.043 19.856 100.698 19.3324V26.4418H97.1642V9.41246H100.698V11.0451ZM105.741 15.1578C105.741 14.276 105.493 13.5871 104.997 13.0911C104.515 12.5813 103.915 12.3264 103.199 12.3264C102.496 12.3264 101.897 12.5813 101.401 13.0911C100.919 13.6009 100.678 14.2967 100.678 15.1784C100.678 16.0602 100.919 16.756 101.401 17.2658C101.897 17.7756 102.496 18.0304 103.199 18.0304C103.902 18.0304 104.501 17.7756 104.997 17.2658C105.493 16.7422 105.741 16.0396 105.741 15.1578Z" fill="#3A3B7B"/>
<path d="M115.262 21.1098C114.256 21.1098 113.361 20.9376 112.576 20.5931C111.79 20.2487 111.17 19.7802 110.716 19.1878C110.261 18.5816 110.006 17.9064 109.951 17.1624H113.444C113.485 17.562 113.671 17.8858 114.002 18.1338C114.332 18.3818 114.739 18.5058 115.221 18.5058C115.662 18.5058 115.999 18.4231 116.234 18.2578C116.482 18.0787 116.606 17.8513 116.606 17.5758C116.606 17.2451 116.433 17.004 116.089 16.8524C115.744 16.6871 115.186 16.508 114.415 16.3151C113.588 16.1222 112.899 15.9224 112.348 15.7158C111.797 15.4953 111.322 15.1578 110.922 14.7031C110.523 14.2347 110.323 13.6078 110.323 12.8224C110.323 12.1611 110.502 11.5618 110.86 11.0244C111.232 10.4734 111.77 10.0394 112.472 9.72246C113.189 9.40557 114.036 9.24713 115.014 9.24713C116.461 9.24713 117.598 9.60535 118.424 10.3218C119.265 11.0382 119.747 11.9889 119.871 13.1738H116.606C116.55 12.7742 116.371 12.4573 116.068 12.2231C115.779 11.9889 115.393 11.8718 114.911 11.8718C114.498 11.8718 114.181 11.9544 113.96 12.1198C113.74 12.2713 113.63 12.4849 113.63 12.7604C113.63 13.0911 113.802 13.3391 114.146 13.5044C114.504 13.6698 115.056 13.8351 115.8 14.0004C116.654 14.2209 117.35 14.4413 117.887 14.6618C118.424 14.8684 118.893 15.2129 119.292 15.6951C119.706 16.1636 119.919 16.7973 119.933 17.5964C119.933 18.2716 119.74 18.8778 119.354 19.4151C118.982 19.9387 118.438 20.352 117.722 20.6551C117.019 20.9582 116.199 21.1098 115.262 21.1098Z" fill="#3A3B7B"/>
<path d="M132.862 9.41241V20.9444H129.328V19.3738C128.97 19.8836 128.481 20.2969 127.861 20.6138C127.255 20.9169 126.58 21.0684 125.836 21.0684C124.954 21.0684 124.175 20.8756 123.5 20.4898C122.825 20.0902 122.302 19.5184 121.93 18.7744C121.558 18.0304 121.372 17.1556 121.372 16.1498V9.41241H124.885V15.6744C124.885 16.446 125.085 17.0453 125.484 17.4724C125.884 17.8996 126.421 18.1131 127.096 18.1131C127.785 18.1131 128.329 17.8996 128.729 17.4724C129.129 17.0453 129.328 16.446 129.328 15.6744V9.41241H132.862Z" fill="#3A3B7B"/>
<path d="M149.495 9.28845C150.928 9.28845 152.065 9.72245 152.905 10.5904C153.76 11.4584 154.187 12.664 154.187 14.2071V20.9444H150.673V14.6824C150.673 13.9384 150.474 13.3667 150.074 12.9671C149.688 12.5538 149.151 12.3471 148.462 12.3471C147.773 12.3471 147.229 12.5538 146.829 12.9671C146.444 13.3667 146.251 13.9384 146.251 14.6824V20.9444H142.737V14.6824C142.737 13.9384 142.538 13.3667 142.138 12.9671C141.752 12.5538 141.215 12.3471 140.526 12.3471C139.837 12.3471 139.293 12.5538 138.893 12.9671C138.508 13.3667 138.315 13.9384 138.315 14.6824V20.9444H134.781V9.41245H138.315V10.8591C138.673 10.3769 139.141 9.99801 139.72 9.72245C140.299 9.43312 140.953 9.28845 141.683 9.28845C142.551 9.28845 143.323 9.47445 143.998 9.84645C144.687 10.2185 145.224 10.7489 145.61 11.4378C146.01 10.804 146.554 10.2873 147.243 9.88779C147.932 9.48823 148.683 9.28845 149.495 9.28845Z" fill="#3A3B7B"/>
</g>
<defs>
<clipPath id="clip0_9_552">
<rect width="154" height="27" fill="white" transform="translate(0.5 0.5)"/>
</clipPath>
</defs>
</svg>
