<svg width="105" height="74" viewBox="0 0 105 74" fill="none" xmlns="http://www.w3.org/2000/svg">
<path d="M8.97167 67.076V52H6.5V67.076H8.97167Z" fill="#152C4F"/>
<path d="M10.4845 62.0507C10.4845 65.1307 12.551 67.3191 15.6912 67.3191C18.8314 67.3191 20.8979 65.1307 20.8979 62.0507C20.8979 58.9706 18.8314 56.7822 15.6912 56.7822C12.551 56.7822 10.4845 58.9706 10.4845 62.0507ZM12.9764 62.0507C12.9764 60.2472 14.0502 58.9909 15.6912 58.9909C17.3322 58.9909 18.406 60.2472 18.406 62.0507C18.406 63.8338 17.3322 65.1104 15.6912 65.1104C14.0502 65.1104 12.9764 63.8338 12.9764 62.0507Z" fill="#152C4F"/>
<path d="M21.7292 61.848C21.7292 64.766 23.6133 66.8734 26.4294 66.8734C27.8881 66.8734 29.1442 66.2857 29.7722 65.3131V67.0152C29.7722 68.6565 28.739 69.7508 27.0169 69.7508C25.4772 69.7508 24.4237 69.001 24.2819 67.6839H21.79C22.1141 70.2979 24.1198 72 26.8751 72C30.1167 72 32.1831 69.8723 32.1831 66.5694V57.0659H29.9951L29.8533 58.4235C29.2455 57.3698 27.9894 56.7416 26.5104 56.7416C23.6538 56.7416 21.7292 58.9098 21.7292 61.848ZM24.2414 61.7872C24.2414 60.1256 25.2949 58.9098 26.8549 58.9098C28.5567 58.9098 29.6912 60.1459 29.6912 61.7872C29.6912 63.4488 28.5567 64.7254 26.8549 64.7254C25.3151 64.7254 24.2414 63.4691 24.2414 61.7872Z" fill="#152C4F"/>
<path d="M33.4062 62.0507C33.4062 65.1307 35.4727 67.3191 38.6129 67.3191C41.7531 67.3191 43.8196 65.1307 43.8196 62.0507C43.8196 58.9706 41.7531 56.7822 38.6129 56.7822C35.4727 56.7822 33.4062 58.9706 33.4062 62.0507ZM35.8982 62.0507C35.8982 60.2472 36.9719 58.9909 38.6129 58.9909C40.2539 58.9909 41.3278 60.2472 41.3278 62.0507C41.3278 63.8338 40.2539 65.1104 38.6129 65.1104C36.9719 65.1104 35.8982 63.8338 35.8982 62.0507Z" fill="#152C4F"/>
<path d="M46.4946 55.0193C47.305 55.0193 47.9736 54.3708 47.9736 53.54C47.9736 52.7295 47.305 52.0811 46.4946 52.0811C45.664 52.0811 45.0359 52.7295 45.0359 53.54C45.0359 54.3708 45.664 55.0193 46.4946 55.0193ZM45.2588 67.076H47.7305V57.0659H45.2588V67.076Z" fill="#152C4F"/>
<path d="M49.8959 71.7163H52.3067V65.6981C52.9348 66.7315 54.2922 67.3394 55.7914 67.3394C58.7493 67.3394 60.5119 65.0699 60.4713 61.9493C60.4106 58.8085 58.6075 56.7619 55.7711 56.7619C54.2517 56.7619 52.874 57.4306 52.2662 58.5856L52.1244 57.0659H49.8959V71.7163ZM52.408 62.0709C52.408 60.2675 53.5021 59.0111 55.2241 59.0111C56.9462 59.0111 57.9794 60.2877 57.9794 62.0709C57.9794 63.8541 56.9462 65.1104 55.2241 65.1104C53.5021 65.1104 52.408 63.8744 52.408 62.0709Z" fill="#152C4F"/>
<path d="M61.0989 64.077C61.18 66.0628 62.7197 67.3394 65.1103 67.3394C67.4604 67.3394 69.0609 66.0831 69.0609 64.1378C69.0609 62.6991 68.1695 61.7264 66.5285 61.3212L64.7659 60.8956C64.0163 60.693 63.5098 60.4296 63.5098 59.7812C63.5098 59.0922 64.0568 58.6059 64.9482 58.6059C65.8802 58.6059 66.488 59.1327 66.488 60.0041H68.7368C68.6557 58.0182 67.1768 56.7619 65.009 56.7619C62.8615 56.7619 61.261 58.0182 61.261 59.923C61.261 61.2199 62.0106 62.2938 63.9353 62.8004L65.6776 63.2462C66.3259 63.4286 66.7311 63.7325 66.7311 64.2999C66.7311 65.0902 65.9815 65.4549 65.0698 65.4549C63.9758 65.4549 63.3477 64.9483 63.3477 64.077H61.0989Z" fill="#152C4F"/>
<path d="M74.1878 67.3394C75.5452 67.3394 76.8418 66.7112 77.4293 65.7791L77.5914 67.076H79.901V57.0659H77.4293V62.3141C77.4293 64.1175 76.7405 65.1307 75.1198 65.1307C73.8637 65.1307 72.9925 64.5228 72.9925 62.4559V57.0659H70.5208V63.3273C70.5208 65.7183 71.8174 67.3394 74.1878 67.3394Z" fill="#152C4F"/>
<path d="M84.5541 67.076V61.3212C84.5541 59.7001 85.5063 58.9301 86.6814 58.9301C87.8564 58.9301 88.6263 59.6798 88.6263 61.0983V67.076H91.0372V61.3414C91.0372 59.7001 91.9691 58.9301 93.1442 58.9301C94.3395 58.9301 95.1094 59.6798 95.1094 61.0983V67.076H97.5V60.5309C97.5 58.2209 96.2236 56.7619 93.7925 56.7619C92.273 56.7619 91.0777 57.4914 90.5915 58.6667C90.0445 57.4914 88.9505 56.7619 87.2892 56.7619C86.1141 56.7619 85.0606 57.309 84.4731 58.2006L84.3515 57.0659H82.0825V67.076H84.5541Z" fill="#152C4F"/>
<path d="M45.987 38.3523C42.7308 44.2121 36.1009 47 29.3971 47H2.5C30.5 43.5 50 29.5 52.5 10C55 29.5 74.5 43.5 102.5 47H75.6029C68.8991 47 62.2692 44.2121 59.013 38.3523C55.4886 32.01 53.2432 24.8334 52.5 17C51.7568 24.8334 49.5114 32.01 45.987 38.3523Z" fill="#1A4688"/>
<path d="M30.6051 36.2813C29.0344 37.1656 27.3822 37.9962 25.6522 38.7699C24.6695 35.3753 24.3079 31.8138 24.5963 28.266C24.9778 23.5725 26.4851 19.0476 28.9847 15.0923C31.4844 11.137 34.8991 7.87319 38.9265 5.59008C42.9539 3.30698 47.4697 2.07501 52.0738 2.00332C56.6779 1.93162 61.2282 3.02241 65.3217 5.17906C69.4152 7.3357 72.9255 10.4916 75.5416 14.3673C78.1578 18.243 79.7991 22.7188 80.3202 27.3982C80.7463 31.2257 80.4123 35.0929 79.3478 38.7699C77.6178 37.9962 75.9656 37.1655 74.3949 36.2812C75.0571 33.593 75.2427 30.7964 74.9342 28.0256C74.514 24.2521 73.1904 20.6428 71.0808 17.5175C68.9711 14.3922 66.1404 11.8472 62.8394 10.1081C59.5384 8.36897 55.869 7.48937 52.1563 7.54718C48.4435 7.60499 44.802 8.59845 41.5544 10.4395C38.3067 12.2806 35.553 14.9125 33.5373 18.1021C31.5216 21.2917 30.3061 24.9405 29.9985 28.7254C29.7917 31.2694 29.9993 33.8222 30.6051 36.2813Z" fill="#7FB5E6"/>
</svg>
