<svg width="50" height="48" viewBox="0 0 50 48" fill="none" xmlns="http://www.w3.org/2000/svg">
<path d="M25 12.75C25 18.9632 19.9632 24 13.75 24H2.5V12.75C2.5 6.53679 7.53679 1.5 13.75 1.5C19.9632 1.5 25 6.53679 25 12.75Z" fill="#17CF97"/>
<path d="M25 35.25C25 29.0368 30.0368 24 36.25 24H47.5V35.25C47.5 41.4632 42.4632 46.5 36.25 46.5C30.0368 46.5 25 41.4632 25 35.25Z" fill="#17CF97"/>
<path d="M2.5 35.25C2.5 41.4632 7.53679 46.5 13.75 46.5H25V35.25C25 29.0368 19.9632 24 13.75 24C7.53679 24 2.5 29.0368 2.5 35.25Z" fill="#17CF97"/>
<path d="M47.5 12.75C47.5 6.53679 42.4632 1.5 36.25 1.5H25V12.75C25 18.9632 30.0368 24 36.25 24C42.4632 24 47.5 18.9632 47.5 12.75Z" fill="#17CF97"/>
</svg>
